<?xml version="1.0" encoding="UTF-8" standalone="no"?><!DOCTYPE svg PUBLIC "-//W3C//DTD SVG 1.1//EN" "http://www.w3.org/Graphics/SVG/1.1/DTD/svg11.dtd"><svg width="100%" height="100%" viewBox="0 0 161 282" version="1.1" xmlns="http://www.w3.org/2000/svg" xmlns:xlink="http://www.w3.org/1999/xlink" xml:space="preserve" xmlns:serif="http://www.serif.com/" style="fill-rule:evenodd;clip-rule:evenodd;stroke-miterlimit:3.86369;"><rect id="Light-Light" serif:id="Light Light" x="0" y="0" width="160.024" height="281.959" style="fill:none;"/><clipPath id="_clip1"><rect x="0" y="0" width="160.024" height="281.959"/></clipPath><g clip-path="url(#_clip1)"><g><path d="M-63.348,-18.189l181.444,-10.042c12.884,-0.713 23.904,9.153 24.617,22.035l14.273,257.895c0.713,12.883 -9.151,23.904 -22.035,24.617l-181.445,10.042c-12.883,0.713 -23.904,-9.153 -24.617,-22.035l-14.273,-257.895c-0.713,-12.883 9.152,-23.904 22.036,-24.617Z" style="fill:#fafafa;fill-rule:nonzero;"/><clipPath id="_clip2"><path d="M-63.348,-18.189l181.444,-10.042c12.884,-0.713 23.904,9.153 24.617,22.035l14.273,257.895c0.713,12.883 -9.151,23.904 -22.035,24.617l-181.445,10.042c-12.883,0.713 -23.904,-9.153 -24.617,-22.035l-14.273,-257.895c-0.713,-12.883 9.152,-23.904 22.036,-24.617Z" clip-rule="nonzero"/></clipPath><g clip-path="url(#_clip2)"><path d="M143.879,-31.2c0,0 -21.504,36.487 -102.696,45.634c9.449,12.114 17.237,25.699 23.651,40.028c35.883,80.17 28.748,183.668 28.748,183.668c56.489,10.931 56.643,90.534 56.643,90.534l13.703,-0.759l-20.049,-359.105Z" style="fill:#fafafa;fill-rule:nonzero;"/></g><g><g><clipPath id="_clip3"><path d="M-63.348,-18.189l181.444,-10.042c12.884,-0.713 23.904,9.153 24.617,22.035l14.273,257.895c0.713,12.883 -9.151,23.904 -22.035,24.617l-181.445,10.042c-12.883,0.713 -23.904,-9.153 -24.617,-22.035l-14.273,-257.895c-0.713,-12.883 9.152,-23.904 22.036,-24.617Z" clip-rule="nonzero"/></clipPath><g clip-path="url(#_clip3)"><path d="M46.572,61.405c0.552,9.969 9.094,17.615 19.063,17.063c9.969,-0.552 17.615,-9.093 17.064,-19.063c-0.552,-9.969 -9.094,-17.615 -19.063,-17.063c-9.97,0.552 -17.616,9.094 -17.064,19.063Z" style="fill:#fff;stroke:#fff;stroke-width:0.64px;"/><path d="M64.141,107.915c0.552,9.969 9.094,17.615 19.063,17.064c9.97,-0.552 17.615,-9.094 17.064,-19.063c-0.552,-9.97 -9.094,-17.616 -19.063,-17.064c-9.97,0.552 -17.616,9.094 -17.064,19.063Z" style="fill:#fff;stroke:#fff;stroke-width:0.64px;"/><path d="M71.744,154.977c0.552,9.97 9.094,17.616 19.063,17.064c9.969,-0.552 17.615,-9.094 17.064,-19.063c-0.552,-9.97 -9.094,-17.615 -19.063,-17.064c-9.97,0.552 -17.616,9.094 -17.064,19.063Z" style="fill:#fff;stroke:#fff;stroke-width:0.64px;"/><path d="M74.364,202.315c0.552,9.969 9.093,17.615 19.063,17.063c9.969,-0.552 17.615,-9.093 17.063,-19.062c-0.551,-9.97 -9.093,-17.615 -19.063,-17.064c-9.969,0.552 -17.615,9.094 -17.063,19.063Z" style="fill:#fff;stroke:#fff;stroke-width:0.64px;"/></g></g></g><g><clipPath id="_clip4"><path d="M-63.348,-18.189l181.444,-10.042c12.884,-0.713 23.904,9.153 24.617,22.035l14.273,257.895c0.713,12.883 -9.151,23.904 -22.035,24.617l-181.445,10.042c-12.883,0.713 -23.904,-9.153 -24.617,-22.035l-14.273,-257.895c-0.713,-12.883 9.152,-23.904 22.036,-24.617Z" clip-rule="nonzero"/></clipPath><g clip-path="url(#_clip4)"><path d="M143.879,-31.2c0,0 -21.504,36.487 -102.696,45.634c62.313,79.893 52.399,223.696 52.399,223.696c56.489,10.931 56.643,90.534 56.643,90.534l13.703,-0.759l-20.049,-359.105Z" style="fill:none;stroke:#fff;stroke-width:8px;"/><path d="M45.307,61.625c0.551,9.969 9.093,17.615 19.063,17.063c9.969,-0.551 17.615,-9.093 17.063,-19.063c-0.551,-9.969 -9.093,-17.615 -19.063,-17.063c-9.969,0.551 -17.615,9.093 -17.063,19.063Z" style="fill:#f7f7f7;stroke:#fff;stroke-width:8px;"/><path d="M62.876,108.135c0.551,9.969 9.093,17.615 19.062,17.063c9.969,-0.552 17.614,-9.093 17.062,-19.062c-0.551,-9.969 -9.093,-17.615 -19.062,-17.064c-9.969,0.552 -17.614,9.094 -17.062,19.063Z" style="fill:#fafafa;stroke:#fff;stroke-width:8px;"/><path d="M70.478,155.197c0.552,9.969 9.094,17.615 19.063,17.063c9.968,-0.551 17.614,-9.093 17.062,-19.062c-0.552,-9.97 -9.093,-17.616 -19.062,-17.064c-9.969,0.552 -17.614,9.093 -17.063,19.063Z" style="fill:#fafafa;stroke:#fff;stroke-width:8px;"/><path d="M73.098,202.535c0.552,9.969 9.093,17.615 19.062,17.064c9.969,-0.552 17.615,-9.094 17.063,-19.063c-0.552,-9.97 -9.093,-17.616 -19.062,-17.064c-9.969,0.552 -17.614,9.093 -17.063,19.063Z" style="fill:#fafafa;stroke:#fff;stroke-width:8px;"/></g></g><path d="M-63.348,-18.189l181.444,-10.042c12.884,-0.713 23.904,9.153 24.617,22.035l14.273,257.895c0.713,12.883 -9.151,23.904 -22.035,24.617l-181.445,10.042c-12.883,0.713 -23.904,-9.153 -24.617,-22.035l-14.273,-257.895c-0.713,-12.883 9.152,-23.904 22.036,-24.617Z" style="fill:none;stroke:#fff;stroke-width:8px;stroke-linecap:square;"/></g></g></svg>