<?xml version="1.0" encoding="UTF-8" standalone="no"?>
<!DOCTYPE svg PUBLIC "-//W3C//DTD SVG 1.1//EN" "http://www.w3.org/Graphics/SVG/1.1/DTD/svg11.dtd">
<svg width="100%" height="100%" viewBox="0 0 2217 1387" version="1.1" xmlns="http://www.w3.org/2000/svg" xmlns:xlink="http://www.w3.org/1999/xlink" xml:space="preserve" xmlns:serif="http://www.serif.com/" style="fill-rule:evenodd;clip-rule:evenodd;stroke-miterlimit:10;">
    <g id="Funky-Frets-Logo----Sign" serif:id="Funky Frets Logo /  Sign" transform="matrix(0.884672,0,0,0.794853,-330.557,-253.097)">
        <rect x="373.65" y="318.419" width="2505.7" height="1743.77" style="fill:none;"/>
        <g id="Logo---Sign" serif:id="Logo - Sign" transform="matrix(4.70984,0,0,5.24206,-244.312,-312.986)">
            <g id="Background">
                <g transform="matrix(1,0,0,1,395.436,124.796)">
                    <path d="M0,313.01C-53.992,313.01 -105.007,297.331 -143.65,268.862C-183.919,239.194 -206.096,199.292 -206.096,156.506C-206.096,113.719 -183.919,73.817 -143.65,44.149C-105.007,15.678 -53.992,0 0,0C53.992,0 105.009,15.678 143.652,44.149C183.921,73.817 206.098,113.719 206.098,156.506C206.098,199.292 183.921,239.196 143.65,268.862C105.009,297.331 53.992,313.01 0,313.01" style="fill:rgb(250,243,216);fill-rule:nonzero;"/>
                </g>
                <g transform="matrix(1,0,0,1,395.436,124.796)">
                    <path d="M0,313.01C-53.992,313.01 -105.007,297.331 -143.65,268.862C-183.919,239.194 -206.096,199.292 -206.096,156.506C-206.096,113.719 -183.919,73.817 -143.65,44.149C-119.611,26.438 -90.784,13.677 -59.432,6.562C-40.384,2.239 -20.405,0 0,0C53.992,0 105.009,15.678 143.652,44.149C183.921,73.817 206.098,113.719 206.098,156.506C206.098,199.292 183.921,239.196 143.65,268.862C105.009,297.331 53.992,313.01 0,313.01Z" style="fill:none;stroke:rgb(35,31,32);stroke-width:0.79px;"/>
                </g>
                <g transform="matrix(1,0,0,1,395.436,142.518)">
                    <path d="M0,277.565C-103.87,277.565 -188.374,215.309 -188.374,138.783C-188.374,62.258 -103.87,0 0,0C103.871,0 188.376,62.258 188.376,138.783C188.376,215.309 103.871,277.565 0,277.565" style="fill:rgb(214,185,129);fill-rule:nonzero;"/>
                </g>
                <g transform="matrix(1,0,0,1,395.436,142.518)">
                    <path d="M0,277.565C-103.87,277.565 -188.374,215.309 -188.374,138.783C-188.374,62.258 -103.87,0 0,0C103.871,0 188.376,62.258 188.376,138.783C188.376,215.309 103.871,277.565 0,277.565Z" style="fill:none;stroke:rgb(35,31,32);stroke-width:1.57px;"/>
                </g>
                <g transform="matrix(1,0,0,1,212.432,281.302)">
                    <path d="M0,-0.001C0,73.682 81.934,133.413 183.005,133.413C284.076,133.413 366.01,73.682 366.01,-0.001C366.01,-73.683 284.076,-133.414 183.005,-133.414C81.934,-133.414 0,-73.683 0,-0.001" style="fill:rgb(35,31,32);fill-rule:nonzero;"/>
                </g>
            </g>
            <g id="Ukulele">
                <g transform="matrix(1,0,0,1,347.197,179.229)">
                    <path d="M0,63.39C-14.003,53.15 -23.841,39.692 -28.006,22.723C-29.079,18.354 -28.602,13.285 -27.612,8.808C-26.199,2.416 -20.967,0.065 -14.741,2.101C-13.146,2.622 -11.585,3.286 -10.075,4.021C-4.778,6.599 -0.089,5.782 4.407,2.006C13.727,-5.822 17.388,-4.935 23.922,6.775C22.946,7.488 21.644,8.044 20.977,9.03C20.204,10.172 19.25,12.004 19.667,12.992C21.221,16.676 23.304,20.137 25.446,24.167C28.252,22.857 30.5,21.808 32.715,20.774C41.394,28.61 40.082,36.769 29.361,40.451C24.877,41.991 23.021,45 22.11,49.217C21.511,51.996 21.254,55.093 19.811,57.401C15.168,64.825 7.962,69.212 0,63.39" style="fill:rgb(250,243,216);fill-rule:nonzero;"/>
                </g>
                <g transform="matrix(1,0,0,1,347.102,141.002)">
                    <path d="M0,101.426C-14.003,91.186 -23.841,77.729 -28.006,60.759C-29.078,56.39 -28.602,51.321 -27.612,46.844C-26.198,40.452 -20.967,38.101 -14.741,40.137C-13.146,40.658 -11.585,41.323 -10.075,42.058C-4.777,44.635 -0.088,43.819 4.407,40.042C13.727,32.214 17.388,33.101 23.922,44.811C22.946,45.524 21.644,46.08 20.977,47.066C20.204,48.208 19.25,50.041 19.667,51.029C21.221,54.713 23.304,58.174 25.446,62.203C28.252,60.894 30.501,59.844 32.716,58.81C41.394,66.646 40.082,74.805 29.361,78.487C24.878,80.027 23.021,83.037 22.111,87.254C21.511,90.032 21.254,93.129 19.811,95.437C15.168,102.861 7.962,107.248 0,101.426M22.688,96.466C24.085,94.232 24.567,91.589 24.992,89.258C25.108,88.623 25.222,87.993 25.355,87.377C26.175,83.575 27.639,81.763 30.757,80.692C35.874,78.935 39.38,76.119 40.896,72.548C42.131,69.64 41.986,66.393 40.476,63.157C39.511,61.09 38,59.046 35.979,57.071L77.516,33.926C79.911,34.6 82.453,33.953 84.294,33.483L84.792,33.355L85.214,33.06C86.951,31.845 88.703,30.666 90.445,29.492C95.003,26.423 99.714,23.25 103.938,19.576C107.536,16.449 105.905,8.664 105.835,8.335C105.674,7.582 105.419,6.84 105.057,6.065C104.322,4.49 103.294,3.11 102.301,1.774C101.876,1.204 101.453,0.636 101.068,0.065C97.818,-4.759 92.115,-5.822 87.197,-2.52C84.563,-0.75 81.931,1.025 79.299,2.802L73.431,6.758C69.507,9.398 67.401,13.08 67.329,17.05C64.655,18.737 57.25,23.406 54.083,25.4C44.785,31.255 36.002,36.785 27.09,42.473C26.966,42.552 26.849,42.628 26.728,42.705C23.361,36.714 20.212,32.571 15.892,31.777C11.468,30.965 7.112,34 3.063,37.402C-0.688,40.552 -4.211,41.057 -8.36,39.038C-10.145,38.17 -11.789,37.495 -13.384,36.973C-17.402,35.659 -21.273,35.882 -24.287,37.601C-27.138,39.228 -29.08,42.049 -29.9,45.76C-31.192,51.607 -31.32,56.721 -30.279,60.961C-29.149,65.564 -27.583,70.027 -25.625,74.224C-20.382,85.457 -12.163,95.218 -1.195,103.238C2.551,105.978 6.425,106.987 10.316,106.237C14.973,105.34 19.251,101.961 22.688,96.466" style="fill:rgb(168,123,80);fill-rule:nonzero;"/>
                </g>
                <g transform="matrix(1,0,0,1,346.215,205.848)">
                    <path d="M0,9.56C-2.571,6.463 -5.358,3.675 -8.309,0.723C-8.89,0.142 -9.476,-0.444 -10.064,-1.038L-8.627,-2.225L4.59,11.121C2.453,11.881 1.403,11.25 0,9.56M-8.435,-6.055C-10.458,-4.385 -12.08,-3.045 -14.246,-1.256C-9.968,3.171 -5.781,7.027 -2.179,11.368C1.347,15.615 4.675,14.67 9.333,11.886C3.223,5.717 -2.491,-0.053 -8.435,-6.055" style="fill:rgb(168,123,80);fill-rule:nonzero;"/>
                </g>
                <g transform="matrix(1,0,0,1,350.146,198.871)">
                    <path d="M0,7.404C2.011,11.841 6.565,13.579 10.826,11.534C15.333,9.372 17.245,4.091 15.134,-0.361C13.236,-4.365 8.494,-6.175 4.53,-4.409C0.044,-2.41 -2.015,2.959 0,7.404" style="fill:rgb(35,31,32);fill-rule:nonzero;"/>
                </g>
                <g transform="matrix(1,0,0,1,434.444,177.389)">
                    <path d="M0,4.633C-1.376,4.138 -2.104,3.446 -2.312,3.004C-2.34,2.942 -2.36,2.883 -2.372,2.827C-2.51,2.15 -1.737,0.289 -0.952,-0.308C-0.507,-0.645 0.586,-0.827 2.022,-0.472C3.606,-0.08 5.06,0.856 5.479,1.754C5.502,1.803 5.521,1.853 5.538,1.904C5.761,2.599 5.477,3.831 5.268,4.731C5.26,4.769 5.25,4.807 5.241,4.845C3.638,5.303 1.685,5.237 0,4.633M7.533,1.29C6.495,-1.944 0.314,-4.021 -2.355,-1.995C-3.729,-0.954 -4.922,1.709 -4.596,3.314C-3.934,6.577 2.559,8.654 7.066,6.506C7.21,5.265 8.096,3.045 7.533,1.29" style="fill:rgb(168,123,80);fill-rule:nonzero;"/>
                </g>
                <g transform="matrix(1,0,0,1,445.522,173.904)">
                    <path d="M0,-4.818C1.706,-5.444 3.627,-5.509 5.196,-4.965C6.188,-4.62 6.928,-4.058 7.225,-3.423C7.255,-3.357 7.282,-3.29 7.304,-3.22C7.582,-2.347 7.015,-0.228 6.342,0.378C6.165,0.526 5.262,0.738 3.728,0.4C1.656,-0.056 -0.13,-1.21 -0.5,-2.001L-0.527,-2.07C-0.709,-2.633 -0.302,-3.888 -0.059,-4.637C-0.039,-4.698 -0.02,-4.758 0,-4.818M7.835,1.921C9.147,0.742 9.957,-2.274 9.419,-3.962C8.348,-7.327 2.773,-8.778 -1.787,-6.485C-1.991,-5.397 -3.116,-3.171 -2.573,-1.482C-1.581,1.602 5.568,3.96 7.835,1.921" style="fill:rgb(168,123,80);fill-rule:nonzero;"/>
                </g>
                <g transform="matrix(1,0,0,1,424.833,136.892)">
                    <path d="M0,-5.152C1.707,-5.778 3.628,-5.843 5.197,-5.299C6.189,-4.954 6.929,-4.392 7.226,-3.757C7.256,-3.692 7.283,-3.624 7.305,-3.554C7.583,-2.681 7.016,-0.563 6.342,0.044C6.166,0.192 5.263,0.404 3.728,0.066C1.657,-0.39 -0.13,-1.544 -0.499,-2.336L-0.527,-2.404C-0.708,-2.968 -0.301,-4.222 -0.058,-4.971C-0.038,-5.032 -0.019,-5.092 0,-5.152M7.67,1.755C8.982,0.576 9.792,-2.44 9.254,-4.129C8.183,-7.493 2.608,-8.945 -1.952,-6.652C-2.156,-5.563 -3.281,-3.338 -2.738,-1.649C-1.746,1.435 5.403,3.793 7.67,1.755" style="fill:rgb(168,123,80);fill-rule:nonzero;"/>
                </g>
                <g transform="matrix(1,0,0,1,413.59,140.211)">
                    <path d="M0,4.633C-1.376,4.139 -2.104,3.447 -2.312,3.004C-2.34,2.942 -2.36,2.883 -2.372,2.827C-2.51,2.15 -1.737,0.289 -0.952,-0.308C-0.507,-0.645 0.586,-0.827 2.022,-0.472C3.606,-0.08 5.06,0.856 5.479,1.754C5.502,1.803 5.521,1.853 5.538,1.904C5.761,2.599 5.477,3.831 5.268,4.731C5.26,4.769 5.25,4.807 5.241,4.845C3.638,5.303 1.685,5.237 0,4.633M7.533,1.29C6.495,-1.944 0.314,-4.021 -2.355,-1.995C-3.729,-0.954 -4.922,1.709 -4.596,3.314C-3.934,6.577 2.559,8.654 7.066,6.506C7.21,5.265 8.096,3.045 7.533,1.29" style="fill:rgb(168,123,80);fill-rule:nonzero;"/>
                </g>
                <g transform="matrix(1,0,0,1,422.782,161.576)">
                    <path d="M0,-11.558C4.59,-14.647 9.171,-17.75 13.765,-20.834C17.384,-23.265 21.307,-22.582 23.708,-19.018C25.3,-16.655 27.49,-14.355 28.056,-11.734C28.644,-9.004 28.708,-4.649 27.07,-3.226C21.408,1.696 14.906,5.651 8.58,10.075C5.374,10.894 2.168,11.707 0.211,7.529C-0.636,5.723 -1.927,4.126 -3.008,2.429C-6.282,-2.711 -5.115,-8.116 0,-11.558" style="fill:rgb(250,243,216);fill-rule:nonzero;"/>
                </g>
                <g transform="matrix(1,0,0,1,414.778,198.778)">
                    <path d="M0,-38.196C2.631,-33.967 4.89,-30.336 7.377,-26.339C-8.739,-17.359 -24.353,-8.659 -39.892,0C-40.62,-0.65 -41.077,-0.914 -41.333,-1.309C-46.234,-8.827 -46.279,-8.908 -38.802,-13.68C-26.095,-21.79 -13.317,-29.79 0,-38.196Z" style="fill:rgb(187,90,63);fill-rule:nonzero;stroke:rgb(187,90,63);stroke-width:1.73px;"/>
                </g>
                <g transform="matrix(1,0,0,1,434.444,177.232)">
                    <path d="M0,4.79C-1.376,4.295 -2.104,3.603 -2.312,3.161C-2.34,3.099 -2.36,3.04 -2.372,2.984C-2.51,2.307 -1.737,0.446 -0.952,-0.151C-0.507,-0.488 0.586,-0.67 2.022,-0.315C3.606,0.077 5.06,1.013 5.479,1.911C5.502,1.96 5.521,2.01 5.538,2.061C5.761,2.756 5.477,3.988 5.268,4.888C5.26,4.926 5.25,4.964 5.241,5.002C3.638,5.46 1.685,5.394 0,4.79" style="fill:rgb(250,243,216);fill-rule:nonzero;"/>
                </g>
                <g transform="matrix(1,0,0,1,445.522,173.951)">
                    <path d="M0,-4.865C1.706,-5.491 3.627,-5.556 5.196,-5.012C6.188,-4.667 6.928,-4.105 7.225,-3.47C7.255,-3.404 7.282,-3.337 7.304,-3.267C7.582,-2.394 7.015,-0.275 6.342,0.331C6.165,0.479 5.262,0.691 3.728,0.353C1.656,-0.103 -0.13,-1.257 -0.5,-2.048L-0.527,-2.117C-0.709,-2.68 -0.302,-3.935 -0.059,-4.684C-0.039,-4.745 -0.02,-4.805 0,-4.865" style="fill:rgb(250,243,216);fill-rule:nonzero;"/>
                </g>
                <g transform="matrix(1,0,0,1,424.833,136.605)">
                    <path d="M0,-4.865C1.707,-5.491 3.628,-5.556 5.197,-5.012C6.189,-4.667 6.929,-4.105 7.226,-3.47C7.256,-3.405 7.283,-3.337 7.305,-3.267C7.583,-2.394 7.016,-0.276 6.342,0.331C6.166,0.479 5.263,0.691 3.728,0.353C1.657,-0.103 -0.13,-1.257 -0.499,-2.049L-0.527,-2.117C-0.708,-2.681 -0.301,-3.935 -0.058,-4.684C-0.038,-4.745 -0.019,-4.805 0,-4.865" style="fill:rgb(250,243,216);fill-rule:nonzero;"/>
                </g>
                <g transform="matrix(1,0,0,1,413.59,140.054)">
                    <path d="M0,4.79C-1.376,4.296 -2.104,3.604 -2.312,3.161C-2.34,3.099 -2.36,3.04 -2.372,2.984C-2.51,2.307 -1.737,0.446 -0.952,-0.151C-0.507,-0.488 0.586,-0.67 2.022,-0.315C3.606,0.077 5.06,1.013 5.479,1.911C5.502,1.96 5.521,2.01 5.538,2.061C5.761,2.756 5.477,3.988 5.268,4.888C5.26,4.926 5.25,4.964 5.241,5.002C3.638,5.46 1.685,5.394 0,4.79" style="fill:rgb(250,243,216);fill-rule:nonzero;"/>
                </g>
            </g>
            <g id="Funky-Frets" serif:id="Funky Frets">
                <g transform="matrix(1,0,0,1,271.414,227.452)">
                    <path d="M0,63.58L-0.179,62.712C-0.786,59.6 -1.713,55.707 -2.961,51.033C-4.21,46.36 -5.615,41.487 -7.178,36.414C-9.103,30.163 -11.353,23.668 -13.927,16.929L-14.363,15.798L-10.631,14.767L3.074,59.269L21.734,54.111C22.092,55.18 22.488,56.225 22.919,57.245L0,63.58ZM7.552,8.49L7.595,8.77C8.269,11.531 9.005,14.421 9.802,17.439C10.6,20.457 11.464,23.575 12.396,26.792L12.479,27.061L30.855,21.982L32.24,26.479L13.824,31.569L13.906,31.838C15.958,38.5 18.182,44.96 20.58,51.22L21.127,52.569L4.252,57.234L3.601,55.12L10.822,53.124L10.325,51.51L3.104,53.506L2.453,51.392L9.674,49.396L9.188,47.821L1.968,49.817L1.317,47.703L8.538,45.707L8.041,44.093L0.82,46.089L0.169,43.975L7.39,41.979L6.904,40.404L-0.316,42.4L-0.967,40.286L6.253,38.29L5.756,36.676L-1.464,38.672L-2.115,36.558L5.105,34.562L4.62,32.987L-2.601,34.982L-3.251,32.869L3.969,30.873L3.472,29.259L-3.749,31.255L-4.399,29.141L2.821,27.145L2.336,25.57L-4.885,27.565L-5.536,25.452L1.685,23.456L1.188,21.842L-6.033,23.838L-6.684,21.724L0.537,19.728L0.052,18.153L-7.169,20.148L-7.82,18.035L-0.599,16.039L-1.096,14.425L-8.317,16.421L-8.968,14.307L-1.747,12.311L-2.232,10.736L-14.97,14.256C-15.104,13.821 -15.369,13.102 -15.766,12.1C-15.915,11.807 -16.044,11.482 -16.155,11.122L24.086,0L27.541,6.218C23.191,6.197 16.627,6.941 7.848,8.45L7.552,8.49Z" style="fill:rgb(67,93,123);fill-rule:nonzero;stroke:rgb(67,93,123);stroke-width:10.19px;"/>
                </g>
                <g transform="matrix(1,0,0,1,348.61,273.558)">
                    <path d="M0,-32.679L-0.068,-34.414L-12.89,-33.97C-12.899,-34.195 -12.913,-34.357 -12.932,-34.456C-12.952,-34.554 -12.962,-34.659 -12.967,-34.772L-13.216,-36.544L-13.342,-37.472L9.053,-38.249L9.003,-37.188C8.472,-30.641 8.331,-24.193 8.576,-17.843C8.796,-12.142 9.256,-6.873 9.956,-2.037L-5.666,-1.495L-5.757,-3.823L1.107,-4.061L1.038,-5.839L-5.825,-5.601L-5.916,-7.929L0.947,-8.168L0.88,-9.903L-5.982,-9.665L-6.073,-11.993L0.791,-12.232L0.722,-14.01L-6.141,-13.771L-6.231,-16.1L0.632,-16.338L0.564,-18.074L-6.298,-17.835L-6.389,-20.164L0.475,-20.402L0.406,-22.18L-6.457,-21.942L-6.548,-24.27L0.316,-24.509L0.249,-26.244L-6.614,-26.006L-6.704,-28.334L0.159,-28.573L0.09,-30.35L-6.773,-30.113L-6.864,-32.441L0,-32.679ZM10.656,3.195L-11.423,3.961C-11.335,3.111 -11.273,2.006 -11.235,0.649L-11.227,-0.327C-16.753,3.313 -22.933,5.252 -29.766,5.488C-32.113,5.57 -34.447,5.432 -36.767,5.074C-39.086,4.717 -41.179,4.203 -43.043,3.533L-43.009,3.235C-42.821,1.872 -42.712,0.018 -42.682,-2.329C-42.656,-3.206 -42.648,-5.722 -42.658,-9.876C-42.669,-13.294 -42.695,-15.526 -42.736,-16.571C-42.927,-21.538 -43.299,-26.075 -43.85,-30.182L-43.933,-31.154L-40.049,-31.289L-38.785,1.393C-36.208,1.784 -33.671,1.936 -31.173,1.849C-27.65,1.727 -24.171,1.097 -20.733,-0.039C-17.296,-1.176 -14.169,-2.74 -11.353,-4.731C-11.332,-4.958 -11.325,-5.551 -11.331,-6.512L-11.398,-17.574C-11.456,-19.098 -11.566,-20.761 -11.727,-22.565C-12.001,-26.568 -12.307,-29.793 -12.643,-32.24L-8.714,-32.377L-7.451,0.305L10.204,-0.307L10.328,0.578L10.587,2.604C10.619,2.66 10.642,2.857 10.656,3.195ZM-30.229,-2.974L-30.297,-4.752L-37.115,-4.515L-37.205,-6.844L-30.387,-7.08L-30.455,-8.816L-37.272,-8.579L-37.362,-10.908L-30.544,-11.144L-30.614,-12.922L-37.431,-12.686L-37.521,-15.013L-30.703,-15.25L-30.771,-16.986L-37.589,-16.749L-37.678,-19.078L-30.86,-19.314L-30.93,-21.093L-37.748,-20.856L-37.837,-23.184L-31.019,-23.421L-31.086,-25.157L-37.905,-24.92L-37.994,-27.248L-31.177,-27.485L-31.246,-29.263L-38.063,-29.026L-38.153,-31.355L-31.335,-31.592L-31.402,-33.327L-44.18,-32.884C-44.219,-33.108 -44.244,-33.375 -44.256,-33.686L-44.505,-35.458L-44.632,-36.386L-22.237,-37.164L-22.331,-36.101C-22.863,-29.554 -23.004,-23.105 -22.759,-16.756C-22.576,-12.014 -22.224,-7.589 -21.704,-3.481L-21.513,-2.089L-21.496,-1.623C-24.858,-0.489 -28.225,0.136 -31.596,0.253C-33.612,0.323 -35.394,0.258 -36.938,0.057L-37.046,-2.737L-30.229,-2.974Z" style="fill:rgb(67,93,123);fill-rule:nonzero;stroke:rgb(67,93,123);stroke-width:10.19px;"/>
                </g>
                <g transform="matrix(1,0,0,1,406.641,236.928)">
                    <path d="M0,29.42L17.254,25.823L17.544,26.673L18.182,28.623C18.224,28.673 18.283,28.862 18.36,29.193L-3.527,33.755C-3.694,31.969 -4.007,29.764 -4.461,27.14C-5.357,21.688 -6.296,16.852 -7.276,12.632C-8.07,9.212 -9.006,5.648 -10.083,1.94C-10.388,0.76 -10.703,-0.201 -11.029,-0.943C-10.107,-1.482 -8.899,-1.995 -7.408,-2.478L0,29.42ZM-12.352,35.595L-34.238,40.157C-34.518,37.757 -34.83,35.552 -35.173,33.542C-36.069,28.089 -37.017,23.212 -38.017,18.91C-39.143,14.055 -40.373,9.627 -41.703,5.625L-41.968,4.682L-38.173,3.891L-30.756,35.831L-13.458,32.225C-13.414,32.419 -13.368,32.582 -13.321,32.717C-13.274,32.853 -13.238,32.975 -13.212,33.085L-12.53,35.025C-12.485,35.218 -12.426,35.408 -12.352,35.595ZM9.043,-10.722L9.171,-9.578C9.627,-5.884 10.122,-2.525 10.655,0.501C11.188,3.528 11.731,6.227 12.282,8.599C13.172,12.433 14.18,16.242 15.307,20.027C15.621,21.118 16.08,22.498 16.684,24.164L1.415,27.346L0.888,25.071L7.595,23.673L7.19,21.935L0.484,23.333L-0.045,21.058L6.663,19.66L6.269,17.963L-0.439,19.361L-0.968,17.087L5.739,15.688L5.336,13.95L-1.371,15.349L-1.898,13.073L4.808,11.675L4.414,9.979L-2.293,11.377L-2.822,9.101L3.885,7.703L3.481,5.965L-3.226,7.363L-3.754,5.088L2.953,3.69L2.56,1.993L-4.147,3.392L-4.677,1.116L2.031,-0.282L1.627,-2.019L-5.08,-0.622L-5.638,-3.021C-3.626,-3.788 -1.664,-4.37 0.249,-4.768L0.954,-4.915L0.58,-6.529L-1.009,-6.198C-2.744,-5.836 -4.53,-5.355 -6.363,-4.756C-8.199,-4.157 -9.978,-3.454 -11.703,-2.646C-13.428,-1.838 -14.995,-0.984 -16.405,-0.082C-17.814,0.818 -19.136,1.803 -20.369,2.869L-20.708,3.2L-20.694,3.458L-20.355,5.512C-19.889,8.451 -19.256,11.645 -18.456,15.092C-17.064,21.078 -15.589,26.236 -14.028,30.566L-29.296,33.748L-29.825,31.472L-23.162,30.084L-23.565,28.346L-30.229,29.735L-30.756,27.46L-24.093,26.071L-24.487,24.375L-31.15,25.763L-31.679,23.488L-25.017,22.099L-25.42,20.361L-32.083,21.75L-32.611,19.475L-25.948,18.086L-26.342,16.389L-33.005,17.778L-33.533,15.503L-26.87,14.114L-27.274,12.376L-33.937,13.765L-34.466,11.489L-27.803,10.101L-28.197,8.404L-34.86,9.793L-35.388,7.518L-28.725,6.128L-29.128,4.391L-35.792,5.78L-36.32,3.504L-29.657,2.116L-30.051,0.42L-42.538,3.022C-42.626,2.781 -42.701,2.522 -42.765,2.246L-43.345,0.545L-43.646,-0.347L-21.758,-4.909C-21.712,-4.311 -21.576,-3.125 -21.349,-1.351L-21.325,-1.053L-20.888,-1.36C-17.658,-3.653 -14.652,-5.414 -11.869,-6.645C-9.086,-7.876 -5.826,-8.881 -2.09,-9.66C1.381,-10.383 5.092,-10.737 9.043,-10.722Z" style="fill:rgb(67,93,123);fill-rule:nonzero;stroke:rgb(67,93,123);stroke-width:10.19px;"/>
                </g>
                <g transform="matrix(1,0,0,1,449.887,239.55)">
                    <path d="M0,17.471C-0.061,17.805 -0.112,18.169 -0.152,18.564C-0.687,22.001 -1.157,25.679 -1.563,29.596L-1.748,31.114L-17.199,28.591L-16.78,26.295L-10.013,27.4L-9.694,25.646L-16.462,24.541L-16.044,22.245L-9.276,23.35L-8.965,21.638L-15.732,20.534L-15.315,18.237L-8.548,19.342L-8.228,17.589L-14.995,16.484L-14.578,14.188L-7.811,15.293L-7.499,13.581L-14.267,12.476L-13.849,10.18L-7.081,11.285L-6.763,9.532L-13.53,8.427L-13.112,6.131L-6.344,7.236L-6.034,5.524L-12.801,4.419L-12.384,2.123L-5.615,3.228L-5.297,1.474L-12.064,0.369L-11.646,-1.926L-4.879,-0.821L-4.567,-2.533L-11.335,-3.638L-10.918,-5.934L-4.15,-4.829L-3.83,-6.583L-10.599,-7.688L-10.182,-9.984L-3.413,-8.879L-3.102,-10.591L-9.87,-11.696L-9.451,-13.991L-2.684,-12.886L-2.365,-14.639L-9.133,-15.744L-8.715,-18.041L-1.947,-16.936L-1.636,-18.647L-14.459,-20.741C-14.373,-21.214 -14.289,-22.017 -14.205,-23.15C-14.17,-23.344 -14.144,-23.527 -14.128,-23.696C-14.112,-23.865 -14.087,-24.047 -14.051,-24.242L8.033,-20.636L7.747,-19.566C6.626,-15.592 5.514,-11.075 4.409,-6.011C3.305,-0.946 2.345,3.825 1.529,8.306C1.11,10.617 0.815,12.317 0.648,13.407L0.572,13.825L1.077,13.563C3.196,12.505 7.538,10.061 14.103,6.233C16.702,4.709 20.36,2.497 25.075,-0.401L26.206,-1.076L35.602,0.457C31.327,2.282 27.842,3.876 25.149,5.242L17.529,9.07L16.316,9.689C16.981,11.575 18.181,14.565 19.911,18.658L23.722,27.449C24.771,29.913 26.032,32.726 27.505,35.889L12.232,33.396L11.181,30.86L17.948,31.965L17.155,30.03L10.432,28.932L9.424,26.404L16.104,27.494L15.302,25.6L8.667,24.517L7.615,21.981L14.25,23.065L13.456,21.129L6.866,20.054L5.858,17.525L12.404,18.594L11.603,16.7L5.324,15.675L3.612,16.771L10.897,34.94L28.44,37.805L28.854,38.56L29.973,40.72C30.012,40.842 30.195,41.172 30.525,41.713L7.952,38.028C7.288,35.627 6.335,32.805 5.09,29.564C2.91,23.907 1.235,19.923 0.066,17.611L0,17.471ZM-24.419,32.742L-24.161,31.838C-23.208,28.613 -22.179,24.504 -21.071,19.511C-19.965,14.519 -18.909,9.268 -17.907,3.757C-16.672,-3.033 -15.629,-10.199 -14.775,-17.74L-14.637,-19.008L-10.54,-18.339L-19.335,30.004L-1.926,32.846C-2.008,33.464 -2.144,34.631 -2.333,36.348L-24.419,32.742Z" style="fill:rgb(67,93,123);fill-rule:nonzero;stroke:rgb(67,93,123);stroke-width:10.19px;"/>
                </g>
                <g transform="matrix(1,0,0,1,267.078,296.1)">
                    <path d="M0,52.042L0.081,51.203C0.402,48.204 0.65,44.41 0.825,39.822C1,35.234 1.086,30.424 1.086,25.392C1.086,19.19 0.858,12.683 0.402,5.871L0.322,4.727L4.024,4.727L4.024,48.877L22.537,48.877C22.563,49.944 22.63,50.999 22.738,52.042L0,52.042ZM22.416,3.584L22.375,3.85C22.215,6.544 22.074,9.373 21.953,12.333C21.833,15.294 21.745,18.363 21.691,21.541L21.691,21.808L39.922,21.808L39.922,26.269L21.651,26.269L21.651,26.535C21.651,33.145 21.866,39.612 22.295,45.941L22.416,47.313L5.674,47.313L5.674,45.217L12.838,45.217L12.838,43.615L5.674,43.615L5.674,41.519L12.838,41.519L12.838,39.956L5.674,39.956L5.674,37.858L12.838,37.858L12.838,36.258L5.674,36.258L5.674,34.16L12.838,34.16L12.838,32.598L5.674,32.598L5.674,30.5L12.838,30.5L12.838,28.899L5.674,28.899L5.674,26.802L12.838,26.802L12.838,25.239L5.674,25.239L5.674,23.142L12.838,23.142L12.838,21.541L5.674,21.541L5.674,19.443L12.838,19.443L12.838,17.881L5.674,17.881L5.674,15.783L12.838,15.783L12.838,14.183L5.674,14.183L5.674,12.086L12.838,12.086L12.838,10.522L5.674,10.522L5.674,8.425L12.838,8.425L12.838,6.824L5.674,6.824L5.674,4.727L12.838,4.727L12.838,3.164L0.201,3.164C0.201,2.732 0.161,2.007 0.081,0.991C0.027,0.686 0,0.356 0,0L39.922,0L41.331,6.557C37.36,5.439 31.149,4.46 22.698,3.622L22.416,3.584Z" style="fill:rgb(67,93,123);fill-rule:nonzero;stroke:rgb(67,93,123);stroke-width:10.19px;"/>
                </g>
                <g transform="matrix(1,0,0,1,315.861,296.1)">
                    <path d="M0,52.042L0.081,51.203C0.402,48.204 0.65,44.41 0.825,39.822C0.999,35.234 1.086,30.424 1.086,25.392C1.086,19.19 0.858,12.683 0.402,5.871L0.322,4.727L4.024,4.727L4.024,48.877L22.335,48.877L22.335,52.042L0,52.042ZM5.674,47.313L5.674,45.217L12.838,45.217L12.838,43.615L5.674,43.615L5.674,41.519L12.838,41.519L12.838,39.956L5.674,39.956L5.714,37.858L12.838,37.858L12.838,36.258L5.674,36.258L5.674,34.16L12.838,34.16L12.838,32.598L5.674,32.598L5.674,30.5L12.838,30.5L12.838,28.899L5.674,28.899L5.674,26.802L12.838,26.802L12.838,25.239L5.674,25.239L5.674,23.142L12.838,23.142L12.838,21.541L5.674,21.541L5.674,19.443L12.838,19.443L12.838,17.881L5.674,17.881L5.674,15.783L12.838,15.783L12.838,14.183L5.714,14.183L5.674,12.086L12.838,12.086L12.838,10.522L5.674,10.522L5.674,8.425L12.838,8.425L12.838,6.824L5.674,6.824L5.674,4.727L12.838,4.727L12.838,3.164L0.201,3.164C0.201,2.732 0.161,2.007 0.081,0.991C0.027,0.686 0,0.356 0,0L28.493,0C31.927,0 34.248,0.038 35.455,0.114C39.184,0.292 42.458,1.092 45.274,2.516C48.092,3.94 50.265,5.858 51.794,8.273C53.323,10.688 54.088,13.407 54.088,16.432C54.088,18.72 53.632,20.906 52.72,22.989C51.808,25.074 50.513,26.878 48.836,28.403C47.159,29.929 45.221,31.086 43.021,31.873L43.463,32.598C45.852,36.664 48.816,41.188 52.357,46.17L53.163,47.313L35.656,47.313L34.368,45.217L41.894,45.217L40.888,43.615L33.402,43.615L32.075,41.519L39.56,41.519L38.554,39.956L31.108,39.956L29.781,37.858L37.226,37.858L36.22,36.258L28.814,36.258L27.487,34.16L34.892,34.16L33.885,32.598L26.319,32.598L24.589,29.738C25.77,29.865 27.111,29.929 28.613,29.929C29.794,29.929 30.907,29.865 31.954,29.738L31.954,5.185C33.215,5.236 34.315,5.439 35.254,5.794L35.254,26.802L40.606,26.802C41.116,26.294 41.559,25.772 41.934,25.239L36.944,25.239L36.944,23.142L43.102,23.142C43.262,22.786 43.437,22.355 43.625,21.846L43.745,21.541L36.944,21.541L36.944,19.443L44.349,19.443C44.429,18.859 44.497,18.338 44.55,17.881L36.944,17.881L36.944,15.783L44.631,15.783C44.631,15.683 44.604,15.25 44.55,14.487L44.51,14.183L36.944,14.183L36.944,12.086L44.067,12.086C43.96,11.68 43.772,11.158 43.504,10.522L36.944,10.522L36.944,8.425L42.256,8.425C41.854,7.841 41.397,7.307 40.888,6.824L36.944,6.824L36.944,4.308C34.825,3.545 31.283,3.164 26.319,3.164L22.335,3.164L22.335,29.014L34.73,48.877L54.41,48.877C54.544,49.005 54.665,49.131 54.772,49.259C54.879,49.386 54.96,49.5 55.014,49.602L56.462,51.317C56.543,51.394 56.65,51.502 56.784,51.642C56.918,51.781 57.039,51.914 57.146,52.042L32.316,52.042L31.954,51.317C29.7,46.946 28.13,43.984 27.245,42.434C25.34,39.003 23.704,36.372 22.335,34.542L22.335,47.313L5.674,47.313Z" style="fill:rgb(67,93,123);fill-rule:nonzero;stroke:rgb(67,93,123);stroke-width:10.19px;"/>
                </g>
                <g transform="matrix(1,0,0,1,378.648,296.1)">
                    <path d="M0,52.042L0.081,51.203C0.402,48.204 0.65,44.41 0.825,39.822C1,35.234 1.086,30.424 1.086,25.392C1.086,19.19 0.858,12.683 0.402,5.871L0.322,4.727L4.024,4.727L4.024,48.877L12.637,48.877C17.01,48.877 20.927,48.77 24.388,48.553C27.849,48.338 31.108,47.981 34.167,47.485C37.226,46.99 40.244,46.322 43.222,45.484L41.371,52.042L0,52.042ZM22.376,3.66L22.376,3.926C21.92,11.349 21.691,16.788 21.691,20.244L21.691,20.512L39.479,20.512L39.479,24.972L21.651,24.972L21.651,25.582C21.651,26.497 21.658,27.388 21.671,28.251C21.685,29.115 21.691,30.373 21.691,32.025C21.771,36.042 21.974,40.68 22.295,45.941L22.416,47.313L5.674,47.313L5.674,45.217L12.838,45.217L12.838,43.615L5.674,43.615L5.674,41.519L12.838,41.519L12.838,39.956L5.674,39.956L5.674,37.858L12.838,37.858L12.838,36.258L5.674,36.258L5.674,34.16L12.838,34.16L12.838,32.598L5.674,32.598L5.674,30.5L12.838,30.5L12.838,28.899L5.674,28.899L5.674,26.802L12.838,26.802L12.838,25.239L5.674,25.239L5.674,23.142L12.838,23.142L12.838,21.541L5.674,21.541L5.674,19.443L12.838,19.443L12.838,17.881L5.674,17.881L5.674,15.783L12.838,15.783L12.838,14.183L5.674,14.183L5.674,12.086L12.838,12.086L12.838,10.522L5.674,10.522L5.674,8.425L12.838,8.425L12.838,6.824L5.674,6.824L5.674,4.727L12.838,4.727L12.838,3.164L0.201,3.164C0.201,2.732 0.161,2.007 0.081,0.991C0.027,0.686 0,0.356 0,0L40.123,0L41.733,6.557C39.131,5.947 35.824,5.343 31.812,4.746C27.802,4.149 24.75,3.799 22.657,3.698L22.376,3.66Z" style="fill:rgb(67,93,123);fill-rule:nonzero;stroke:rgb(67,93,123);stroke-width:10.19px;"/>
                </g>
                <g transform="matrix(1,0,0,1,478.395,287.409)">
                    <path d="M0,14.697C3.625,14.881 6.917,14.125 10.779,11.624C14.717,9.077 19.868,5.44 25.621,0.065L26.819,-1.05L13.899,-40.373L8.89,-41.307C12.341,-33.094 15.839,-22.67 19.385,-10.035C20.371,-6.511 21.032,-3.856 21.366,-2.066C19.67,-0.253 17.803,1.421 15.765,2.955C13.727,4.489 11.658,5.731 9.625,6.797C6.644,8.362 3.956,8.696 -0.808,8.695C-0.998,8.694 -1.264,8.681 -1.577,8.725L-1.585,8.69L-52.977,8.69L-54.466,15.248L-53.42,15.019C-48.751,14.003 -44.123,13.234 -39.535,12.713C-34.947,12.192 -30.373,11.906 -25.812,11.855L-25.812,13.418L-26.536,13.418C-27.878,13.418 -29.756,13.494 -32.171,13.647L-32.895,13.685L-32.895,15.515L-25.812,15.515L-25.812,17.116L-32.936,17.116L-32.936,19.213L-25.812,19.213L-25.812,20.777L-32.936,20.777L-32.936,22.873L-25.812,22.873L-25.812,24.474L-32.936,24.474L-32.936,26.572L-25.812,26.572L-25.812,28.134L-32.936,28.134L-32.936,30.232L-25.812,30.232L-25.812,31.832L-32.936,31.832L-32.936,33.93L-25.812,33.93L-25.812,35.492L-32.936,35.492L-32.936,37.59L-25.812,37.59L-25.812,39.191L-32.936,39.191L-32.936,41.288L-25.812,41.288L-25.812,42.851L-32.936,42.851L-32.936,44.948L-25.812,44.948L-25.812,46.549L-32.936,46.549L-32.936,48.647L-25.812,48.647L-25.812,50.209L-32.936,50.209L-32.936,52.306L-25.812,52.306L-25.812,53.907L-32.936,53.907L-32.936,56.004L-16.233,56.004L-16.354,54.632C-16.784,48.837 -16.998,42.305 -16.998,35.035C-16.998,27.767 -16.757,20.37 -16.274,12.846L-16.274,12.579L-15.872,12.617C-12.466,12.984 -9.342,13.419 -6.479,13.918C-5.508,14.143 -4.361,14.269 -4.006,14.336C-3.499,14.43 0,14.697 0,14.697Z" style="fill:rgb(67,93,123);fill-rule:nonzero;stroke:rgb(67,93,123);stroke-width:10.19px;"/>
                </g>
                <g transform="matrix(1,0,0,1,527.234,277.209)">
                    <path d="M0,-29.013C-0.943,-25.36 -2.419,-21.728 -4.428,-18.117C-6.438,-14.504 -8.862,-11.107 -11.703,-7.924L-12.353,-10.117C-14.229,-16.597 -15.395,-20.744 -15.848,-22.555C-16.299,-24.367 -16.92,-27.144 -17.708,-30.889L-17.998,-32.368L-42.691,-36.973L-42.198,-36.017C-41.787,-35.192 -41.318,-34.198 -40.792,-33.035L-26.118,-30.299L-25.587,-28.43L-33.122,-29.835L-32.267,-27.301L-24.819,-25.912L-24.295,-24.001L-31.654,-25.373L-30.844,-22.847L-23.529,-21.484L-22.996,-19.615L-30.223,-20.961L-29.368,-18.428L-22.23,-17.096L-21.706,-15.185L-28.756,-16.5L-27.9,-13.966L-20.94,-12.668L-20.407,-10.799L-27.279,-12.08L-26.469,-9.554L-19.642,-8.281L-19.117,-6.37L-25.812,-7.618L-25.001,-5.093L-18.352,-3.852L-17.773,-1.975L-24.379,-3.206L-23.524,-0.673L-18.515,0.261L-19.897,1.817L-22.911,1.256L-20.76,7.96C-14.979,2.447 -9.418,-3.626 -4.08,-10.259C1.258,-16.89 5.263,-22.649 7.935,-27.534L0,-29.013Z" style="fill:rgb(67,93,123);fill-rule:nonzero;stroke:rgb(67,93,123);stroke-width:10.19px;"/>
                </g>
                <g transform="matrix(1,0,0,1,443.77,304.335)">
                    <path d="M0,40.642L0,-3.165C-1.476,-3.088 -2.71,-2.987 -3.703,-2.859C-3.381,-1.03 -3.18,2.44 -3.1,7.548L-2.898,19.711C-2.898,21.16 -2.925,22.723 -2.979,24.401C-3.005,25.544 -3.039,26.702 -3.079,27.87C-3.119,29.039 -3.166,30.208 -3.22,31.377C-3.435,36.309 -3.676,40.172 -3.944,42.968L-4.024,43.807L18.713,43.807C18.605,42.256 18.539,41.202 18.512,40.642L0,40.642Z" style="fill:rgb(67,93,123);fill-rule:nonzero;stroke:rgb(67,93,123);stroke-width:10.19px;"/>
                </g>
                <g transform="matrix(1,0,0,1,526.036,343.528)">
                    <path d="M0,-42.854L-2.897,-37.021C-8.291,-42.206 -14.582,-44.798 -21.772,-44.798C-25.287,-44.798 -28.467,-44.156 -31.311,-42.873C-34.154,-41.589 -36.374,-39.817 -37.971,-37.555C-39.567,-35.292 -40.365,-32.726 -40.365,-29.854C-40.365,-26.98 -39.547,-24.61 -37.91,-22.742C-36.273,-20.874 -33.551,-19.165 -29.74,-17.614L-4.87,-7.778C-5.406,-6.762 -6.063,-5.872 -6.842,-5.109L-29.419,-13.992C-32.236,-15.111 -34.355,-16.064 -35.777,-16.853C-37.199,-17.64 -38.434,-18.517 -39.479,-19.482C-40.473,-20.423 -41.277,-21.414 -41.895,-22.457C-42.512,-23.499 -42.987,-24.623 -43.323,-25.831C-43.658,-27.038 -43.826,-28.341 -43.826,-29.738C-43.826,-33.322 -42.82,-36.563 -40.808,-39.461C-38.796,-42.358 -35.985,-44.614 -32.377,-46.228C-28.769,-47.842 -24.724,-48.649 -20.243,-48.649C-18.445,-48.649 -16.701,-48.521 -15.012,-48.268C-13.321,-48.014 -11.617,-47.645 -9.9,-47.162C-8.184,-46.679 -6.446,-46.05 -4.688,-45.275C-2.932,-44.5 -1.368,-43.693 0,-42.854ZM-12.557,-12.506L-8.693,-17.996L-10.263,-18.605L-14.126,-13.116L-16.219,-13.954L-12.355,-19.444L-13.925,-20.055L-17.788,-14.603L-19.841,-15.403L-16.018,-20.855L-17.587,-21.466L-21.41,-16.052L-23.503,-16.853L-19.68,-22.304L-21.209,-22.914L-25.072,-17.5L-27.125,-18.339L-23.302,-23.753L-24.871,-24.363L-28.694,-18.949C-28.963,-19.05 -29.137,-19.121 -29.218,-19.159C-29.298,-19.197 -29.459,-19.254 -29.7,-19.33C-30.049,-19.482 -30.298,-19.584 -30.445,-19.636C-30.593,-19.687 -30.707,-19.725 -30.787,-19.75L-26.964,-25.202L-28.533,-25.812L-32.316,-20.474C-32.772,-20.703 -33.322,-21.021 -33.967,-21.427L-34.208,-21.58L-30.626,-26.65L-32.195,-27.261L-35.496,-22.571C-36.059,-23.079 -36.556,-23.625 -36.984,-24.21L-34.288,-28.062L-35.857,-28.671L-37.91,-25.773C-38.474,-27.121 -38.756,-28.519 -38.756,-29.968C-38.756,-31.467 -38.507,-32.852 -38.011,-34.123C-37.515,-35.395 -36.717,-36.69 -35.616,-38.012L-12.557,-28.862L-9.015,-27.489C-6.439,-26.446 -4.373,-25.291 -2.817,-24.02C-1.262,-22.748 -0.114,-21.274 0.623,-19.598C1.361,-17.92 1.73,-15.937 1.73,-13.649C1.73,-8.337 -0.483,-3.762 -4.91,0.076C-9.283,3.889 -15.065,5.795 -22.255,5.795C-26.333,5.795 -30.425,5.172 -34.529,3.927C-38.635,2.682 -42.203,0.953 -45.234,-1.259L-42.176,-7.435C-40.486,-5.579 -38.406,-3.914 -35.938,-2.44C-33.47,-0.966 -30.888,0.165 -28.191,0.953C-25.495,1.74 -22.846,2.135 -20.243,2.135C-14.019,2.135 -9.015,-0.102 -5.232,-4.575C-2.897,-7.32 -1.73,-10.46 -1.73,-13.992C-1.73,-14.12 -1.758,-14.564 -1.812,-15.327L-3.421,-15.937C-3.313,-15.403 -3.26,-14.831 -3.26,-14.222C-3.26,-12.62 -3.568,-10.942 -4.186,-9.188L-8.935,-11.057L-5.031,-16.547L-6.601,-17.157L-10.464,-11.667L-12.557,-12.506Z" style="fill:rgb(67,93,123);fill-rule:nonzero;stroke:rgb(67,93,123);stroke-width:10.19px;"/>
                </g>
                <g transform="matrix(1,0,0,1,276.912,224.038)">
                    <path d="M0,63.58L-0.179,62.712C-0.785,59.6 -1.713,55.707 -2.961,51.033C-4.209,46.36 -5.615,41.487 -7.177,36.414C-9.102,30.164 -11.352,23.668 -13.926,16.929L-14.362,15.798L-10.63,14.767L3.074,59.269L21.734,54.112C22.093,55.18 22.488,56.225 22.919,57.245L0,63.58ZM7.553,8.49L7.595,8.77C8.269,11.531 9.005,14.421 9.802,17.439C10.6,20.457 11.465,23.575 12.397,26.792L12.479,27.061L30.856,21.982L32.24,26.479L13.824,31.569L13.907,31.838C15.958,38.5 18.183,44.96 20.58,51.22L21.127,52.57L4.252,57.234L3.602,55.12L10.822,53.124L10.325,51.51L3.104,53.506L2.454,51.392L9.674,49.397L9.189,47.821L1.968,49.817L1.317,47.703L8.538,45.707L8.041,44.093L0.82,46.089L0.169,43.976L7.39,41.979L6.905,40.404L-0.316,42.4L-0.967,40.286L6.254,38.29L5.757,36.676L-1.464,38.672L-2.115,36.559L5.106,34.562L4.621,32.987L-2.6,34.983L-3.251,32.869L3.97,30.873L3.473,29.259L-3.748,31.255L-4.399,29.142L2.822,27.145L2.336,25.57L-4.884,27.566L-5.535,25.452L1.686,23.456L1.188,21.842L-6.032,23.838L-6.683,21.725L0.538,19.728L0.052,18.153L-7.168,20.149L-7.819,18.035L-0.599,16.039L-1.096,14.425L-8.316,16.421L-8.967,14.307L-1.747,12.311L-2.232,10.736L-14.969,14.256C-15.104,13.821 -15.369,13.102 -15.766,12.1C-15.915,11.807 -16.044,11.482 -16.154,11.123L24.086,0L27.542,6.218C23.192,6.197 16.627,6.941 7.849,8.45L7.553,8.49Z" style="fill:rgb(96,10,0);fill-rule:nonzero;stroke:rgb(96,10,0);stroke-width:10.19px;"/>
                </g>
                <g transform="matrix(1,0,0,1,354.109,270.144)">
                    <path d="M0,-32.679L-0.068,-34.414L-12.89,-33.97C-12.899,-34.195 -12.914,-34.357 -12.932,-34.456C-12.952,-34.554 -12.962,-34.659 -12.967,-34.772L-13.216,-36.544L-13.342,-37.472L9.053,-38.249L9.003,-37.188C8.472,-30.641 8.331,-24.193 8.576,-17.843C8.796,-12.142 9.256,-6.873 9.956,-2.037L-5.666,-1.494L-5.757,-3.823L1.107,-4.061L1.038,-5.839L-5.825,-5.601L-5.916,-7.929L0.947,-8.168L0.88,-9.903L-5.982,-9.665L-6.073,-11.993L0.791,-12.232L0.722,-14.01L-6.141,-13.771L-6.232,-16.1L0.632,-16.338L0.564,-18.074L-6.298,-17.835L-6.389,-20.164L0.475,-20.402L0.406,-22.18L-6.457,-21.942L-6.548,-24.27L0.316,-24.508L0.248,-26.244L-6.614,-26.006L-6.704,-28.334L0.159,-28.573L0.089,-30.35L-6.773,-30.112L-6.864,-32.44L0,-32.679ZM10.655,3.195L-11.423,3.962C-11.336,3.111 -11.273,2.007 -11.235,0.649L-11.227,-0.326C-16.754,3.313 -22.933,5.252 -29.766,5.488C-32.113,5.57 -34.448,5.432 -36.767,5.074C-39.086,4.717 -41.179,4.204 -43.043,3.533L-43.009,3.235C-42.821,1.872 -42.712,0.018 -42.682,-2.329C-42.656,-3.206 -42.648,-5.721 -42.658,-9.876C-42.669,-13.294 -42.695,-15.526 -42.736,-16.571C-42.928,-21.537 -43.299,-26.075 -43.85,-30.182L-43.933,-31.154L-40.049,-31.289L-38.785,1.393C-36.208,1.784 -33.671,1.936 -31.173,1.849C-27.65,1.727 -24.171,1.098 -20.733,-0.039C-17.296,-1.176 -14.169,-2.739 -11.353,-4.731C-11.332,-4.958 -11.325,-5.551 -11.331,-6.512L-11.398,-17.574C-11.457,-19.098 -11.566,-20.761 -11.727,-22.564C-12.001,-26.568 -12.307,-29.793 -12.643,-32.24L-8.714,-32.376L-7.451,0.305L10.204,-0.307L10.328,0.578L10.587,2.604C10.619,2.66 10.642,2.857 10.655,3.195ZM-30.229,-2.973L-30.298,-4.752L-37.115,-4.515L-37.205,-6.843L-30.387,-7.08L-30.455,-8.815L-37.273,-8.579L-37.362,-10.907L-30.544,-11.144L-30.614,-12.922L-37.432,-12.685L-37.521,-15.013L-30.703,-15.25L-30.771,-16.986L-37.589,-16.749L-37.678,-19.078L-30.861,-19.314L-30.93,-21.093L-37.748,-20.856L-37.837,-23.184L-31.02,-23.421L-31.086,-25.157L-37.905,-24.92L-37.995,-27.248L-31.177,-27.485L-31.246,-29.263L-38.063,-29.026L-38.153,-31.355L-31.335,-31.592L-31.402,-33.326L-44.181,-32.884C-44.219,-33.108 -44.245,-33.375 -44.256,-33.686L-44.505,-35.458L-44.632,-36.386L-22.237,-37.163L-22.332,-36.1C-22.863,-29.554 -23.005,-23.105 -22.759,-16.756C-22.576,-12.014 -22.224,-7.589 -21.704,-3.481L-21.513,-2.089L-21.496,-1.623C-24.858,-0.489 -28.225,0.136 -31.596,0.254C-33.612,0.323 -35.394,0.258 -36.938,0.057L-37.046,-2.737L-30.229,-2.973Z" style="fill:rgb(96,10,0);fill-rule:nonzero;stroke:rgb(96,10,0);stroke-width:10.19px;"/>
                </g>
                <g transform="matrix(1,0,0,1,412.14,233.514)">
                    <path d="M0,29.42L17.254,25.823L17.544,26.674L18.182,28.623C18.224,28.673 18.283,28.862 18.36,29.193L-3.527,33.755C-3.694,31.969 -4.007,29.764 -4.461,27.14C-5.357,21.688 -6.296,16.852 -7.276,12.632C-8.07,9.212 -9.006,5.648 -10.083,1.94C-10.389,0.76 -10.703,-0.201 -11.029,-0.943C-10.107,-1.482 -8.899,-1.994 -7.408,-2.478L0,29.42ZM-12.353,35.595L-34.238,40.157C-34.518,37.758 -34.83,35.552 -35.174,33.542C-36.069,28.089 -37.018,23.212 -38.017,18.91C-39.144,14.056 -40.373,9.627 -41.703,5.625L-41.969,4.682L-38.173,3.891L-30.756,35.831L-13.458,32.226C-13.414,32.419 -13.367,32.583 -13.321,32.717C-13.274,32.853 -13.238,32.975 -13.212,33.085L-12.53,35.025C-12.485,35.218 -12.426,35.408 -12.353,35.595ZM9.043,-10.722L9.171,-9.578C9.627,-5.884 10.122,-2.525 10.655,0.502C11.188,3.528 11.73,6.227 12.282,8.599C13.172,12.433 14.18,16.243 15.307,20.027C15.621,21.118 16.079,22.498 16.683,24.165L1.415,27.347L0.887,25.071L7.594,23.673L7.19,21.936L0.483,23.333L-0.046,21.058L6.663,19.66L6.269,17.963L-0.439,19.361L-0.968,17.087L5.739,15.688L5.336,13.95L-1.371,15.349L-1.899,13.073L4.808,11.675L4.414,9.979L-2.293,11.377L-2.822,9.102L3.885,7.703L3.481,5.965L-3.226,7.364L-3.754,5.088L2.953,3.69L2.56,1.994L-4.147,3.392L-4.677,1.116L2.031,-0.282L1.627,-2.019L-5.08,-0.622L-5.638,-3.021C-3.626,-3.787 -1.664,-4.37 0.249,-4.768L0.954,-4.915L0.58,-6.529L-1.009,-6.198C-2.744,-5.836 -4.53,-5.355 -6.363,-4.756C-8.199,-4.157 -9.979,-3.453 -11.703,-2.646C-13.429,-1.838 -14.995,-0.984 -16.405,-0.082C-17.814,0.819 -19.136,1.803 -20.369,2.869L-20.708,3.2L-20.694,3.458L-20.355,5.512C-19.889,8.451 -19.256,11.645 -18.456,15.092C-17.064,21.078 -15.589,26.236 -14.028,30.566L-29.296,33.748L-29.825,31.473L-23.162,30.084L-23.565,28.346L-30.229,29.735L-30.757,27.46L-24.093,26.071L-24.487,24.375L-31.15,25.763L-31.679,23.488L-25.017,22.099L-25.42,20.361L-32.083,21.751L-32.611,19.475L-25.948,18.086L-26.342,16.39L-33.005,17.778L-33.533,15.503L-26.87,14.114L-27.274,12.377L-33.937,13.765L-34.466,11.49L-27.803,10.101L-28.197,8.404L-34.86,9.794L-35.388,7.518L-28.725,6.129L-29.128,4.391L-35.792,5.78L-36.321,3.504L-29.657,2.116L-30.051,0.42L-42.538,3.023C-42.626,2.781 -42.702,2.522 -42.765,2.246L-43.345,0.545L-43.646,-0.347L-21.758,-4.909C-21.713,-4.311 -21.576,-3.125 -21.349,-1.351L-21.325,-1.052L-20.888,-1.36C-17.658,-3.653 -14.652,-5.414 -11.868,-6.645C-9.086,-7.876 -5.826,-8.881 -2.09,-9.66C1.381,-10.383 5.092,-10.737 9.043,-10.722Z" style="fill:rgb(96,10,0);fill-rule:nonzero;stroke:rgb(96,10,0);stroke-width:10.19px;"/>
                </g>
                <g transform="matrix(1,0,0,1,455.386,236.136)">
                    <path d="M0,17.472C-0.062,17.805 -0.112,18.17 -0.153,18.564C-0.687,22.002 -1.157,25.68 -1.563,29.597L-1.748,31.114L-17.199,28.591L-16.781,26.295L-10.013,27.4L-9.694,25.646L-16.462,24.541L-16.044,22.245L-9.276,23.35L-8.965,21.639L-15.732,20.535L-15.315,18.238L-8.548,19.343L-8.228,17.59L-14.996,16.485L-14.579,14.189L-7.811,15.294L-7.499,13.582L-14.267,12.477L-13.849,10.181L-7.081,11.286L-6.763,9.533L-13.53,8.428L-13.112,6.131L-6.345,7.236L-6.034,5.525L-12.801,4.42L-12.384,2.124L-5.616,3.229L-5.297,1.475L-12.064,0.37L-11.646,-1.926L-4.879,-0.821L-4.567,-2.532L-11.335,-3.637L-10.918,-5.934L-4.15,-4.829L-3.831,-6.582L-10.599,-7.687L-10.182,-9.983L-3.414,-8.878L-3.102,-10.59L-9.87,-11.695L-9.452,-13.99L-2.684,-12.885L-2.365,-14.639L-9.133,-15.744L-8.715,-18.04L-1.947,-16.935L-1.636,-18.647L-14.459,-20.74C-14.373,-21.213 -14.289,-22.016 -14.205,-23.149C-14.17,-23.343 -14.144,-23.526 -14.129,-23.695C-14.112,-23.865 -14.087,-24.047 -14.051,-24.242L8.033,-20.636L7.746,-19.565C6.626,-15.592 5.514,-11.074 4.409,-6.01C3.305,-0.946 2.345,3.826 1.529,8.307C1.109,10.618 0.815,12.317 0.648,13.408L0.572,13.825L1.077,13.564C3.195,12.506 7.537,10.062 14.103,6.233C16.702,4.709 20.36,2.498 25.075,-0.401L26.206,-1.075L35.602,0.458C31.327,2.283 27.842,3.877 25.149,5.243L17.529,9.071L16.315,9.69C16.981,11.576 18.181,14.566 19.911,18.659L23.722,27.449C24.771,29.913 26.032,32.726 27.505,35.89L12.232,33.396L11.181,30.861L17.948,31.966L17.154,30.03L10.431,28.932L9.424,26.404L16.104,27.494L15.301,25.601L8.667,24.518L7.615,21.982L14.25,23.065L13.456,21.13L6.866,20.055L5.858,17.525L12.404,18.594L11.603,16.701L5.324,15.676L3.612,16.772L10.897,34.941L28.439,37.805L28.854,38.56L29.973,40.721C30.012,40.842 30.195,41.173 30.525,41.714L7.952,38.028C7.288,35.627 6.334,32.806 5.089,29.565C2.91,23.908 1.234,19.923 0.066,17.612L0,17.472ZM-24.419,32.743L-24.161,31.839C-23.208,28.614 -22.179,24.505 -21.071,19.512C-19.965,14.52 -18.909,9.269 -17.907,3.758C-16.672,-3.032 -15.629,-10.199 -14.775,-17.74L-14.637,-19.007L-10.541,-18.338L-19.335,30.005L-1.926,32.847C-2.008,33.464 -2.144,34.632 -2.334,36.348L-24.419,32.743Z" style="fill:rgb(96,10,0);fill-rule:nonzero;stroke:rgb(96,10,0);stroke-width:10.19px;"/>
                </g>
                <g transform="matrix(1,0,0,1,272.577,292.685)">
                    <path d="M0,52.042L0.08,51.203C0.402,48.204 0.65,44.411 0.825,39.822C0.999,35.234 1.086,30.424 1.086,25.392C1.086,19.19 0.858,12.683 0.402,5.871L0.322,4.727L4.024,4.727L4.024,48.877L22.537,48.877C22.563,49.944 22.63,51 22.738,52.042L0,52.042ZM22.416,3.584L22.375,3.851C22.214,6.544 22.074,9.373 21.953,12.334C21.832,15.295 21.745,18.363 21.691,21.541L21.691,21.808L39.922,21.808L39.922,26.269L21.651,26.269L21.651,26.535C21.651,33.145 21.866,39.612 22.295,45.941L22.416,47.314L5.674,47.314L5.674,45.217L12.838,45.217L12.838,43.616L5.674,43.616L5.674,41.519L12.838,41.519L12.838,39.956L5.674,39.956L5.674,37.858L12.838,37.858L12.838,36.258L5.674,36.258L5.674,34.16L12.838,34.16L12.838,32.598L5.674,32.598L5.674,30.501L12.838,30.501L12.838,28.899L5.674,28.899L5.674,26.803L12.838,26.803L12.838,25.239L5.674,25.239L5.674,23.143L12.838,23.143L12.838,21.541L5.674,21.541L5.674,19.444L12.838,19.444L12.838,17.881L5.674,17.881L5.674,15.784L12.838,15.784L12.838,14.183L5.674,14.183L5.674,12.085L12.838,12.085L12.838,10.522L5.674,10.522L5.674,8.425L12.838,8.425L12.838,6.824L5.674,6.824L5.674,4.727L12.838,4.727L12.838,3.164L0.201,3.164C0.201,2.732 0.161,2.008 0.08,0.991C0.027,0.686 0,0.356 0,0L39.922,0L41.331,6.557C37.36,5.439 31.149,4.46 22.697,3.622L22.416,3.584Z" style="fill:rgb(96,10,0);fill-rule:nonzero;stroke:rgb(96,10,0);stroke-width:10.19px;"/>
                </g>
                <g transform="matrix(1,0,0,1,321.359,292.685)">
                    <path d="M0,52.042L0.081,51.203C0.403,48.204 0.651,44.411 0.825,39.822C1,35.234 1.087,30.424 1.087,25.392C1.087,19.19 0.859,12.683 0.403,5.871L0.322,4.727L4.024,4.727L4.024,48.877L22.336,48.877L22.336,52.042L0,52.042ZM5.675,47.314L5.675,45.217L12.838,45.217L12.838,43.616L5.675,43.616L5.675,41.519L12.838,41.519L12.838,39.956L5.675,39.956L5.715,37.858L12.838,37.858L12.838,36.258L5.675,36.258L5.675,34.16L12.838,34.16L12.838,32.598L5.675,32.598L5.675,30.501L12.838,30.501L12.838,28.899L5.675,28.899L5.675,26.803L12.838,26.803L12.838,25.239L5.675,25.239L5.675,23.143L12.838,23.143L12.838,21.541L5.675,21.541L5.675,19.444L12.838,19.444L12.838,17.881L5.675,17.881L5.675,15.784L12.838,15.784L12.838,14.183L5.715,14.183L5.675,12.085L12.838,12.085L12.838,10.522L5.675,10.522L5.675,8.425L12.838,8.425L12.838,6.824L5.675,6.824L5.675,4.727L12.838,4.727L12.838,3.164L0.201,3.164C0.201,2.732 0.161,2.008 0.081,0.991C0.027,0.686 0,0.356 0,0L28.493,0C31.927,0 34.248,0.038 35.455,0.114C39.185,0.292 42.458,1.093 45.275,2.516C48.092,3.94 50.265,5.858 51.794,8.273C53.324,10.688 54.088,13.407 54.088,16.432C54.088,18.72 53.632,20.906 52.72,22.989C51.808,25.074 50.513,26.879 48.836,28.403C47.16,29.929 45.221,31.086 43.021,31.873L43.464,32.598C45.852,36.664 48.816,41.189 52.358,46.17L53.163,47.314L35.657,47.314L34.369,45.217L41.895,45.217L40.888,43.616L33.403,43.616L32.075,41.519L39.56,41.519L38.554,39.956L31.109,39.956L29.781,37.858L37.226,37.858L36.22,36.258L28.815,36.258L27.487,34.16L34.892,34.16L33.886,32.598L26.32,32.598L24.589,29.738C25.77,29.865 27.111,29.929 28.614,29.929C29.794,29.929 30.908,29.865 31.954,29.738L31.954,5.185C33.215,5.236 34.315,5.439 35.254,5.795L35.254,26.803L40.606,26.803C41.116,26.294 41.559,25.772 41.935,25.239L36.944,25.239L36.944,23.143L43.102,23.143C43.263,22.786 43.437,22.355 43.625,21.846L43.746,21.541L36.944,21.541L36.944,19.444L44.349,19.444C44.43,18.859 44.497,18.338 44.55,17.881L36.944,17.881L36.944,15.784L44.631,15.784C44.631,15.683 44.604,15.25 44.55,14.487L44.51,14.183L36.944,14.183L36.944,12.085L44.067,12.085C43.96,11.68 43.772,11.158 43.504,10.522L36.944,10.522L36.944,8.425L42.256,8.425C41.854,7.841 41.398,7.307 40.888,6.824L36.944,6.824L36.944,4.308C34.825,3.545 31.283,3.164 26.32,3.164L22.336,3.164L22.336,29.014L34.731,48.877L54.41,48.877C54.544,49.005 54.665,49.132 54.772,49.259C54.88,49.386 54.96,49.501 55.014,49.602L56.463,51.317C56.543,51.394 56.65,51.502 56.785,51.642C56.919,51.781 57.04,51.915 57.147,52.042L32.316,52.042L31.954,51.317C29.7,46.946 28.131,43.984 27.246,42.434C25.341,39.003 23.704,36.372 22.336,34.542L22.336,47.314L5.675,47.314Z" style="fill:rgb(96,10,0);fill-rule:nonzero;stroke:rgb(96,10,0);stroke-width:10.19px;"/>
                </g>
                <g transform="matrix(1,0,0,1,384.147,292.685)">
                    <path d="M0,52.042L0.081,51.203C0.403,48.204 0.651,44.411 0.825,39.822C1,35.234 1.087,30.424 1.087,25.392C1.087,19.19 0.859,12.683 0.403,5.871L0.322,4.727L4.024,4.727L4.024,48.877L12.637,48.877C17.01,48.877 20.927,48.77 24.388,48.553C27.849,48.338 31.109,47.981 34.167,47.485C37.226,46.99 40.245,46.323 43.222,45.484L41.372,52.042L0,52.042ZM22.375,3.66L22.375,3.927C21.919,11.349 21.692,16.788 21.692,20.244L21.692,20.512L39.48,20.512L39.48,24.973L21.652,24.973L21.652,25.582C21.652,26.497 21.659,27.388 21.671,28.251C21.685,29.115 21.692,30.373 21.692,32.025C21.772,36.042 21.973,40.68 22.295,45.941L22.417,47.314L5.675,47.314L5.675,45.217L12.838,45.217L12.838,43.616L5.675,43.616L5.675,41.519L12.838,41.519L12.838,39.956L5.675,39.956L5.675,37.858L12.838,37.858L12.838,36.258L5.675,36.258L5.675,34.16L12.838,34.16L12.838,32.598L5.675,32.598L5.675,30.501L12.838,30.501L12.838,28.899L5.675,28.899L5.675,26.803L12.838,26.803L12.838,25.239L5.675,25.239L5.675,23.143L12.838,23.143L12.838,21.541L5.675,21.541L5.675,19.444L12.838,19.444L12.838,17.881L5.675,17.881L5.675,15.784L12.838,15.784L12.838,14.183L5.675,14.183L5.675,12.085L12.838,12.085L12.838,10.522L5.675,10.522L5.675,8.425L12.838,8.425L12.838,6.824L5.675,6.824L5.675,4.727L12.838,4.727L12.838,3.164L0.202,3.164C0.202,2.732 0.161,2.008 0.081,0.991C0.027,0.686 0,0.356 0,0L40.124,0L41.734,6.557C39.131,5.947 35.824,5.344 31.813,4.747C27.802,4.149 24.75,3.799 22.658,3.698L22.375,3.66Z" style="fill:rgb(96,10,0);fill-rule:nonzero;stroke:rgb(96,10,0);stroke-width:10.19px;"/>
                </g>
                <g transform="matrix(1,0,0,1,483.894,283.995)">
                    <path d="M0,14.697C3.625,14.881 6.916,14.125 10.779,11.624C14.717,9.077 19.868,5.44 25.621,0.065L26.819,-1.05L13.898,-40.374L8.89,-41.308C12.341,-33.094 15.838,-22.67 19.385,-10.035C20.371,-6.512 21.032,-3.856 21.366,-2.067C19.669,-0.253 17.803,1.421 15.765,2.955C13.727,4.489 11.658,5.73 9.625,6.797C6.643,8.361 3.956,8.695 -0.809,8.694C-0.998,8.694 -1.264,8.68 -1.577,8.725L-1.585,8.69L-52.977,8.69L-54.466,15.247L-53.42,15.019C-48.751,14.003 -44.123,13.233 -39.535,12.712C-34.947,12.192 -30.373,11.905 -25.812,11.854L-25.812,13.417L-26.536,13.417C-27.878,13.417 -29.756,13.494 -32.171,13.646L-32.896,13.684L-32.896,15.514L-25.812,15.514L-25.812,17.115L-32.936,17.115L-32.936,19.213L-25.812,19.213L-25.812,20.776L-32.936,20.776L-32.936,22.873L-25.812,22.873L-25.812,24.474L-32.936,24.474L-32.936,26.571L-25.812,26.571L-25.812,28.135L-32.936,28.135L-32.936,30.231L-25.812,30.231L-25.812,31.833L-32.936,31.833L-32.936,33.929L-25.812,33.929L-25.812,35.493L-32.936,35.493L-32.936,37.59L-25.812,37.59L-25.812,39.191L-32.936,39.191L-32.936,41.288L-25.812,41.288L-25.812,42.85L-32.936,42.85L-32.936,44.948L-25.812,44.948L-25.812,46.549L-32.936,46.549L-32.936,48.646L-25.812,48.646L-25.812,50.209L-32.936,50.209L-32.936,52.306L-25.812,52.306L-25.812,53.907L-32.936,53.907L-32.936,56.005L-16.234,56.005L-16.354,54.632C-16.784,48.837 -16.999,42.304 -16.999,35.035C-16.999,27.766 -16.757,20.37 -16.274,12.845L-16.274,12.579L-15.872,12.617C-12.466,12.984 -9.342,13.419 -6.479,13.918C-5.509,14.143 -4.361,14.269 -4.007,14.335C-3.5,14.43 0,14.697 0,14.697Z" style="fill:rgb(96,10,0);fill-rule:nonzero;stroke:rgb(96,10,0);stroke-width:10.19px;"/>
                </g>
                <g transform="matrix(1,0,0,1,532.733,273.797)">
                    <path d="M0,-29.015C-0.943,-25.362 -2.419,-21.73 -4.429,-18.118C-6.438,-14.506 -8.863,-11.109 -11.703,-7.925L-12.353,-10.119C-14.229,-16.599 -15.395,-20.745 -15.848,-22.557C-16.299,-24.369 -16.92,-27.146 -17.708,-30.891L-17.998,-32.37L-42.691,-36.974L-42.198,-36.019C-41.787,-35.194 -41.318,-34.2 -40.792,-33.037L-26.119,-30.301L-25.587,-28.432L-33.122,-29.837L-32.268,-27.303L-24.819,-25.914L-24.296,-24.003L-31.654,-25.375L-30.844,-22.849L-23.529,-21.485L-22.996,-19.616L-30.223,-20.963L-29.368,-18.43L-22.23,-17.098L-21.706,-15.187L-28.756,-16.501L-27.9,-13.968L-20.94,-12.67L-20.407,-10.801L-27.279,-12.081L-26.469,-9.556L-19.642,-8.283L-19.117,-6.372L-25.812,-7.62L-25.001,-5.095L-18.352,-3.854L-17.773,-1.976L-24.379,-3.208L-23.524,-0.674L-18.515,0.26L-19.897,1.816L-22.911,1.254L-20.76,7.959C-14.979,2.445 -9.419,-3.628 -4.081,-10.261C1.258,-16.892 5.263,-22.65 7.935,-27.536L0,-29.015Z" style="fill:rgb(96,10,0);fill-rule:nonzero;stroke:rgb(96,10,0);stroke-width:10.19px;"/>
                </g>
                <g transform="matrix(1,0,0,1,449.269,300.92)">
                    <path d="M0,40.642L0,-3.165C-1.476,-3.088 -2.709,-2.986 -3.702,-2.859C-3.38,-1.029 -3.179,2.44 -3.099,7.549L-2.897,19.711C-2.897,21.16 -2.924,22.723 -2.978,24.401C-3.005,25.544 -3.038,26.702 -3.078,27.871C-3.118,29.039 -3.165,30.209 -3.219,31.377C-3.434,36.309 -3.675,40.172 -3.943,42.968L-4.024,43.807L18.714,43.807C18.606,42.257 18.539,41.202 18.513,40.642L0,40.642Z" style="fill:rgb(96,10,0);fill-rule:nonzero;stroke:rgb(96,10,0);stroke-width:10.19px;"/>
                </g>
                <g transform="matrix(1,0,0,1,531.535,340.114)">
                    <path d="M0,-42.854L-2.898,-37.021C-8.291,-42.206 -14.582,-44.798 -21.772,-44.798C-25.287,-44.798 -28.467,-44.156 -31.311,-42.873C-34.154,-41.589 -36.374,-39.816 -37.971,-37.554C-39.567,-35.292 -40.365,-32.726 -40.365,-29.853C-40.365,-26.98 -39.547,-24.61 -37.91,-22.742C-36.273,-20.874 -33.551,-19.164 -29.741,-17.614L-4.87,-7.778C-5.406,-6.762 -6.063,-5.872 -6.842,-5.109L-29.419,-13.992C-32.236,-15.111 -34.355,-16.064 -35.777,-16.852C-37.199,-17.64 -38.434,-18.517 -39.479,-19.482C-40.473,-20.423 -41.277,-21.414 -41.895,-22.456C-42.512,-23.499 -42.988,-24.623 -43.323,-25.831C-43.658,-27.037 -43.826,-28.341 -43.826,-29.738C-43.826,-33.322 -42.82,-36.563 -40.808,-39.461C-38.796,-42.358 -35.985,-44.614 -32.377,-46.228C-28.769,-47.842 -24.724,-48.649 -20.243,-48.649C-18.445,-48.649 -16.702,-48.521 -15.012,-48.268C-13.321,-48.014 -11.617,-47.645 -9.9,-47.162C-8.184,-46.679 -6.446,-46.05 -4.688,-45.275C-2.932,-44.499 -1.369,-43.693 0,-42.854ZM-12.557,-12.506L-8.693,-17.996L-10.263,-18.605L-14.126,-13.115L-16.219,-13.954L-12.355,-19.444L-13.925,-20.055L-17.788,-14.603L-19.841,-15.403L-16.018,-20.855L-17.587,-21.465L-21.41,-16.052L-23.503,-16.852L-19.68,-22.304L-21.209,-22.914L-25.072,-17.5L-27.125,-18.339L-23.302,-23.753L-24.871,-24.362L-28.694,-18.949C-28.963,-19.05 -29.138,-19.12 -29.218,-19.158C-29.298,-19.196 -29.459,-19.254 -29.7,-19.33C-30.05,-19.482 -30.298,-19.584 -30.445,-19.635C-30.593,-19.686 -30.707,-19.724 -30.787,-19.75L-26.964,-25.201L-28.533,-25.812L-32.316,-20.474C-32.772,-20.703 -33.322,-21.021 -33.967,-21.427L-34.208,-21.579L-30.626,-26.65L-32.195,-27.261L-35.496,-22.571C-36.06,-23.079 -36.556,-23.625 -36.984,-24.21L-34.288,-28.061L-35.858,-28.671L-37.91,-25.773C-38.474,-27.12 -38.756,-28.519 -38.756,-29.968C-38.756,-31.467 -38.508,-32.852 -38.011,-34.123C-37.515,-35.394 -36.717,-36.69 -35.616,-38.012L-12.557,-28.861L-9.015,-27.489C-6.439,-26.446 -4.374,-25.29 -2.817,-24.02C-1.262,-22.748 -0.114,-21.274 0.623,-19.597C1.361,-17.92 1.73,-15.937 1.73,-13.649C1.73,-8.337 -0.483,-3.762 -4.91,0.076C-9.283,3.889 -15.065,5.795 -22.256,5.795C-26.334,5.795 -30.425,5.172 -34.53,3.927C-38.635,2.682 -42.203,0.953 -45.235,-1.259L-42.177,-7.435C-40.486,-5.579 -38.407,-3.914 -35.938,-2.44C-33.47,-0.966 -30.888,0.165 -28.191,0.953C-25.495,1.741 -22.846,2.135 -20.243,2.135C-14.019,2.135 -9.015,-0.102 -5.232,-4.575C-2.898,-7.32 -1.73,-10.46 -1.73,-13.992C-1.73,-14.119 -1.758,-14.564 -1.812,-15.327L-3.421,-15.937C-3.313,-15.403 -3.26,-14.831 -3.26,-14.222C-3.26,-12.62 -3.568,-10.942 -4.186,-9.188L-8.935,-11.057L-5.031,-16.547L-6.601,-17.157L-10.464,-11.667L-12.557,-12.506Z" style="fill:rgb(96,10,0);fill-rule:nonzero;stroke:rgb(96,10,0);stroke-width:10.19px;"/>
                </g>
                <g transform="matrix(1,0,0,1,276.977,223.401)">
                    <path d="M0,63.58L-0.179,62.712C-0.786,59.6 -1.713,55.707 -2.961,51.034C-4.21,46.36 -5.615,41.488 -7.177,36.415C-9.102,30.164 -11.352,23.668 -13.926,16.929L-14.362,15.799L-10.63,14.767L3.074,59.269L21.734,54.112C22.093,55.18 22.488,56.225 22.919,57.246L0,63.58ZM7.553,8.49L7.595,8.77C8.269,11.531 9.005,14.421 9.802,17.439C10.6,20.457 11.465,23.575 12.397,26.793L12.479,27.062L30.855,21.983L32.24,26.479L13.824,31.569L13.907,31.838C15.958,38.5 18.183,44.96 20.58,51.22L21.127,52.57L4.252,57.234L3.602,55.121L10.822,53.124L10.325,51.511L3.104,53.506L2.454,51.392L9.674,49.397L9.189,47.821L1.968,49.817L1.317,47.703L8.538,45.707L8.041,44.094L0.82,46.089L0.169,43.976L7.39,41.98L6.905,40.404L-0.316,42.4L-0.967,40.286L6.254,38.29L5.757,36.677L-1.464,38.672L-2.115,36.559L5.105,34.563L4.621,32.987L-2.6,34.983L-3.251,32.869L3.97,30.873L3.473,29.259L-3.748,31.255L-4.399,29.142L2.822,27.146L2.336,25.57L-4.884,27.566L-5.535,25.452L1.686,23.456L1.188,21.842L-6.032,23.838L-6.683,21.725L0.538,19.729L0.052,18.153L-7.168,20.149L-7.819,18.035L-0.599,16.039L-1.096,14.425L-8.316,16.421L-8.967,14.308L-1.747,12.311L-2.232,10.736L-14.969,14.257C-15.104,13.821 -15.369,13.102 -15.766,12.1C-15.915,11.807 -16.044,11.482 -16.155,11.123L24.086,0L27.542,6.218C23.192,6.197 16.627,6.941 7.849,8.45L7.553,8.49Z" style="fill:rgb(250,243,216);fill-rule:nonzero;"/>
                </g>
                <g transform="matrix(1,0,0,1,354.174,269.508)">
                    <path d="M0,-32.679L-0.068,-34.414L-12.89,-33.969C-12.899,-34.195 -12.914,-34.357 -12.932,-34.455C-12.952,-34.554 -12.962,-34.659 -12.967,-34.772L-13.216,-36.544L-13.343,-37.472L9.053,-38.249L9.003,-37.188C8.472,-30.641 8.331,-24.193 8.576,-17.843C8.796,-12.142 9.256,-6.872 9.956,-2.036L-5.666,-1.494L-5.757,-3.823L1.107,-4.061L1.038,-5.839L-5.825,-5.601L-5.916,-7.929L0.947,-8.168L0.88,-9.903L-5.982,-9.665L-6.073,-11.993L0.791,-12.231L0.722,-14.009L-6.141,-13.771L-6.232,-16.1L0.632,-16.338L0.564,-18.074L-6.298,-17.835L-6.389,-20.163L0.475,-20.402L0.406,-22.18L-6.457,-21.941L-6.548,-24.27L0.316,-24.508L0.248,-26.244L-6.614,-26.006L-6.704,-28.334L0.159,-28.573L0.089,-30.35L-6.773,-30.112L-6.864,-32.44L0,-32.679ZM10.655,3.196L-11.423,3.962C-11.336,3.111 -11.273,2.007 -11.235,0.649L-11.227,-0.326C-16.754,3.314 -22.933,5.252 -29.766,5.488C-32.113,5.57 -34.448,5.432 -36.767,5.074C-39.086,4.717 -41.179,4.204 -43.043,3.533L-43.009,3.235C-42.822,1.872 -42.712,0.018 -42.682,-2.329C-42.656,-3.205 -42.648,-5.721 -42.658,-9.875C-42.669,-13.294 -42.695,-15.526 -42.736,-16.571C-42.928,-21.537 -43.299,-26.075 -43.85,-30.182L-43.933,-31.154L-40.05,-31.288L-38.785,1.393C-36.208,1.784 -33.671,1.936 -31.173,1.85C-27.65,1.728 -24.171,1.098 -20.733,-0.039C-17.296,-1.176 -14.169,-2.739 -11.353,-4.731C-11.332,-4.957 -11.325,-5.551 -11.331,-6.512L-11.398,-17.574C-11.457,-19.097 -11.566,-20.761 -11.727,-22.564C-12.001,-26.567 -12.307,-29.793 -12.643,-32.24L-8.714,-32.376L-7.451,0.306L10.204,-0.307L10.328,0.578L10.587,2.605C10.619,2.66 10.642,2.857 10.655,3.196M-30.229,-2.973L-30.298,-4.751L-37.115,-4.514L-37.205,-6.843L-30.387,-7.08L-30.455,-8.815L-37.273,-8.579L-37.362,-10.907L-30.544,-11.144L-30.614,-12.922L-37.432,-12.685L-37.521,-15.013L-30.704,-15.25L-30.771,-16.986L-37.589,-16.749L-37.679,-19.078L-30.861,-19.314L-30.93,-21.093L-37.748,-20.856L-37.837,-23.184L-31.02,-23.42L-31.086,-25.156L-37.905,-24.919L-37.995,-27.248L-31.177,-27.485L-31.246,-29.262L-38.063,-29.026L-38.153,-31.354L-31.335,-31.591L-31.402,-33.326L-44.181,-32.884C-44.219,-33.108 -44.245,-33.375 -44.257,-33.686L-44.505,-35.458L-44.632,-36.386L-22.237,-37.163L-22.332,-36.1C-22.863,-29.554 -23.005,-23.105 -22.759,-16.755C-22.576,-12.014 -22.224,-7.589 -21.704,-3.481L-21.514,-2.089L-21.496,-1.623C-24.858,-0.489 -28.225,0.136 -31.596,0.254C-33.612,0.323 -35.394,0.258 -36.938,0.057L-37.046,-2.737L-30.229,-2.973Z" style="fill:rgb(250,243,216);fill-rule:nonzero;"/>
                </g>
                <g transform="matrix(1,0,0,1,412.204,232.877)">
                    <path d="M0,29.42L17.254,25.823L17.544,26.674L18.182,28.623C18.224,28.673 18.283,28.862 18.36,29.193L-3.527,33.755C-3.694,31.969 -4.007,29.764 -4.461,27.14C-5.357,21.688 -6.296,16.852 -7.276,12.632C-8.07,9.212 -9.006,5.649 -10.083,1.94C-10.389,0.76 -10.703,-0.201 -11.029,-0.943C-10.107,-1.482 -8.899,-1.994 -7.408,-2.478L0,29.42ZM-12.353,35.595L-34.238,40.157C-34.518,37.758 -34.83,35.552 -35.174,33.542C-36.07,28.09 -37.018,23.213 -38.017,18.91C-39.144,14.056 -40.373,9.628 -41.704,5.625L-41.969,4.682L-38.173,3.891L-30.756,35.831L-13.459,32.226C-13.414,32.419 -13.368,32.583 -13.321,32.717C-13.274,32.853 -13.238,32.975 -13.212,33.085L-12.53,35.025C-12.485,35.218 -12.426,35.409 -12.353,35.595M9.043,-10.722L9.171,-9.578C9.627,-5.884 10.122,-2.524 10.655,0.502C11.188,3.528 11.73,6.227 12.281,8.599C13.172,12.433 14.18,16.243 15.307,20.027C15.621,21.118 16.079,22.498 16.683,24.165L1.415,27.347L0.887,25.071L7.594,23.673L7.19,21.936L0.483,23.334L-0.046,21.058L6.662,19.66L6.269,17.964L-0.439,19.362L-0.968,17.087L5.739,15.689L5.336,13.951L-1.371,15.349L-1.899,13.073L4.808,11.675L4.414,9.979L-2.293,11.377L-2.822,9.102L3.885,7.703L3.481,5.965L-3.226,7.364L-3.754,5.088L2.953,3.69L2.56,1.994L-4.147,3.392L-4.677,1.117L2.031,-0.281L1.627,-2.019L-5.08,-0.621L-5.638,-3.021C-3.626,-3.787 -1.664,-4.37 0.249,-4.768L0.954,-4.915L0.58,-6.529L-1.009,-6.198C-2.745,-5.836 -4.53,-5.355 -6.364,-4.756C-8.199,-4.157 -9.979,-3.453 -11.703,-2.646C-13.429,-1.837 -14.995,-0.984 -16.405,-0.082C-17.814,0.819 -19.136,1.803 -20.369,2.869L-20.708,3.2L-20.694,3.458L-20.355,5.512C-19.89,8.451 -19.256,11.645 -18.456,15.093C-17.064,21.078 -15.589,26.236 -14.028,30.566L-29.296,33.748L-29.825,31.473L-23.162,30.084L-23.565,28.347L-30.229,29.735L-30.757,27.46L-24.093,26.071L-24.487,24.375L-31.151,25.764L-31.679,23.488L-25.017,22.099L-25.42,20.361L-32.083,21.751L-32.611,19.475L-25.948,18.086L-26.342,16.39L-33.005,17.778L-33.534,15.503L-26.87,14.114L-27.275,12.377L-33.937,13.765L-34.466,11.49L-27.803,10.101L-28.197,8.405L-34.86,9.794L-35.388,7.518L-28.725,6.129L-29.128,4.391L-35.792,5.78L-36.321,3.505L-29.657,2.116L-30.051,0.42L-42.539,3.023C-42.626,2.781 -42.702,2.522 -42.765,2.246L-43.345,0.545L-43.646,-0.347L-21.758,-4.909C-21.713,-4.311 -21.576,-3.125 -21.349,-1.351L-21.325,-1.052L-20.888,-1.36C-17.658,-3.652 -14.652,-5.414 -11.869,-6.645C-9.086,-7.876 -5.826,-8.88 -2.09,-9.66C1.381,-10.383 5.092,-10.737 9.043,-10.722" style="fill:rgb(250,243,216);fill-rule:nonzero;"/>
                </g>
                <g transform="matrix(1,0,0,1,455.45,235.499)">
                    <path d="M0,17.472C-0.062,17.805 -0.112,18.17 -0.153,18.565C-0.687,22.002 -1.157,25.68 -1.563,29.597L-1.748,31.114L-17.199,28.592L-16.781,26.296L-10.013,27.401L-9.694,25.647L-16.462,24.542L-16.044,22.246L-9.276,23.351L-8.965,21.639L-15.732,20.535L-15.315,18.238L-8.548,19.343L-8.228,17.59L-14.996,16.485L-14.579,14.189L-7.811,15.294L-7.499,13.582L-14.268,12.477L-13.849,10.181L-7.081,11.286L-6.763,9.533L-13.53,8.428L-13.112,6.131L-6.345,7.236L-6.034,5.525L-12.801,4.42L-12.384,2.124L-5.616,3.229L-5.297,1.475L-12.065,0.37L-11.646,-1.925L-4.879,-0.82L-4.567,-2.532L-11.335,-3.637L-10.918,-5.933L-4.15,-4.828L-3.831,-6.582L-10.599,-7.687L-10.182,-9.983L-3.414,-8.878L-3.102,-10.59L-9.87,-11.695L-9.452,-13.99L-2.684,-12.885L-2.365,-14.639L-9.133,-15.744L-8.715,-18.04L-1.947,-16.935L-1.636,-18.646L-14.459,-20.74C-14.374,-21.213 -14.289,-22.016 -14.205,-23.149C-14.17,-23.343 -14.144,-23.526 -14.129,-23.695C-14.112,-23.864 -14.088,-24.047 -14.051,-24.242L8.033,-20.636L7.746,-19.565C6.626,-15.592 5.514,-11.074 4.409,-6.01C3.305,-0.945 2.345,3.826 1.529,8.307C1.109,10.618 0.815,12.317 0.648,13.408L0.572,13.826L1.077,13.564C3.195,12.506 7.537,10.062 14.103,6.234C16.702,4.709 20.36,2.498 25.075,-0.401L26.206,-1.075L35.602,0.458C31.327,2.283 27.842,3.877 25.149,5.243L17.529,9.071L16.315,9.69C16.981,11.576 18.181,14.566 19.911,18.659L23.722,27.449C24.771,29.913 26.032,32.727 27.505,35.89L12.232,33.397L11.181,30.861L17.948,31.966L17.154,30.031L10.431,28.932L9.424,26.404L16.104,27.495L15.301,25.601L8.667,24.518L7.615,21.982L14.25,23.065L13.456,21.13L6.866,20.055L5.858,17.526L12.404,18.595L11.603,16.701L5.324,15.676L3.612,16.772L10.897,34.941L28.439,37.805L28.854,38.561L29.973,40.721C30.012,40.842 30.195,41.173 30.525,41.714L7.952,38.028C7.288,35.628 6.334,32.806 5.089,29.565C2.91,23.908 1.234,19.923 0.065,17.612L0,17.472ZM-24.419,32.743L-24.162,31.839C-23.208,28.614 -22.179,24.505 -21.071,19.512C-19.965,14.52 -18.909,9.269 -17.907,3.758C-16.672,-3.032 -15.629,-10.198 -14.775,-17.74L-14.637,-19.007L-10.541,-18.338L-19.335,30.005L-1.926,32.847C-2.009,33.465 -2.144,34.632 -2.334,36.348L-24.419,32.743Z" style="fill:rgb(250,243,216);fill-rule:nonzero;"/>
                </g>
                <g transform="matrix(1,0,0,1,272.641,292.049)">
                    <path d="M0,52.042L0.081,51.203C0.403,48.204 0.651,44.411 0.825,39.822C1,35.234 1.087,30.425 1.087,25.392C1.087,19.19 0.859,12.683 0.403,5.871L0.322,4.728L4.024,4.728L4.024,48.878L22.537,48.878C22.564,49.945 22.631,51 22.738,52.042L0,52.042ZM22.416,3.584L22.376,3.851C22.215,6.545 22.074,9.373 21.954,12.334C21.833,15.295 21.746,18.364 21.692,21.541L21.692,21.808L39.922,21.808L39.922,26.269L21.651,26.269L21.651,26.535C21.651,33.145 21.866,39.613 22.295,45.941L22.416,47.314L5.675,47.314L5.675,45.218L12.838,45.218L12.838,43.616L5.675,43.616L5.675,41.52L12.838,41.52L12.838,39.956L5.675,39.956L5.675,37.859L12.838,37.859L12.838,36.258L5.675,36.258L5.675,34.161L12.838,34.161L12.838,32.598L5.675,32.598L5.675,30.501L12.838,30.501L12.838,28.899L5.675,28.899L5.675,26.803L12.838,26.803L12.838,25.239L5.675,25.239L5.675,23.143L12.838,23.143L12.838,21.541L5.675,21.541L5.675,19.444L12.838,19.444L12.838,17.881L5.675,17.881L5.675,15.784L12.838,15.784L12.838,14.183L5.675,14.183L5.675,12.086L12.838,12.086L12.838,10.522L5.675,10.522L5.675,8.426L12.838,8.426L12.838,6.824L5.675,6.824L5.675,4.728L12.838,4.728L12.838,3.164L0.202,3.164C0.202,2.732 0.161,2.008 0.081,0.991C0.027,0.686 0,0.356 0,0L39.922,0L41.331,6.558C37.36,5.439 31.149,4.46 22.698,3.622L22.416,3.584Z" style="fill:rgb(250,243,216);fill-rule:nonzero;"/>
                </g>
                <g transform="matrix(1,0,0,1,321.424,292.049)">
                    <path d="M0,52.042L0.081,51.203C0.402,48.204 0.651,44.411 0.825,39.822C1,35.234 1.087,30.425 1.087,25.392C1.087,19.19 0.859,12.683 0.402,5.871L0.322,4.728L4.024,4.728L4.024,48.878L22.335,48.878L22.335,52.042L0,52.042ZM5.675,47.314L5.675,45.218L12.838,45.218L12.838,43.616L5.675,43.616L5.675,41.52L12.838,41.52L12.838,39.956L5.675,39.956L5.715,37.859L12.838,37.859L12.838,36.258L5.675,36.258L5.675,34.161L12.838,34.161L12.838,32.598L5.675,32.598L5.675,30.501L12.838,30.501L12.838,28.899L5.675,28.899L5.675,26.803L12.838,26.803L12.838,25.239L5.675,25.239L5.675,23.143L12.838,23.143L12.838,21.541L5.675,21.541L5.675,19.444L12.838,19.444L12.838,17.881L5.675,17.881L5.675,15.784L12.838,15.784L12.838,14.183L5.715,14.183L5.675,12.086L12.838,12.086L12.838,10.522L5.675,10.522L5.675,8.426L12.838,8.426L12.838,6.824L5.675,6.824L5.675,4.728L12.838,4.728L12.838,3.164L0.201,3.164C0.201,2.732 0.161,2.008 0.081,0.991C0.027,0.686 0,0.356 0,0L28.493,0C31.927,0 34.248,0.038 35.455,0.114C39.185,0.292 42.458,1.093 45.275,2.516C48.092,3.94 50.265,5.858 51.794,8.273C53.324,10.688 54.088,13.408 54.088,16.433C54.088,18.72 53.632,20.906 52.72,22.99C51.808,25.074 50.513,26.879 48.836,28.403C47.16,29.929 45.221,31.086 43.021,31.873L43.464,32.598C45.852,36.664 48.816,41.189 52.358,46.171L53.163,47.314L35.656,47.314L34.369,45.218L41.895,45.218L40.888,43.616L33.403,43.616L32.075,41.52L39.56,41.52L38.554,39.956L31.109,39.956L29.781,37.859L37.226,37.859L36.22,36.258L28.815,36.258L27.487,34.161L34.892,34.161L33.886,32.598L26.32,32.598L24.589,29.738C25.77,29.866 27.111,29.929 28.614,29.929C29.794,29.929 30.908,29.866 31.954,29.738L31.954,5.185C33.215,5.236 34.315,5.439 35.254,5.795L35.254,26.803L40.606,26.803C41.116,26.294 41.559,25.773 41.935,25.239L36.944,25.239L36.944,23.143L43.102,23.143C43.263,22.786 43.437,22.355 43.625,21.846L43.746,21.541L36.944,21.541L36.944,19.444L44.349,19.444C44.43,18.859 44.497,18.339 44.55,17.881L36.944,17.881L36.944,15.784L44.631,15.784C44.631,15.683 44.604,15.25 44.55,14.488L44.51,14.183L36.944,14.183L36.944,12.086L44.067,12.086C43.96,11.68 43.772,11.158 43.504,10.522L36.944,10.522L36.944,8.426L42.256,8.426C41.854,7.841 41.398,7.307 40.888,6.824L36.944,6.824L36.944,4.308C34.825,3.545 31.283,3.164 26.32,3.164L22.335,3.164L22.335,29.014L34.731,48.878L54.41,48.878C54.544,49.005 54.665,49.132 54.772,49.259C54.88,49.387 54.96,49.501 55.014,49.602L56.463,51.317C56.543,51.394 56.65,51.502 56.785,51.642C56.919,51.781 57.04,51.915 57.147,52.042L32.316,52.042L31.954,51.317C29.7,46.946 28.131,43.984 27.246,42.435C25.34,39.003 23.704,36.372 22.335,34.542L22.335,47.314L5.675,47.314Z" style="fill:rgb(250,243,216);fill-rule:nonzero;"/>
                </g>
                <g transform="matrix(1,0,0,1,384.211,292.049)">
                    <path d="M0,52.042L0.081,51.203C0.403,48.204 0.651,44.411 0.825,39.822C1,35.234 1.087,30.425 1.087,25.392C1.087,19.19 0.859,12.683 0.403,5.871L0.322,4.728L4.024,4.728L4.024,48.878L12.637,48.878C17.01,48.878 20.927,48.77 24.388,48.554C27.849,48.338 31.109,47.981 34.167,47.486C37.226,46.99 40.245,46.323 43.222,45.484L41.372,52.042L0,52.042ZM22.375,3.66L22.375,3.927C21.919,11.349 21.692,16.788 21.692,20.245L21.692,20.512L39.48,20.512L39.48,24.973L21.652,24.973L21.652,25.582C21.652,26.497 21.659,27.388 21.671,28.251C21.685,29.115 21.692,30.374 21.692,32.025C21.772,36.042 21.973,40.681 22.295,45.941L22.417,47.314L5.675,47.314L5.675,45.218L12.838,45.218L12.838,43.616L5.675,43.616L5.675,41.52L12.838,41.52L12.838,39.956L5.675,39.956L5.675,37.859L12.838,37.859L12.838,36.258L5.675,36.258L5.675,34.161L12.838,34.161L12.838,32.598L5.675,32.598L5.675,30.501L12.838,30.501L12.838,28.899L5.675,28.899L5.675,26.803L12.838,26.803L12.838,25.239L5.675,25.239L5.675,23.143L12.838,23.143L12.838,21.541L5.675,21.541L5.675,19.444L12.838,19.444L12.838,17.881L5.675,17.881L5.675,15.784L12.838,15.784L12.838,14.183L5.675,14.183L5.675,12.086L12.838,12.086L12.838,10.522L5.675,10.522L5.675,8.426L12.838,8.426L12.838,6.824L5.675,6.824L5.675,4.728L12.838,4.728L12.838,3.164L0.201,3.164C0.201,2.732 0.161,2.008 0.081,0.991C0.027,0.686 0,0.356 0,0L40.124,0L41.733,6.558C39.131,5.947 35.824,5.344 31.813,4.747C27.802,4.15 24.75,3.8 22.658,3.698L22.375,3.66Z" style="fill:rgb(250,243,216);fill-rule:nonzero;"/>
                </g>
                <g transform="matrix(1,0,0,1,483.959,283.36)">
                    <path d="M0,14.696C3.625,14.88 6.916,14.124 10.779,11.623C14.717,9.076 19.868,5.439 25.621,0.064L26.819,-1.051L13.898,-40.374L8.89,-41.308C12.341,-33.095 15.838,-22.671 19.384,-10.036C20.371,-6.512 21.032,-3.857 21.366,-2.067C19.669,-0.254 17.803,1.42 15.765,2.954C13.727,4.488 11.658,5.729 9.625,6.796C6.643,8.36 3.956,8.695 -0.809,8.693C-0.998,8.693 -1.265,8.68 -1.577,8.724L-1.585,8.689L-52.977,8.689L-54.466,15.247L-53.42,15.018C-48.751,14.002 -44.123,13.232 -39.535,12.711C-34.947,12.191 -30.373,11.905 -25.812,11.853L-25.812,13.417L-26.536,13.417C-27.878,13.417 -29.756,13.493 -32.171,13.645L-32.896,13.683L-32.896,15.513L-25.812,15.513L-25.812,17.115L-32.936,17.115L-32.936,19.212L-25.812,19.212L-25.812,20.775L-32.936,20.775L-32.936,22.872L-25.812,22.872L-25.812,24.473L-32.936,24.473L-32.936,26.57L-25.812,26.57L-25.812,28.134L-32.936,28.134L-32.936,30.23L-25.812,30.23L-25.812,31.832L-32.936,31.832L-32.936,33.928L-25.812,33.928L-25.812,35.492L-32.936,35.492L-32.936,37.589L-25.812,37.589L-25.812,39.19L-32.936,39.19L-32.936,41.287L-25.812,41.287L-25.812,42.85L-32.936,42.85L-32.936,44.947L-25.812,44.947L-25.812,46.549L-32.936,46.549L-32.936,48.645L-25.812,48.645L-25.812,50.209L-32.936,50.209L-32.936,52.305L-25.812,52.305L-25.812,53.907L-32.936,53.907L-32.936,56.004L-16.234,56.004L-16.354,54.631C-16.784,48.836 -16.999,42.303 -16.999,35.034C-16.999,27.765 -16.757,20.369 -16.274,12.845L-16.274,12.578L-15.872,12.616C-12.466,12.983 -9.342,13.418 -6.479,13.917C-5.509,14.142 -4.361,14.268 -4.007,14.335C-3.5,14.429 0,14.696 0,14.696" style="fill:rgb(250,243,216);fill-rule:nonzero;"/>
                </g>
                <g transform="matrix(1,0,0,1,532.798,273.159)">
                    <path d="M0,-29.013C-0.943,-25.361 -2.42,-21.728 -4.429,-18.117C-6.438,-14.505 -8.863,-11.107 -11.703,-7.924L-12.354,-10.117C-14.23,-16.598 -15.395,-20.744 -15.848,-22.555C-16.299,-24.367 -16.92,-27.144 -17.708,-30.89L-17.998,-32.369L-42.691,-36.973L-42.198,-36.018C-41.787,-35.192 -41.318,-34.198 -40.792,-33.035L-26.119,-30.299L-25.587,-28.43L-33.122,-29.835L-32.268,-27.301L-24.819,-25.912L-24.296,-24.001L-31.654,-25.374L-30.844,-22.848L-23.529,-21.484L-22.996,-19.615L-30.223,-20.962L-29.368,-18.428L-22.23,-17.096L-21.706,-15.185L-28.756,-16.5L-27.9,-13.966L-20.94,-12.668L-20.407,-10.799L-27.279,-12.08L-26.469,-9.554L-19.642,-8.281L-19.117,-6.37L-25.812,-7.618L-25.001,-5.093L-18.352,-3.852L-17.773,-1.975L-24.379,-3.206L-23.524,-0.673L-18.515,0.261L-19.897,1.817L-22.911,1.255L-20.76,7.96C-14.979,2.447 -9.419,-3.626 -4.081,-10.259C1.257,-16.89 5.263,-22.649 7.935,-27.534L0,-29.013Z" style="fill:rgb(250,243,216);fill-rule:nonzero;"/>
                </g>
                <g transform="matrix(1,0,0,1,449.333,300.284)">
                    <path d="M0,40.643L0,-3.164C-1.476,-3.088 -2.709,-2.986 -3.702,-2.859C-3.38,-1.029 -3.179,2.44 -3.099,7.549L-2.897,19.711C-2.897,21.161 -2.924,22.723 -2.978,24.401C-3.005,25.544 -3.038,26.702 -3.078,27.871C-3.118,29.039 -3.166,30.209 -3.219,31.378C-3.434,36.309 -3.676,40.172 -3.943,42.968L-4.024,43.807L18.714,43.807C18.606,42.257 18.539,41.202 18.513,40.643L0,40.643Z" style="fill:rgb(250,243,216);fill-rule:nonzero;"/>
                </g>
                <g transform="matrix(1,0,0,1,531.599,339.477)">
                    <path d="M0,-42.854L-2.897,-37.021C-8.29,-42.206 -14.581,-44.798 -21.771,-44.798C-25.286,-44.798 -28.466,-44.156 -31.31,-42.873C-34.153,-41.589 -36.374,-39.816 -37.97,-37.554C-39.566,-35.292 -40.364,-32.725 -40.364,-29.853C-40.364,-26.98 -39.546,-24.61 -37.909,-22.742C-36.272,-20.874 -33.55,-19.164 -29.74,-17.614L-4.869,-7.777C-5.405,-6.761 -6.062,-5.871 -6.841,-5.109L-29.418,-13.992C-32.235,-15.11 -34.354,-16.063 -35.776,-16.852C-37.198,-17.64 -38.433,-18.516 -39.479,-19.482C-40.472,-20.423 -41.276,-21.414 -41.894,-22.456C-42.511,-23.498 -42.987,-24.623 -43.322,-25.83C-43.658,-27.037 -43.825,-28.341 -43.825,-29.738C-43.825,-33.322 -42.819,-36.563 -40.807,-39.46C-38.795,-42.358 -35.984,-44.613 -32.376,-46.228C-28.768,-47.842 -24.723,-48.649 -20.242,-48.649C-18.444,-48.649 -16.701,-48.521 -15.011,-48.268C-13.32,-48.014 -11.616,-47.645 -9.899,-47.162C-8.183,-46.679 -6.445,-46.05 -4.687,-45.275C-2.931,-44.499 -1.368,-43.692 0,-42.854M-12.556,-12.506L-8.692,-17.995L-10.262,-18.605L-14.125,-13.115L-16.218,-13.954L-12.354,-19.444L-13.924,-20.055L-17.787,-14.603L-19.84,-15.403L-16.017,-20.855L-17.586,-21.465L-21.409,-16.051L-23.502,-16.852L-19.679,-22.304L-21.208,-22.914L-25.071,-17.5L-27.124,-18.339L-23.301,-23.753L-24.87,-24.362L-28.693,-18.948C-28.962,-19.05 -29.137,-19.12 -29.217,-19.158C-29.297,-19.196 -29.458,-19.254 -29.7,-19.33C-30.049,-19.482 -30.297,-19.584 -30.444,-19.635C-30.592,-19.686 -30.706,-19.724 -30.786,-19.749L-26.963,-25.201L-28.532,-25.812L-32.315,-20.474C-32.771,-20.702 -33.321,-21.021 -33.966,-21.427L-34.207,-21.579L-30.625,-26.65L-32.195,-27.26L-35.495,-22.57C-36.059,-23.079 -36.555,-23.625 -36.984,-24.21L-34.287,-28.061L-35.857,-28.671L-37.909,-25.773C-38.473,-27.12 -38.755,-28.519 -38.755,-29.967C-38.755,-31.467 -38.507,-32.852 -38.01,-34.123C-37.514,-35.394 -36.716,-36.69 -35.615,-38.012L-12.556,-28.861L-9.015,-27.489C-6.438,-26.446 -4.373,-25.29 -2.816,-24.02C-1.261,-22.748 -0.113,-21.274 0.624,-19.597C1.362,-17.919 1.731,-15.937 1.731,-13.649C1.731,-8.337 -0.482,-3.762 -4.909,0.076C-9.282,3.889 -15.064,5.795 -22.255,5.795C-26.333,5.795 -30.424,5.172 -34.529,3.927C-38.634,2.682 -42.202,0.953 -45.234,-1.258L-42.176,-7.435C-40.485,-5.579 -38.406,-3.914 -35.938,-2.44C-33.47,-0.966 -30.887,0.166 -28.19,0.953C-25.494,1.741 -22.845,2.135 -20.242,2.135C-14.018,2.135 -9.015,-0.102 -5.231,-4.575C-2.897,-7.32 -1.73,-10.459 -1.73,-13.992C-1.73,-14.119 -1.757,-14.564 -1.811,-15.327L-3.42,-15.937C-3.313,-15.403 -3.26,-14.831 -3.26,-14.221C-3.26,-12.62 -3.567,-10.942 -4.185,-9.188L-8.934,-11.057L-5.03,-16.547L-6.6,-17.157L-10.463,-11.667L-12.556,-12.506Z" style="fill:rgb(250,243,216);fill-rule:nonzero;"/>
                </g>
            </g>
            <g id="Bottom-Part-of-Sign" serif:id="Bottom Part of Sign">
                <g transform="matrix(1,0,0,1,374.617,365.864)">
                    <path d="M0,75.099L-116.698,75.099C-118.77,79.024 -122.533,81.293 -125.586,82.135C-126.789,82.475 -128.057,82.65 -129.339,82.65C-132.306,82.65 -135.082,81.773 -137.44,80.1C-140.919,81.175 -144.611,81.719 -148.429,81.719C-148.92,81.719 -149.411,81.718 -149.901,81.703C-154.778,81.517 -161.654,80.183 -166.798,74.877C-168.16,73.469 -171.075,70 -171.954,65.361C-172.472,65.825 -172.958,66.177 -173.353,66.431C-175.083,67.544 -177.086,68.277 -179.192,68.572C-179.551,68.984 -180.492,69.927 -181.891,70.742C-182.673,71.178 -183.38,71.484 -184.087,71.694C-184.598,71.859 -185.749,72.159 -187.206,72.159C-189.426,72.159 -191.567,71.427 -193.427,70.038C-199.02,72.869 -205.169,74.359 -211.295,74.359C-212.884,74.359 -214.48,74.254 -216.04,74.05C-219.058,73.65 -221.919,72.915 -224.554,71.869C-235.221,67.685 -241.657,59.073 -241.759,48.837L-241.761,48.606C-241.761,35.411 -230.6,27.43 -220.101,26.619C-219.417,26.565 -218.729,26.546 -218.044,26.546C-215.434,26.546 -212.87,26.919 -210.421,27.656C-207.307,28.6 -204.554,30.078 -202.277,31.969C-201.438,27.509 -198.204,24.48 -195.085,22.963C-191.667,12.09 -182.979,3.322 -171.089,-1.2C-170.923,-1.269 -170.74,-1.339 -170.546,-1.409C-167.444,-5.207 -162.673,-7.455 -157.638,-7.455C-154.6,-7.455 -151.617,-6.626 -149.015,-5.057C-148.494,-4.735 -147.998,-4.394 -147.527,-4.036C-144.951,-6.317 -141.715,-7.551 -138.208,-7.551C-136.945,-7.551 -135.685,-7.377 -134.462,-7.032C-131.418,-6.204 -127.65,-3.937 -125.582,0L168.458,0C170.53,-3.942 174.308,-6.207 177.375,-7.038C178.575,-7.377 179.829,-7.551 181.084,-7.551C184.601,-7.551 187.836,-6.319 190.404,-4.042C190.875,-4.402 191.367,-4.736 191.875,-5.042C194.447,-6.618 197.439,-7.455 200.512,-7.455C205.56,-7.455 210.348,-5.201 213.462,-1.395C213.651,-1.325 213.839,-1.254 214.024,-1.177C225.865,3.337 234.557,12.106 237.976,22.964C241.092,24.484 244.325,27.514 245.167,31.962C247.441,30.074 250.194,28.598 253.306,27.657C255.763,26.919 258.323,26.546 260.92,26.546C261.606,26.546 262.292,26.565 262.977,26.619C273.475,27.428 284.635,35.416 284.635,48.62L284.635,48.814C284.503,63.995 271.426,70.301 267.42,71.872C264.723,72.926 261.865,73.66 258.919,74.05C257.355,74.254 255.758,74.359 254.171,74.359C248.036,74.359 241.888,72.867 236.306,70.035C234.454,71.425 232.313,72.159 230.083,72.159C228.593,72.159 227.391,71.842 226.644,71.578C226.052,71.395 225.397,71.103 224.775,70.737C223.471,69.978 222.563,69.102 222.079,68.572C219.951,68.274 217.94,67.539 216.222,66.427C215.894,66.22 215.401,65.875 214.845,65.377C213.971,69.999 211.07,73.451 209.706,74.86C205.656,79.067 199.81,81.434 192.805,81.701C192.302,81.718 191.811,81.719 191.321,81.719C187.492,81.719 183.795,81.175 180.316,80.102C177.958,81.773 175.181,82.65 172.213,82.65C170.931,82.65 169.665,82.475 168.447,82.13C165.41,81.286 161.654,79.014 159.588,75.099L42.89,75.099L0,75.099Z" style="fill:rgb(35,31,32);fill-rule:nonzero;"/>
                </g>
                <g transform="matrix(1,0,0,1,377.477,368.126)">
                    <path d="M0,70.575L-121.013,70.575C-122.508,74.512 -126.076,76.874 -129.048,77.693C-130.077,77.983 -131.138,78.127 -132.199,78.127C-135.251,78.127 -137.855,77.035 -139.863,75.315C-143.368,76.536 -147.192,77.195 -151.29,77.195C-151.756,77.195 -152.222,77.195 -152.688,77.179C-157.365,77.002 -163.487,75.732 -168.035,71.041C-170.413,68.582 -172.727,64.79 -172.808,60.629C-173.562,60.451 -174.302,60.243 -175.041,60.002C-175.845,61.094 -176.761,61.834 -177.436,62.267C-179.059,63.312 -181.003,63.971 -183.044,64.147C-183.157,64.244 -183.286,64.324 -183.398,64.421C-183.462,64.501 -183.542,64.597 -183.623,64.678C-183.96,65.063 -184.731,65.85 -185.888,66.525C-186.435,66.831 -186.997,67.089 -187.592,67.264C-187.946,67.378 -188.878,67.634 -190.066,67.634C-192.269,67.634 -194.021,66.734 -195.306,65.674C-195.546,65.546 -195.804,65.337 -196.141,65.143C-201.638,68.165 -207.872,69.835 -214.156,69.835C-215.635,69.835 -217.129,69.739 -218.607,69.547C-221.275,69.192 -223.991,68.534 -226.578,67.506C-234.116,64.549 -242.247,57.784 -242.359,46.552L-242.359,46.343C-242.359,34.42 -232.347,27.349 -222.786,26.61C-222.159,26.562 -221.532,26.547 -220.905,26.547C-218.543,26.547 -216.181,26.884 -213.931,27.558C-208.21,29.294 -202.216,33.745 -200.705,41.072C-200.319,40.445 -200.015,39.835 -199.79,39.257C-201.107,38.068 -202.264,36.412 -202.811,34.195C-203.003,33.424 -203.084,32.684 -203.084,31.977C-203.084,26.514 -198.809,23.397 -196.078,22.352C-194.505,16.737 -191.518,11.961 -187.723,8.082C-183.568,3.836 -178.445,0.666 -173.146,-1.35C-172.792,-1.494 -172.422,-1.623 -172.037,-1.751C-169.208,-5.559 -164.757,-7.455 -160.499,-7.455C-157.991,-7.455 -155.388,-6.796 -153.042,-5.383C-152.078,-4.788 -151.129,-4.065 -150.261,-3.182C-148.124,-5.769 -144.942,-7.552 -141.069,-7.552C-140.024,-7.552 -138.964,-7.407 -137.936,-7.118C-134.93,-6.299 -131.379,-3.92 -129.9,0.001L167.055,0.001C168.534,-3.92 172.084,-6.299 175.106,-7.118C176.134,-7.407 177.179,-7.552 178.224,-7.552C182.112,-7.552 185.294,-5.769 187.416,-3.182C188.267,-4.049 189.215,-4.788 190.179,-5.367C192.542,-6.813 195.145,-7.455 197.652,-7.455C201.927,-7.455 206.378,-5.559 209.222,-1.751C209.577,-1.623 209.947,-1.494 210.3,-1.35C220.456,2.523 229.954,10.606 233.248,22.352C235.963,23.397 240.254,26.514 240.254,31.977C240.254,32.684 240.174,33.44 239.981,34.195C239.435,36.429 238.278,38.084 236.944,39.272C237.185,39.835 237.491,40.445 237.875,41.088C239.371,33.762 245.365,29.294 251.102,27.558C253.352,26.884 255.713,26.547 258.06,26.547C258.687,26.547 259.314,26.562 259.94,26.61C269.518,27.349 279.514,34.436 279.514,46.359L279.514,46.552C279.417,57.784 271.269,64.549 263.733,67.506C261.146,68.517 258.429,69.192 255.762,69.547C254.284,69.739 252.805,69.835 251.31,69.835C245.043,69.835 238.792,68.165 233.312,65.143C232.975,65.337 232.718,65.529 232.476,65.658C231.111,66.799 229.327,67.634 227.221,67.634C226.032,67.634 225.083,67.378 224.538,67.184C224.024,67.023 223.525,66.799 223.06,66.525C221.902,65.85 221.131,65.063 220.793,64.678C220.713,64.597 220.632,64.501 220.569,64.421C220.456,64.324 220.328,64.244 220.215,64.147C218.19,63.971 216.23,63.328 214.59,62.267C213.851,61.802 212.918,61.013 212.132,59.905C211.424,60.13 210.702,60.339 209.978,60.516C209.947,64.725 207.6,68.566 205.222,71.024C200.673,75.749 194.519,77.002 189.858,77.179C189.393,77.195 188.926,77.195 188.46,77.195C184.347,77.195 180.521,76.536 177.018,75.315C175.01,77.035 172.406,78.127 169.353,78.127C168.292,78.127 167.232,77.983 166.203,77.693C163.199,76.858 159.663,74.479 158.184,70.575L37.17,70.575L0,70.575Z" style="fill:rgb(214,185,129);fill-rule:nonzero;"/>
                </g>
                <g transform="matrix(1,0,0,1,400.015,376.151)">
                    <path d="M0,54.666L143.496,54.666C144.364,54.666 145.135,54.955 145.521,55.679C145.81,56.208 145.81,56.979 145.264,56.738C143.913,56.16 142.773,57.445 142.773,58.748C142.773,60.387 144.074,61.624 145.602,62.073C148.252,62.781 150.647,60.562 150.695,57.928C150.711,57.43 150.647,56.916 150.567,56.449C154.857,59.664 160.289,61.511 166.83,61.27C170.526,61.142 174.222,60.161 176.696,57.574C178.593,55.631 179.524,53.155 179.091,51.757C178.416,49.797 177.114,48.687 174.864,49.219C173.884,49.476 172.936,50.697 173.724,51.87C174.495,53.493 171.538,56.208 165.062,56.481C158.875,56.738 153.459,53.429 149.538,48.447C144.829,42.421 142.322,33.953 143.479,26.433C144.701,18.366 149.715,10.653 157.767,5.495C161.43,3.148 165.367,1.687 169.417,1.076C169.48,1.285 169.61,1.494 169.738,1.687C171.586,4.322 175.427,5.126 178.271,3.438C179.155,2.908 179.813,2.217 180.328,1.382C181.983,1.783 183.59,2.313 185.165,3.02C194.486,7.214 201.493,16.872 198.312,27.204C196.077,34.483 190.019,40.172 182.337,41.023C175.7,41.778 166.894,39.176 165.207,31.366C163.375,23.348 167.553,20.472 169.674,18.929C171.796,17.242 175.475,17.354 177.195,20.455C178.528,23.412 176.295,27.044 172.824,27.799C172.117,27.96 172.357,28.683 172.582,29.148C173.257,30.273 174.656,32.539 177.806,32.556C182.626,32.298 188.927,27.976 187.512,20.294C186.981,17.418 184.812,14.863 182.32,13.433C180.891,12.662 179.3,12.163 177.66,11.939C173.467,11.377 169.369,12.533 166.203,14.88C162.716,17.515 160.369,21.629 160.401,26.465C160.434,29.662 161.495,33.391 164.13,37.729C164.13,37.729 156.046,26.643 150.92,26.851C150.277,26.851 149.137,26.465 148.638,26.851C148.638,26.851 149.185,27.734 149.185,28.265C149.104,29.614 149.313,32.362 151.82,33.326C151.82,33.326 148.943,34.13 148.236,35.849C148.043,36.348 148.462,37.376 149.072,36.878C150.133,36.026 153.298,37.07 156.914,38.709C162.072,41.023 166.299,44.574 173.724,45.522C181.052,46.165 188.396,44.993 194.021,40.782C197.539,38.147 200.609,34.194 202.136,30.418C202.231,33.423 202.715,36.412 201.75,39.288C200.545,42.646 199.323,45.169 196.094,46.712C195.659,46.985 195.9,47.419 196.206,47.644C196.672,47.917 197.363,48.175 198.23,48.27C198.97,48.303 199.87,48.11 200.818,47.516C200.818,47.516 201.348,49.331 203.277,50.568C203.582,50.745 203.92,51.452 204.337,51.693C204.481,51.741 204.578,51.726 204.658,51.629C204.884,51.355 205.446,50.905 206.057,50.568C207.407,49.909 209.142,48.801 209.945,47.161C209.945,47.161 211.199,48.303 213.385,49.62C218.978,52.994 225.646,54.521 231.994,53.701C240.174,52.642 248.658,47.563 248.738,38.597C248.804,31.913 243.211,27.269 236.59,26.754C229.6,26.224 222.448,30.145 222.834,37.359C223.059,41.474 226.481,44.622 230.58,44.72C232.927,44.8 235.272,43.53 235.867,41.168C235.979,40.719 235.995,40.284 235.947,39.851C235.674,37.183 232.975,35.319 230.42,36.38C229.744,36.669 228.989,37.183 228.25,38.082C228.25,38.082 227.992,37.585 227.929,36.878C227.831,36.09 228.009,35.416 228.314,34.772C229.825,31.655 233.328,30.386 236.639,30.739C240.671,31.189 244.095,34.388 243.918,38.581C243.661,44.895 237.521,48.158 231.833,49.154C226.37,50.103 220.616,48.801 216.036,45.427C208.564,39.946 206.281,34.563 205.526,30.017C205.157,27.782 205.333,26.224 206.459,26.159C207.407,26.096 209.046,25.935 209.447,24.376C209.865,22.641 206.008,19.989 203.582,23.509C203.646,21.772 203.518,20.038 203.164,18.302C201.187,8.725 193.651,1.687 184.699,-1.72C183.494,-2.186 182.225,-2.588 180.972,-2.893C180.811,-3.487 180.569,-4.114 180.151,-4.661C178.353,-7.296 174.479,-8.115 171.618,-6.38C170.413,-5.641 169.48,-4.563 169.111,-3.294C165.624,-2.716 162.04,-1.543 158.554,0.369C159.212,-0.611 159.614,-1.783 159.565,-3.118C159.518,-5.737 157.14,-7.954 154.472,-7.247C152.944,-6.814 151.644,-5.561 151.644,-3.937C151.644,-2.619 152.801,-1.334 154.15,-1.913C154.681,-2.154 154.681,-1.382 154.392,-0.852C154.006,-0.129 153.234,0.16 152.366,0.16L1.173,0.16L-9.498,0.16L-160.691,0.16C-161.559,0.16 -162.331,-0.129 -162.7,-0.852C-162.989,-1.382 -162.989,-2.154 -162.459,-1.913C-161.109,-1.334 -159.968,-2.619 -159.968,-3.937C-159.968,-5.561 -161.27,-6.814 -162.797,-7.247C-165.448,-7.954 -167.842,-5.737 -167.891,-3.118C-167.922,-1.783 -167.537,-0.611 -166.862,0.369C-170.365,-1.543 -173.949,-2.716 -177.42,-3.294C-177.79,-4.563 -178.722,-5.641 -179.943,-6.38C-182.804,-8.115 -186.676,-7.296 -188.46,-4.661C-188.878,-4.114 -189.135,-3.487 -189.28,-2.893C-190.55,-2.588 -191.803,-2.186 -193.024,-1.72C-195.662,-0.714 -198.179,0.608 -200.467,2.218C-205.931,6.063 -210.091,11.552 -211.473,18.302C-211.826,20.038 -211.971,21.772 -211.891,23.509C-214.333,19.989 -218.19,22.641 -217.756,24.376C-217.37,25.935 -215.731,26.096 -214.767,26.159C-213.643,26.224 -213.465,27.782 -213.851,30.017C-214.591,34.563 -216.873,39.946 -224.361,45.427C-228.941,48.801 -234.694,50.103 -240.158,49.154C-245.847,48.158 -251.97,44.895 -252.243,38.581C-252.419,34.388 -248.98,31.189 -244.963,30.739C-241.636,30.386 -238.149,31.655 -236.638,34.772C-236.333,35.416 -236.156,36.09 -236.237,36.878C-236.301,37.585 -236.575,38.082 -236.575,38.082C-237.297,37.183 -238.053,36.669 -238.744,36.38C-241.283,35.319 -243.982,37.183 -244.271,39.851C-244.32,40.284 -244.288,40.719 -244.191,41.168C-243.581,43.53 -241.235,44.8 -238.889,44.72C-234.807,44.622 -231.368,41.474 -231.143,37.359C-230.773,30.145 -237.925,26.224 -244.914,26.754C-251.536,27.269 -257.128,31.913 -257.063,38.597C-256.968,47.563 -248.499,52.642 -240.319,53.701C-233.955,54.521 -227.301,52.994 -221.693,49.62C-219.507,48.303 -218.271,47.161 -218.271,47.161C-217.451,48.801 -215.731,49.909 -214.381,50.568C-213.755,50.905 -213.208,51.355 -212.983,51.629C-212.887,51.726 -212.807,51.741 -212.646,51.693C-212.228,51.452 -211.891,50.745 -211.585,50.568C-209.656,49.331 -209.126,47.516 -209.126,47.516C-208.178,48.11 -207.294,48.303 -206.539,48.27C-205.688,48.175 -204.996,47.917 -204.53,47.644C-204.225,47.419 -203.968,46.985 -204.418,46.712C-207.648,45.169 -208.87,42.646 -210.059,39.288C-211.039,36.412 -210.541,33.423 -210.46,30.418C-208.934,34.194 -206.218,37.52 -202.715,40.478C-197.09,45.281 -189.376,46.165 -182.048,45.522C-174.608,44.574 -170.381,41.023 -165.223,38.709C-161.623,37.07 -158.457,36.026 -157.397,36.878C-156.77,37.376 -156.352,36.348 -156.562,35.849C-157.268,34.13 -160.145,33.326 -160.145,33.326C-157.638,32.362 -157.413,29.614 -157.509,28.265C-157.509,27.734 -156.946,26.851 -156.946,26.851C-157.461,26.465 -158.586,26.851 -159.229,26.851C-164.371,26.643 -172.438,37.729 -172.438,37.729C-169.803,33.391 -168.742,29.662 -168.727,26.465C-168.678,21.629 -171.025,17.515 -174.528,14.88C-177.693,12.533 -181.775,11.377 -185.986,11.939C-187.625,12.163 -189.215,12.662 -190.63,13.433C-193.137,14.863 -195.306,17.418 -195.837,20.294C-197.25,27.976 -190.935,32.298 -186.114,32.556C-182.98,32.539 -181.582,30.273 -180.892,29.148C-180.666,28.683 -180.425,27.96 -181.132,27.799C-184.62,27.044 -186.854,23.412 -185.52,20.455C-183.8,17.354 -180.12,17.242 -177.999,18.929C-175.878,20.472 -171.683,23.348 -173.532,31.366C-175.203,39.176 -184.009,41.778 -190.662,41.023C-198.327,40.172 -204.402,34.483 -206.635,27.204C-209.817,16.872 -202.795,7.214 -193.491,3.02C-191.916,2.313 -190.292,1.783 -188.638,1.382C-188.139,2.217 -187.464,2.908 -186.58,3.438C-183.752,5.126 -179.895,4.322 -178.063,1.687C-177.934,1.494 -177.79,1.285 -177.726,1.076C-173.676,1.687 -169.738,3.148 -166.09,5.495C-158.04,10.653 -153.009,18.366 -151.804,26.433C-150.647,33.953 -153.139,42.421 -157.862,48.447C-161.784,53.429 -167.199,56.738 -173.371,56.481C-179.863,56.208 -182.819,53.493 -182.048,51.87C-181.245,50.697 -182.209,49.476 -183.173,49.219C-185.439,48.687 -186.741,49.797 -187.399,51.757C-187.85,53.155 -186.917,55.631 -185.005,57.574C-182.53,60.161 -178.834,61.142 -175.138,61.27C-168.614,61.511 -163.166,59.664 -158.875,56.449C-158.971,56.916 -159.036,57.43 -159.004,57.928C-158.971,60.562 -156.577,62.781 -153.925,62.073C-152.399,61.624 -151.082,60.387 -151.082,58.748C-151.082,57.445 -152.238,56.16 -153.588,56.738C-154.118,56.979 -154.118,56.208 -153.829,55.679C-153.46,54.955 -152.688,54.666 -151.82,54.666L0,54.666Z" style="fill:rgb(35,31,32);fill-rule:nonzero;"/>
                </g>
                <g transform="matrix(1,0,0,1,392.667,379.667)">
                    <path d="M0,47.854L-144.348,47.854C-145.087,47.854 -145.794,47.966 -146.485,48.143C-141.102,41.33 -138.771,31.785 -139.913,22.882C-141.021,14.318 -145.923,6.042 -154.778,-0.289C-154.263,-0.176 -153.765,-0.128 -153.235,-0.128L159.919,-0.128C160.45,-0.128 160.963,-0.176 161.478,-0.289C152.624,6.042 147.707,14.318 146.597,22.882C145.472,31.785 147.802,41.33 153.169,48.143C152.495,47.966 151.788,47.854 151.049,47.854L6.685,47.854L0,47.854Z" style="fill:rgb(67,93,123);fill-rule:nonzero;"/>
                </g>
            </g>
            <g transform="matrix(0.339354,0,0,0.380885,62.9905,-50.9829)">
                <text x="588.184px" y="1241.22px" style="font-family:'Rockwell-Bold', 'Rockwell', serif;font-weight:700;font-size:129.583px;fill:rgb(250,243,216);stroke:rgb(13,13,13);stroke-width:6.93px;stroke-linejoin:round;stroke-miterlimit:1.41421;">M<tspan x="729.333px " y="1241.22px ">u</tspan>si<tspan x="931.523px " y="1241.22px ">c</tspan> S<tspan x="1114.43px 1163px 1240.38px 1302.42px " y="1241.22px 1241.22px 1241.22px 1241.22px ">tore</tspan></text>
            </g>
        </g>
    </g>
</svg>
