<?xml version="1.0" encoding="utf-8"?>
<!-- Generator: Adobe Illustrator 16.0.3, SVG Export Plug-In . SVG Version: 6.00 Build 0)  -->
<!DOCTYPE svg PUBLIC "-//W3C//DTD SVG 1.1 Tiny//EN" "http://www.w3.org/Graphics/SVG/1.1/DTD/svg11-tiny.dtd">
<svg version="1.1" baseProfile="tiny" id="Calque_1"
	 xmlns="http://www.w3.org/2000/svg" xmlns:xlink="http://www.w3.org/1999/xlink" x="0px" y="0px" width="153px" height="92px"
	 viewBox="0 0 153 92" xml:space="preserve">
<g>
	<path fill="none" d="M34.015,53.93c-0.11-0.396-0.396-0.594-0.683-0.132c-0.209,0.338-2.886,5.618-3.084,6.059
		c-0.198,0.44-0.242,0.814,0.242,1.035c0.639,0.309,5.067,2.093,5.596,2.313s0.859,0.088,0.617-0.705
		C36.46,61.707,34.125,54.327,34.015,53.93z"/>
	<path fill="none" d="M73.239,70.494c-0.11-0.396-0.732-0.684-1.018-0.221c-0.209,0.337-2.617,4.778-2.815,5.219
		c-0.198,0.44-0.243,0.815,0.242,1.036c0.639,0.308,5.585,2.253,6.114,2.474c0.529,0.22,0.756,0.056,0.514-0.737
		C76.033,77.471,73.349,70.89,73.239,70.494z"/>
	<path fill="none" d="M92.329,70.045c0.088,0.121,0.398,0.144,1.081-0.143c0.683-0.287,2.864-0.903,5.397-2.997
		c2.533-2.093,2.666-3.899,2.225-5.618c-0.44-1.718-2.137-2.709-3.767-2.004c-1.63,0.705-4.12,1.674-4.384,1.784
		c-0.264,0.11-0.661,0.418-0.683,0.903c0,0.903-0.005,6.938,0,7.226C92.208,69.736,92.241,69.924,92.329,70.045z"/>
	<path fill="#3A3A3A" d="M1.167,60.936c0.573-0.485,1.278,0.243,1.564,0.617c0.286,0.374,1.035,1.167,1.828,1.96
		c0.793,0.793,3.128,2.357,4.803,3.106c1.674,0.75,3.635,1.3,5.31,1.476c1.674,0.177,3.327-0.198,4.648-0.991
		c1.322-0.793,2.776-2.203,3.437-4.935c0.661-2.731-0.44-4.714-1.454-6.037c-1.013-1.321-4.054-3.965-5.596-5.243
		c-1.542-1.278-4.318-3.481-5.419-4.495c-1.101-1.013-1.586-1.542-1.63-2.511c-0.039-0.85,0.793-1.982,2.776-2.247
		s5.023,1.013,6.741,2.644s1.058,2.864,0.749,3.833l0.749,0.793L23.727,46c-1.322-1.939-4.692-4.638-6.499-5.563
		c-1.44-0.737-3.591-1.443-6.455-1.575c-2.603-0.12-4.935,0.969-6.168,2.335c-1.234,1.366-1.542,3.084-0.793,5.507
		c0.654,2.117,3.833,4.539,6.301,6.433c2.747,2.11,5.855,5.195,6.652,6.081c1.19,1.322,1.807,3.437,0.705,4.714
		c-1.101,1.278-2.908,1.146-3.921,1.014c-1.014-0.132-2.864-0.528-4.539-1.586c-1.674-1.058-2.477-1.923-2.886-2.666
		c-0.484-0.881-0.505-1.783,0.022-2.225c0.551-0.462,0.419-0.947,0.331-1.167c-0.132-0.33-0.616-0.815-1.255-0.463
		C4.738,57.104,1.013,59.394,0,60.098C0.639,61.112,0.85,61.204,1.167,60.936z"/>
	<path fill="#3A3A3A" d="M37.253,49.039c-0.82-0.314-3.44-1.35-3.701-1.454c-0.261-0.104-0.617-0.265-1.014,0.44
		s-9.818,18.788-10.222,19.557c-0.342,0.65-0.595,0.925-0.975,1.008c-0.548,0.12-0.909,0.05-1.173,0.678
		c-0.149,0.353,0.023,1.208,1.081,1.604c1.057,0.396,4.227,1.615,5.169,2.045c0.942,0.429,1.096-0.923,0.656-1.363
		c-0.441-0.44-2.027-1.498-1.102-3.172s1.938-3.745,2.071-3.965s0.309-1.146,1.719-0.573c1.41,0.573,6.829,2.6,7.667,2.996
		c0.836,0.396,0.969,1.057,1.233,1.85c0.265,0.793,1.762,5.464,1.983,6.213c0.22,0.749-0.221,1.058-0.573,1.102
		c-0.353,0.044-0.75,0.088-1.014,0.132s-0.484,0.481-0.484,0.793c0,0.352-0.132,0.705,0.881,1.058l9.077,3.657
		c0.353-0.308,0.573-1.366-0.088-1.983c-0.661-0.616-1.195-0.578-1.674-2.214c-0.415-1.418-8.593-27.084-8.658-27.312
		C38.046,49.904,37.914,49.292,37.253,49.039z M36.085,63.205c-0.529-0.22-4.957-2.004-5.596-2.313
		c-0.484-0.221-0.44-0.595-0.242-1.035c0.198-0.441,2.875-5.721,3.084-6.059c0.286-0.462,0.572-0.264,0.683,0.132
		c0.11,0.397,2.445,7.777,2.688,8.57C36.945,63.293,36.614,63.425,36.085,63.205z"/>
	<path fill="#3A3A3A" d="M53.478,57.224c0.628,0,0.397-0.793,0.364-1.058c-0.033-0.264-0.04-0.572-0.463-0.76
		c-0.422-0.188-8.862-3.483-9.318-3.667c-0.397-0.161-0.496,0.033-0.562,0.793c-0.066,0.76,0.694,1.189,0.991,1.454
		c0.528,0.47,1.058,1.024,1.354,2.412c0.297,1.388,5.816,23.892,6.246,25.511c0.43,1.619,1.355,1.883,1.851,2.049
		c0.496,0.165,1.223,0.562,1.718,0.595c0.496,0.033,0.793-0.826,1.19-1.619c0.396-0.793,9.352-18.605,9.682-19.266
		c0.331-0.661,1.289-0.529,1.851-0.43s0.528-0.595,0.528-0.826s0.004-0.84-0.627-1.09c-0.632-0.251-5.012-1.981-6.081-2.446
		c-1.068-0.464-0.892,0.331-0.958,0.694c-0.066,0.363-0.066,0.661,0.1,0.727c0.165,0.066,0.198,0.099,0.991,0.562
		c0.793,0.463,0.694,1.355,0.396,2.049c-0.297,0.694-5.221,10.872-5.915,12.293s-0.826,0.76-0.958,0.165
		c-0.132-0.595-3.701-15.994-3.833-16.985C51.892,57.389,52.851,57.224,53.478,57.224z"/>
	<path fill="#3A3A3A" d="M87.011,84.188c0,0.925-0.231,2.049-1.058,2.247s-1.454-0.496-1.785-1.421s-7.567-19.034-7.732-19.397
		c-0.166-0.364-0.442-1.129-1.223-1.487c-0.781-0.358-1.963-0.772-2.115-0.859c-0.152-0.087-0.793-0.364-1.189,0.43
		c-0.397,0.793-9.914,19.265-10.344,19.992c-0.429,0.727-0.727,0.76-1.124,0.694s-1.09-0.132-1.058,0.661
		c0.033,0.793,0.147,0.961,0.529,1.124l5.981,2.38c0.297,0.132,0.452-0.408,0.496-0.727c0.044-0.32,0.165-0.562-0.264-0.892
		c-0.43-0.331-0.859-0.595-1.256-0.893s-0.297-0.76-0.066-1.289c0.231-0.529,2.28-4.692,2.412-4.924
		c0.132-0.231,0.363-0.463,0.562-0.529c0.198-0.066,0.562,0.033,1.024,0.198c0.462,0.165,7.865,2.974,8.162,3.106
		c0.298,0.132,1.024,0.363,1.388,1.322s1.223,3.205,1.388,3.668c0.166,0.462,0.066,0.925-0.231,1.124
		c-0.297,0.198-1.124,0.595-1.421,0.76c-0.298,0.165-0.363,0.661-0.331,1.09c0.033,0.429,0.165,0.694,0.331,0.76
		c0.165,0.066,3.53-1.197,4.824-1.718s10.409-4.197,10.872-4.428c0.462-0.231,0.364-0.991,0.364-1.222
		c0-0.231-0.099-0.595-0.099-0.595s-0.066-0.33-0.628-0.198c-0.562,0.132-1.454,0.43-1.42-1.553
		c0.033-1.982,0.099-6.312,0.132-6.874c0.033-0.562-0.033-0.892,0.132-1.057c0.165-0.166,0.991-0.562,1.454-0.76
		c0.463-0.198,1.322-0.595,1.652-0.528c0.331,0.065,0.628,0.462,0.925,0.826c0.298,0.363,7.237,8.03,7.237,8.03
		s25.742-10.353,26.139-10.509c0.397-0.156,0.628-0.264,0.727-0.396s0.033-0.694,0.033-1.256s-0.099-2.875-0.099-3.106
		s-0.066-0.694-0.529-0.496c-0.463,0.198-1.024,0.529-1.124,0.793c-0.099,0.265-0.364,1.322-0.76,1.751
		c-0.397,0.43-0.76,0.628-1.454,0.958s-8.902,3.571-8.902,3.571s-0.219,0.099-0.496,0.198c-0.209,0.075-0.428,0.196-0.628,0.099
		c-0.319-0.154-0.297-0.826-0.297-1.52v-7.912c0-0.815,0.176-1.013,0.969-1.41s6.644-2.743,6.644-2.743
		c0.463-0.132,0.793,0.099,0.958,0.264c0.165,0.166,0.528,0.562,0.793,0.628c0.265,0.066,0.923-0.242,1.232-0.497
		c0-0.925-0.009-6.575-0.009-6.575c-0.43-0.198-0.76-0.066-1.024,0.132s-0.595,0.694-0.727,1.124
		c-0.132,0.43-0.373,0.933-0.628,1.057c-0.496,0.242-1.29,0.566-1.707,0.733c-0.606,0.242-4.799,2.042-5.36,2.251
		c-0.294,0.109-1.128,0.618-1.128-0.373c0-0.992-0.033-5.287-0.033-5.651c0-0.363,0.099-0.958,0.661-1.157
		c0.562-0.198,8.856-3.37,9.154-3.469c0.297-0.1,0.727-0.066,0.925,0.066s0.429,0.331,0.528,0.562
		c0.1,0.231,0.463,0.265,0.628,0.198c0.165-0.066,0.562-0.165,0.76-0.264s0.265-0.363,0.265-0.893c0-0.528,0.141-3.249,0.141-3.48
		s-0.033-0.859-1.057-0.396c-1.024,0.462-17.851,7.196-18.613,7.479c-0.764,0.282-0.628,0.76-0.661,0.991
		c-0.033,0.231-0.198,1.09,0.595,0.892s1.454-0.462,1.487,0.628c0.033,1.09,0.021,20.488-0.013,21.38s-0.042,1.366-1.243,2.016
		c-1.201,0.65-1.982,1.487-3.8-0.43s-4.825-5.717-5.287-6.411c1.124-0.76,3.139-2.479,3.965-3.271s2.578-2.578,2.61-5.519
		c0.033-2.941-1.718-4.56-2.181-4.99c-0.462-0.43-2.213-1.388-3.337-1.421c-1.124-0.033-2.494,0.31-3.8,0.826
		c-1.306,0.516-11.998,4.844-12.458,5.023c-0.46,0.178-0.728,0.562-0.728,0.76v0.826c0,0.198,0.132,0.429,0.529,0.364
		c0.396-0.066,1.157-0.397,1.553,0.099c0.396,0.496,0.331,1.686,0.331,2.776C87.077,66.641,87.011,83.263,87.011,84.188z M75.762,79
		c-0.528-0.22-5.475-2.166-6.114-2.474c-0.485-0.221-0.44-0.595-0.242-1.036c0.198-0.441,2.606-4.881,2.815-5.219
		c0.286-0.463,0.908-0.175,1.018,0.221c0.11,0.396,2.794,6.977,3.036,7.77C76.518,79.057,76.291,79.221,75.762,79z M92.199,61.971
		c0.022-0.485,0.418-0.793,0.683-0.903c0.265-0.11,2.754-1.08,4.384-1.784c1.63-0.705,3.327,0.286,3.767,2.004
		c0.44,1.719,0.308,3.525-2.225,5.618c-2.533,2.093-4.714,2.71-5.397,2.997c-0.683,0.286-0.993,0.264-1.081,0.143
		c-0.088-0.121-0.121-0.309-0.13-0.848C92.194,68.91,92.199,62.875,92.199,61.971z"/>
	<path fill="#3A3A3A" d="M152.295,54.502c-0.44,0.132-0.969,0.132-1.102,0.97c-0.132,0.837-0.661,2.379-1.278,3.128
		c-0.617,0.749-3.26,2.423-4.891,3.04c-1.63,0.617-4.142,1.498-4.494,1.586s-0.528,0.177-0.705,0.044
		c-0.176-0.132,0-0.529,0.132-0.882c0.132-0.352,11.324-24.542,11.324-24.542v-2.952c0-0.22,0.103-0.835-0.705-0.485
		c-0.808,0.35-18.065,7.314-18.065,7.314l-0.088,5.86c0,0.793,0.586,0.49,0.837,0.396c0.352-0.132,0.749-0.308,0.969-0.836
		c0.22-0.529,0.925-2.468,1.983-3.217s2.93-1.917,4.626-2.511c1.696-0.595,2.555-0.75,2.952-0.837
		c0.396-0.088,1.233-0.353,0.793,0.661c-0.441,1.014-11.015,22.824-11.323,23.573c-0.309,0.749-0.441,1.013-0.441,1.674
		s0.132,2.203,0.132,2.512c0,0.308,0.336,0.305,0.882,0.088c0,0,18.152-7.33,18.549-7.491c0.398-0.16,0.573-0.44,0.573-1.057
		S153,55.56,153,55.12S152.735,54.371,152.295,54.502z"/>
	<polygon fill="#BF2C43" points="0.639,0 0.639,27 76.798,58.415 153,27 153,0 	"/>
</g>
</svg>
