<?xml version="1.0" encoding="UTF-8" standalone="no"?><!DOCTYPE svg PUBLIC "-//W3C//DTD SVG 1.1//EN" "http://www.w3.org/Graphics/SVG/1.1/DTD/svg11.dtd"><svg width="100%" height="100%" viewBox="0 0 1030 1360" version="1.1" xmlns="http://www.w3.org/2000/svg" xmlns:xlink="http://www.w3.org/1999/xlink" xml:space="preserve" xmlns:serif="http://www.serif.com/" style="fill-rule:evenodd;clip-rule:evenodd;stroke-linecap:round;stroke-linejoin:round;stroke-miterlimit:1.5;"><g><rect x="-0.002" y="0" width="1030.25" height="1360.3" style="fill:none;"/><g><path d="M987.838,115.272c0,-42.261 -34.306,-76.57 -76.563,-76.57l-792.775,0c-42.261,0 -76.571,34.309 -76.571,76.57l0,1123.46c0,42.261 34.31,76.571 76.571,76.571l792.775,0c42.257,0 76.563,-34.31 76.563,-76.571l0,-1123.46Z" style="fill:#002957;stroke:#43556b;stroke-width:3.54px;"/><g><path d="M124.999,25l777.85,0c55.233,0 100,44.787 100,100.028l0,1105.91c0,22.54 -7.454,43.341 -20.029,60.067c-18.246,24.269 -47.275,39.961 -79.971,39.961l-777.85,0c-55.233,0 -100,-44.783 -100,-100.028l0,-1105.91c0,-55.241 44.767,-100.028 100,-100.028Z" style="fill:#002957;stroke:#fff;stroke-width:33.34px;stroke-linecap:square;stroke-linejoin:miter;stroke-miterlimit:1.41421;"/><path d="M614.982,1031.4c0.565,-25.28 13.181,-47.462 32.234,-61.177c13.177,-9.485 29.433,-14.919 46.913,-14.529c42.756,0.957 76.638,36.404 75.681,79.176c-0.956,42.76 -36.39,76.66 -79.146,75.7c-42.752,-0.96 -76.639,-36.4 -75.682,-79.17Zm0.17,-203.492c-2.967,-42.664 29.214,-79.657 71.874,-82.624c42.664,-2.968 79.653,29.214 82.62,71.878c2.968,42.663 -29.21,79.652 -71.873,82.619c-42.661,2.968 -79.654,-29.21 -82.621,-71.873Zm-23.757,-214.277c-7.248,-42.16 21.045,-82.214 63.189,-89.459c42.15,-7.247 82.191,21.058 89.44,63.219c7.248,42.16 -21.042,82.209 -63.191,89.455c-42.144,7.246 -82.189,-21.054 -89.438,-63.215Zm-49.506,-196.517c-14.154,-40.373 7.092,-84.567 47.446,-98.715c40.359,-14.149 84.553,7.103 98.708,47.477c14.152,40.366 -7.097,84.564 -47.455,98.713c-40.355,14.148 -84.547,-7.109 -98.699,-47.475Z" style="fill:#002957;stroke:#fff;stroke-width:33.33px;stroke-linecap:butt;stroke-linejoin:miter;stroke-miterlimit:1.41421;"/><path d="M903.719,1330.96c0,0 20.083,-106.351 -218.763,-166.447c0,0 1.613,-21.193 7.567,-69.315" style="fill:#002957;stroke:#fff;stroke-width:33.34px;stroke-linecap:butt;stroke-linejoin:miter;stroke-miterlimit:1.41421;"/><path d="M692.397,972.299c5.326,-39.422 0.744,-82.483 0.003,-88.499l-0.003,88.499Zm0,-215.381c-3.693,-29.952 -6.533,-54.547 -14.346,-93.854l14.346,93.854Zm-55.156,-288.343c0,0 19.76,71.48 13.661,47.49c-2.735,-10.754 -10.642,-36.795 -13.661,-47.49Z" style="fill:#002957;stroke:#fff;stroke-width:33.33px;stroke-linecap:butt;stroke-linejoin:miter;stroke-miterlimit:1.41421;"/><path d="M589.333,336.713c-9.139,-21.094 -13.997,-33.638 -24.773,-53.799c-4.16,-7.793 -8.448,-15.502 -12.87,-23.127c-11.661,-20.117 -24.228,-39.634 -37.768,-58.406c348.255,-19.104 435.036,-146.923 435.036,-146.923" style="fill:#002957;stroke:#fff;stroke-width:33.33px;stroke-linecap:butt;stroke-linejoin:miter;stroke-miterlimit:1.41421;"/></g></g></g></svg>