<?xml version="1.0" encoding="UTF-8" standalone="no"?><!DOCTYPE svg PUBLIC "-//W3C//DTD SVG 1.1//EN" "http://www.w3.org/Graphics/SVG/1.1/DTD/svg11.dtd"><svg width="100%" height="100%" viewBox="0 0 359 372" version="1.1" xmlns="http://www.w3.org/2000/svg" xmlns:xlink="http://www.w3.org/1999/xlink" xml:space="preserve" xmlns:serif="http://www.serif.com/" style="fill-rule:evenodd;clip-rule:evenodd;stroke-linejoin:round;stroke-miterlimit:1.41421;"><rect id="Artboard1" x="0" y="0" width="359" height="372" style="fill:none;"/><clipPath id="_clip1"><rect id="Artboard11" serif:id="Artboard1" x="0" y="0" width="359" height="372"/></clipPath><g clip-path="url(#_clip1)"><g><path d="M159.32,55.68l-157.68,70.08l5.76,23.04l96.48,-8.4l-81.84,55.2l2.88,35.04l105.12,-14.64l-116.88,76.08l8.88,32.16l84.72,-20.4l-54.24,36l24.96,31.2l265.92,-96.48l-14.64,-43.92l-58.32,14.88l61.2,-61.68l-11.52,-35.04l-62.4,13.68l44.88,-48.48l-8.88,-43.92l-55.44,17.76l43.2,-48.24l-19.92,-39.6l-102.24,55.68Z" style="fill:#bfff7f;fill-rule:nonzero;"/><path d="M161.24,75.12l-133.92,59.52l4.8,19.68l82.08,-7.44l-69.6,47.28l2.4,29.76l89.52,-12.24l-99.36,64.32l7.44,27.36l72,-17.28l-46.08,30.48l21.12,26.64l226.08,-81.84l-12.48,-37.44l-49.68,12.48l52.32,-52.32l-10.08,-29.76l-53.04,11.52l38.4,-41.04l-7.68,-37.2l-47.28,14.64l36.96,-40.56l-17.04,-33.84l-86.88,47.28Z" style="fill:#3fff9e;fill-rule:nonzero;"/><path d="M114.44,45.84l2.88,0.24l2.64,0.48l2.64,0.48l2.88,0.72l2.64,0.72l2.64,0.24l2.64,0.24l2.88,0l1.92,1.2l0.96,1.2l0,1.44l-0.48,1.44l-0.96,1.44l-1.2,1.44l-0.72,1.44l-0.48,1.2l-2.88,5.04l-2.4,5.28l-2.16,5.28l-2.16,5.28l-2.16,5.28l-2.4,5.28l-2.64,5.04l-2.88,5.04l-1.68,1.2l-1.68,1.44l-1.68,0.96l-1.92,0.72l-1.92,0.72l-1.92,0.24l-1.68,0.24l-2.16,-0.48l-1.2,-0.24l-1.2,-0.48l-1.2,-0.72l-1.2,-0.96l-0.96,-0.72l-0.96,-0.96l-0.72,-0.96l-0.48,-0.96l-0.48,-1.92l-0.24,-1.68l-0.24,-1.92l0,-1.92l0.96,-1.68l0.96,-1.44l1.44,-0.96l1.44,-0.96l1.68,-0.72l1.44,-0.48l1.68,-0.72l1.44,-0.72l1.68,0.48l1.44,0.24l1.44,0.72l1.2,0.48l1.44,0.72l1.2,0.72l1.44,0.72l1.2,0.48l1.44,-1.92l0.96,-2.4l0.96,-2.16l0.96,-2.4l0.72,-2.4l0.96,-2.16l0.48,-2.64l0.24,-2.16l-1.68,-1.44l-1.68,-0.96l-1.92,-0.96l-1.68,-0.96l-1.92,-0.72l-1.92,-0.48l-2.16,-0.48l-1.92,-0.24l-1.92,-0.48l-2.16,-0.24l-2.16,0l-1.92,0l-1.92,0l-2.16,0l-1.92,0l-1.92,0l-1.44,3.84l-1.44,4.08l-1.2,4.08l-1.44,4.08l-1.92,3.6l-2.64,3.12l-3.36,2.16l-4.56,0.96l-1.92,0l-1.68,-0.48l-1.92,-0.72l-1.44,-1.2l-1.44,-1.2l-1.2,-1.44l-0.96,-1.44l-0.96,-1.44l-0.72,-1.68l-0.24,-1.44l0,-1.44l0.48,-1.2l0.48,-1.2l0.72,-0.96l0.48,-0.96l0.96,-0.96l0.72,-0.72l1.2,-0.72l0.96,-0.72l0.96,-0.48l1.92,-0.48l1.92,-0.48l5.76,0l1.92,0.48l1.68,0.72l1.68,0.96l1.44,-3.12l1.44,-3.12l1.2,-3.12l1.2,-3.36l1.2,-3.12l1.2,-3.36l1.2,-3.12l1.44,-3.12l0,-1.44l0.24,-1.44l0.48,-1.44l0.96,-0.72l0.24,-0.24l0.72,0l0.72,0.24l19.44,5.04Z" style="fill-rule:nonzero;"/><path d="M76.52,73.44l1.68,1.68l0,1.92l-0.48,1.92l-0.48,1.68l-0.72,1.2l-0.96,1.2l-1.2,0.72l-1.44,0.48l-1.2,0.48l-1.44,0.24l-1.2,-0.48l-1.44,-0.48l-0.96,-1.44l-0.72,-1.68l-0.24,-1.68l0.48,-1.68l1.2,-0.72l0.96,-0.96l1.2,-0.72l1.44,-0.72l1.2,-0.72l1.44,-0.24l2.88,0Z" style="fill:#7f7fff;fill-rule:nonzero;"/><path d="M130.52,53.76l-0.48,1.92l-0.96,1.92l-0.96,1.68l-0.96,1.68l-0.96,1.68l-1.2,1.44l-0.96,1.68l-0.96,1.68l-2.88,-1.92l-3.36,-1.68l-3.36,-1.2l-3.6,-0.96l-3.6,-0.72l-3.84,-0.72l-3.84,-0.24l-3.6,-0.24l-1.92,-0.96l5.04,-12l1.92,0.48l2.16,0.48l1.92,0.72l1.92,0.24l2.16,0.72l1.92,0.24l1.92,0.48l2.16,0.24l2.16,0.24l1.92,0.48l2.16,0.24l2.16,0.48l1.92,0.24l1.92,0.72l2.16,0.48l1.92,0.48Z" style="fill:#7f7fff;fill-rule:nonzero;"/><path d="M108.2,92.16l1.92,1.68l-0.24,1.92l-0.96,1.68l-0.24,2.4l-0.72,0.48l-0.96,0.24l-0.72,0.72l-0.72,0.24l-0.72,0.48l-0.96,0.24l-0.96,0l-0.96,0l-1.68,-1.92l-0.96,-1.68l-0.72,-1.92l0.24,-2.4l0.72,-1.2l0.96,-0.72l1.44,-0.96l1.2,-0.72l1.2,-0.24l1.44,0l1.2,0.48l1.2,1.2Z" style="fill:#7f7fff;fill-rule:nonzero;"/><path d="M145.88,146.64l2.64,0l1.2,0.48l1.2,0.48l0.96,0.72l0.96,0.48l1.2,0.48l1.2,0.48l0.72,-7.2l0.96,-6.96l0.96,-7.2l0.96,-6.96l0.72,-7.2l0.48,-7.44l0,-7.44l-0.48,-7.44l2.4,-1.92l2.88,-0.72l3.12,0l3.12,0.24l3.12,0.24l3.12,0l3.12,-0.72l2.64,-2.16l1.92,0l0.96,0.48l0.72,0.72l0.48,4.8l-0.48,4.32l-0.72,4.08l-0.96,4.32l-1.2,4.32l-0.72,4.08l-0.48,4.32l0.24,4.8l-0.48,0.96l-0.48,0.24l-0.48,0.48l-0.72,0l-0.96,0l-0.96,0l-0.72,0l-0.96,0.24l-0.96,-1.44l-1.44,-0.72l-1.44,-0.24l-1.68,0l-1.68,0l-1.68,0l-1.2,0l-1.2,-0.48l-1.68,6.48l-0.96,6.48l-0.72,6.96l-0.48,6.96l-0.72,7.2l-0.96,6.72l-1.92,6.96l-2.64,6l-1.2,2.16l-1.68,1.68l-1.44,1.2l-1.92,0.96l-2.16,0.72l-2.16,0.48l-2.16,0l-1.68,0l-2.16,-1.68l-1.44,-2.64l-0.96,-2.64l-0.48,-2.88l0,-2.64l0.48,-3.12l0.24,-3.12l0.48,-2.88l0.24,-1.92l0.48,-2.4l0.72,-1.68l1.2,-2.16l1.2,-1.68l1.2,-1.92l1.68,-1.44l1.68,-1.68Z" style="fill-rule:nonzero;"/><path d="M147.32,153.6l1.92,0.96l1.44,0.96l1.44,1.68l0.72,1.92l-0.48,2.4l-0.24,2.4l-0.48,2.4l-0.48,2.4l-0.72,2.16l-0.96,2.4l-1.2,2.16l-1.44,2.16l-1.92,-1.2l-0.96,-1.44l-0.48,-1.92l0,-2.4l0.24,-2.16l0.24,-2.16l0.24,-2.4l-0.24,-1.92l3.36,-8.4Z" style="fill:#f00;fill-rule:nonzero;"/><path d="M167.24,95.04l1.68,0.24l1.44,0.24l1.44,0l1.68,-0.24l1.68,-0.24l3.12,0l1.68,-0.24l-0.24,5.52l-1.44,5.28l-1.2,5.52l-0.48,5.76l-1.2,-0.24l-0.96,-0.24l-1.2,0l-1.44,-0.24l-1.44,-0.24l-1.44,0l-1.44,0.24l-1.44,0.24l1.2,-21.36Z" style="fill:#f00;fill-rule:nonzero;"/><path d="M100.04,358.56l-3.36,-0.24l-3.6,0l-3.36,-0.48l-3.6,-0.72l-3.36,-0.72l-3.6,-0.96l-3.36,-1.2l-3.6,-1.2l-3.12,-1.44l-3.36,-1.44l-3.36,-1.68l-2.88,-1.68l-3.12,-1.92l-2.88,-1.92l-2.88,-2.16l-2.64,-1.92l-1.68,-1.44l-1.2,-1.44l-1.2,-1.68l-1.2,-1.44l-0.96,-1.44l-1.2,-1.44l-1.44,-1.68l-1.44,-1.2l-2.88,-4.32l-2.88,-4.56l-2.64,-4.56l-2.4,-4.8l-2.16,-4.8l-1.68,-4.8l-0.96,-5.04l-0.72,-5.04l0.48,-7.44l1.2,-6.96l2.16,-7.44l2.88,-6.96l3.6,-6.72l4.08,-6.24l4.56,-5.76l5.04,-5.28l2.64,-1.92l3.12,-2.16l3.12,-1.68l3.36,-1.44l3.12,-1.68l3.36,-1.2l3.6,-1.44l3.36,-1.2l3.12,-1.44l3.36,-1.2l3.36,-1.44l3.36,-1.68l3.12,-1.68l3.36,-1.92l2.88,-1.92l2.88,-2.64l4.08,-4.08l3.6,-4.8l3.36,-4.8l3.12,-5.04l3.12,-4.8l3.6,-4.8l4.08,-3.84l5.04,-3.36l2.64,-1.92l2.64,-1.68l2.64,-1.2l2.88,-1.2l2.88,-0.96l2.88,-0.48l2.88,-0.48l2.88,-0.48l2.88,-0.24l3.12,0l2.64,0.24l3.12,0.24l2.88,0.24l2.88,0.48l3.12,0.48l2.88,0.72l11.04,4.56l3.6,-3.36l3.6,-3.6l3.6,-3.36l3.36,-3.36l3.6,-3.36l3.36,-3.6l3.6,-3.6l3.36,-3.6l3.36,-3.36l3.36,-3.6l3.36,-3.6l3.36,-3.6l3.36,-3.6l3.12,-3.6l3.36,-3.84l3.12,-3.84l2.88,-3.6l2.88,-3.6l2.88,-3.36l3.12,-3.36l3.12,-3.6l3.12,-3.36l3.12,-3.36l3.12,-3.6l3.12,-3.12l3.12,-3.36l3.12,-3.36l3.36,-3.36l2.88,-3.36l3.36,-3.12l3.12,-3.6l3.36,-3.12l-0.96,-2.16l-1.2,-1.44l-1.44,-1.68l-0.72,-1.92l1.68,-2.4l1.92,-2.4l2.16,-2.4l2.16,-2.4l1.92,-2.16l2.4,-2.16l2.16,-2.16l2.16,-2.16l2.16,-2.16l2.4,-2.16l1.92,-2.16l2.4,-2.16l1.92,-2.4l1.92,-2.16l1.92,-2.64l1.92,-2.4l1.2,-0.96l0.96,-0.48l0.96,-0.24l0.96,0l0.96,0.48l0.72,0.48l0.96,0.96l0.96,0.72l0.96,0.72l0.96,0.72l0.72,0.72l0.96,0.48l2.88,2.64l3.12,2.4l2.88,2.64l2.64,2.64l2.88,2.64l2.88,2.64l2.64,2.64l2.64,2.88l-1.92,2.64l-1.92,2.64l-1.68,2.16l-2.16,2.4l-1.92,2.4l-2.4,2.16l-1.92,2.4l-2.16,2.16l-2.16,2.16l-2.16,2.4l-2.16,2.16l-2.16,2.16l-2.16,2.16l-1.92,2.64l-2.16,2.16l-1.92,2.64l-0.72,0.72l-0.72,0.72l-0.96,0.72l-0.96,0.48l-1.2,0l-0.96,0l-1.2,-0.48l-0.96,-0.96l-0.48,-0.48l-0.24,-0.24l-0.72,-0.48l-0.48,0l-3.36,3.36l-3.36,3.6l-3.36,3.6l-3.12,3.84l-3.36,3.6l-3.12,3.84l-3.36,3.6l-3.12,3.84l-3.12,3.6l-3.36,3.6l-3.36,3.6l-3.12,3.6l-3.36,3.6l-3.6,3.6l-3.36,3.36l-3.6,3.6l-2.88,3.36l-3.12,3.6l-3.12,3.6l-3.36,3.6l-3.12,3.36l-3.12,3.36l-3.36,3.36l-3.12,3.36l-3.36,3.6l-3.12,3.36l-3.36,3.6l-2.88,3.6l-3.12,3.6l-3.12,3.6l-3.12,3.6l-2.64,3.6l3.6,4.08l2.88,4.56l2.4,4.8l1.92,5.28l1.68,5.28l0.72,5.52l0.24,5.28l-0.24,5.28l-1.44,3.36l-1.68,2.88l-1.68,3.12l-1.92,2.88l-2.16,2.64l-2.16,2.4l-2.16,2.4l-2.64,2.4l-2.64,1.92l-2.64,2.4l-2.64,1.92l-2.88,1.92l-3.12,1.92l-3.12,1.68l-2.88,1.92l-3.12,1.68l-2.64,2.16l-1.92,2.4l-1.68,3.12l-1.44,2.88l-1.2,3.36l-0.96,3.6l-0.96,3.36l-1.2,3.12l-1.44,6l-1.68,6.24l-1.44,6.24l-2.16,6.24l-2.16,6.24l-3.12,5.52l-3.6,4.56l-4.56,4.32l-2.88,2.64l-3.12,2.4l-3.12,2.64l-3.36,2.16l-3.6,2.16l-3.84,1.68l-3.84,1.68l-3.84,1.2l-2.64,0l-2.16,0.24l-2.4,0l-2.4,0.24l-2.4,0.48l-2.4,0l-2.4,0.24l-2.4,0Z" style="fill-rule:nonzero;"/><path d="M98.6,353.28l-2.64,-0.24l-2.88,-0.24l-2.88,-0.48l-2.88,-0.48l-2.88,-0.72l-2.64,-0.72l-2.64,-0.96l-2.64,-0.72l-2.64,-1.2l-2.64,-1.2l-2.88,-1.2l-2.4,-1.2l-2.4,-1.44l-2.4,-1.44l-2.4,-1.44l-2.16,-1.68l-0.48,-0.96l-0.72,-0.96l-0.48,-0.48l-0.96,-0.48l-0.72,-0.72l-0.96,-0.48l-0.96,-0.48l-0.72,-0.48l-2.88,-3.12l-3.12,-3.36l-2.88,-3.36l-2.88,-3.36l-2.64,-3.6l-2.4,-3.84l-1.92,-4.32l-1.44,-4.8l-2.4,-8.88l-0.48,-8.88l1.2,-9.12l2.4,-9.12l3.84,-8.4l4.8,-8.16l5.52,-7.2l6,-6.48l3.6,-2.4l3.84,-2.4l4.08,-1.68l3.84,-1.92l4.32,-1.68l4.08,-1.44l4.08,-1.44l4.32,-1.68l3.84,-1.68l4.08,-1.68l3.6,-1.92l3.6,-2.16l3.36,-2.4l2.88,-2.88l2.88,-3.36l2.4,-3.6l1.2,-3.12l1.68,-3.12l1.68,-2.64l1.92,-2.88l2.16,-2.64l2.16,-2.4l2.64,-2.4l2.4,-2.16l2.64,-1.92l2.88,-1.92l2.88,-1.68l2.88,-1.44l3.36,-1.44l3.12,-0.96l3.12,-0.96l3.6,-0.72l1.92,-0.24l4.32,0l2.4,0.24l1.92,0.24l2.4,0.24l2.16,0.48l1.92,0.48l2.4,0.72l1.92,0.48l4.32,1.44l1.92,0.72l2.16,0.96l1.92,0.96l2.16,0.96l1.2,-0.72l0.96,-0.96l0.72,-1.2l0.48,-1.2l7.2,-6.48l6.72,-6.48l6.72,-6.48l6.24,-6.72l6.48,-6.96l6.24,-6.96l6.24,-6.96l6.24,-7.2l6.24,-6.96l6,-6.96l6.24,-7.2l6.24,-6.96l6.24,-7.2l6.48,-6.72l6.72,-6.72l6.48,-6.72l0.48,-1.2l0.48,-0.96l0.72,-0.96l0.24,-0.96l-1.2,-0.96l-0.96,-1.44l-1.2,-1.2l-1.2,-1.2l3.36,-4.32l3.6,-4.08l3.84,-3.84l3.84,-3.84l3.84,-3.84l3.36,-3.84l3.84,-4.08l3.12,-4.56l3.12,-2.88l3.36,2.4l3.36,2.88l6.24,5.76l3.12,3.12l6.24,5.76l3.36,2.88l-1.68,2.4l-1.92,2.4l-1.92,2.16l-1.92,2.4l-1.92,2.16l-2.16,2.16l-1.92,2.16l-2.16,2.16l-2.16,2.16l-1.92,2.16l-2.16,2.16l-1.92,1.92l-2.16,2.4l-1.68,2.16l-1.92,2.4l-1.92,2.16l-1.44,0l-0.96,-0.48l-0.96,-0.72l-0.96,-0.96l-1.2,-0.72l-0.96,-0.24l-1.2,0.48l-1.2,1.44l-5.28,5.76l-5.52,6l-5.28,6l-5.52,5.76l-5.28,5.76l-5.52,6.24l-5.28,5.76l-5.52,6l-5.28,5.76l-5.52,6l-5.28,5.76l-5.28,5.76l-5.52,6l-5.52,5.76l-5.28,6l-5.52,5.76l-2.16,2.64l-2.4,2.88l-2.16,2.88l-1.92,2.64l-2.4,2.88l-2.4,2.64l-2.4,2.64l-2.88,2.16l0.96,1.92l1.2,1.92l1.2,1.92l1.2,2.16l2.4,4.32l1.92,4.8l1.44,4.8l0.96,4.8l0.48,5.04l-0.48,5.04l-1.2,4.8l-1.68,5.04l-2.64,3.84l-2.88,3.36l-3.36,2.88l-3.6,2.88l-3.6,2.64l-3.6,2.64l-3.6,2.4l-3.84,2.64l-3.6,2.88l-3.36,2.88l-3.36,3.12l-2.64,3.36l-2.64,3.6l-1.92,4.08l-1.68,4.32l-0.96,5.04l-0.24,5.04l-0.72,4.8l-0.96,4.56l-1.44,4.56l-1.44,4.32l-1.92,4.56l-2.16,4.08l-2.4,3.84l-2.88,3.84l-2.88,3.6l-3.36,3.12l-3.36,3.12l-3.84,2.64l-3.84,2.16l-4.32,2.16l-4.56,1.68l-2.64,0.96l-2.64,0.72l-2.64,0.72l-2.88,0.48l-2.64,0.24l-2.88,0.48l-2.88,0l-2.88,0Z" style="fill:#ddddbf;fill-rule:nonzero;"/><path d="M122.6,293.28l-2.16,-2.16l-2.16,-1.92l-2.64,-1.92l-1.92,-2.16l-2.4,-2.4l-2.16,-1.92l-2.4,-2.16l-1.92,-2.16l-2.16,-2.16l-2.16,-2.4l-2.16,-2.16l-2.16,-2.16l-1.92,-2.4l-2.16,-1.92l-2.16,-2.4l-1.92,-2.16l0.48,-1.68l0.72,-1.68l1.2,-1.44l1.2,-1.44l0.96,-1.2l1.2,-1.44l1.2,-1.44l1.2,-1.44l1.2,-0.24l1.2,0.48l0.96,0.48l0.96,0.72l0.96,0.96l0.72,0.96l0.96,0.72l0.96,0.72l3.6,3.84l3.84,3.84l3.84,3.84l3.6,3.84l3.6,4.08l3.84,3.84l3.6,4.08l3.36,3.84l-0.96,1.68l-1.2,1.44l-1.2,1.44l-0.96,1.68l-1.44,1.44l-1.2,0.96l-1.92,0.96l-1.92,0.72Z" style="fill-rule:nonzero;"/><path d="M123.8,288.96l-1.92,-1.68l-2.16,-1.92l-2.16,-1.92l-1.92,-1.92l-2.16,-1.92l-1.92,-1.92l-2.16,-1.92l-1.68,-1.92l-1.92,-1.92l-1.92,-2.16l-2.16,-1.92l-1.92,-1.92l-1.92,-2.16l-1.68,-1.92l-2.16,-2.16l-1.92,-1.92l4.8,-6.72l1.92,1.92l2.16,1.92l3.84,3.84l2.16,1.92l2.16,2.16l1.92,1.92l1.92,2.16l1.92,1.92l2.16,2.16l1.92,1.92l1.92,1.92l1.92,2.16l2.16,2.16l1.92,1.92l2.16,2.16l-1.2,1.44l-1.44,1.68l-0.96,1.2l-1.68,1.44Z" style="fill:#9e9e3f;fill-rule:nonzero;"/><path d="M326.12,83.04l-0.96,-1.92l-0.24,-1.92l0.48,-1.92l0.48,-1.44l0.96,-0.48l0.72,-0.48l0.72,-0.48l0.96,0l0.72,-0.24l1.92,0l0.96,0.24l1.44,0.48l1.2,0.96l0.96,1.44l0.24,1.68l-0.24,1.2l-0.72,1.2l-0.72,1.2l-0.72,0.72l-1.2,0.48l-1.2,0.48l-0.72,0l-1.2,0l-0.96,0l-0.96,-0.24l-0.96,-0.48l-0.96,-0.48Z" style="fill-rule:nonzero;"/><path d="M328.76,80.64l0,-0.72l-0.24,-0.96l-0.24,-0.96l0.48,-0.96l0.96,-0.48l1.2,0l0.96,0.48l0.48,0.72l0.48,0.72l0,0.72l-0.48,0.96l-0.48,0.48l-0.72,0.48l-0.72,0l-0.96,0l-0.72,-0.48Z" style="fill:#7f7f00;fill-rule:nonzero;"/><path d="M338.12,69.36l-0.72,-0.72l-0.72,-0.72l-0.72,-0.72l-0.48,-1.2l0,-1.44l0.72,-1.44l0.72,-1.2l0.72,-0.96l1.2,-0.72l0.96,-0.24l0.96,0l1.2,0.24l1.2,0l1.2,0.48l0.96,0.48l0.96,0.72l1.2,1.68l0.24,1.68l-0.48,1.68l-1.2,1.44l-0.96,0.72l-0.96,0.24l-0.96,0.48l-0.96,0.24l-0.96,0l-1.2,0l-0.96,-0.24l-0.96,-0.48Z" style="fill-rule:nonzero;"/><path d="M339.8,66.96l-0.72,-1.2l0,-0.96l0.48,-1.2l0.48,-0.72l0.96,-0.48l0.72,0.48l0.96,0.48l0.72,0.24l0.24,0.96l0,1.2l-0.48,0.72l-0.72,0.48l-0.96,0.24l-0.72,0l-0.96,-0.24Z" style="fill:#7f7f00;fill-rule:nonzero;"/><path d="M348.44,57.36l-0.72,-0.72l-0.48,-1.2l-0.72,-1.2l-0.48,-1.2l0.24,-0.96l0.48,-1.2l0.48,-1.2l0.72,-0.96l0.72,-0.96l1.2,-0.48l0.96,-0.48l1.44,0l1.2,-0.24l1.68,0.48l0.96,0.96l1.2,0.72l0.72,0.72l0.72,0.72l0,0.96l0.24,0.72l-0.24,1.44l-0.48,1.44l-0.72,1.2l-0.96,0.96l-0.96,0.72l-1.2,0.48l-0.96,0.24l-1.2,0.24l-0.72,-0.24l-1.2,-0.24l-0.96,-0.48l-0.96,-0.24Z" style="fill-rule:nonzero;"/><path d="M350.6,55.2l-0.48,-1.2l-0.24,-0.96l0,-1.2l0.48,-1.2l0.24,-0.48l0.72,-0.48l0.48,-0.24l0.48,0l1.68,0.96l1.2,0.96l0,1.44l-0.72,1.68l-0.96,0.24l-0.96,0.72l-0.96,0.24l-0.96,-0.48Z" style="fill:#7f7f00;fill-rule:nonzero;"/><path d="M281.48,44.16l-0.96,-1.2l-0.48,-1.68l0.24,-1.92l0.96,-1.68l0.96,-0.72l0.96,-0.72l0.72,-0.24l0.96,-0.48l1.2,-0.24l3.12,0l1.44,0.48l1.2,0.96l0.72,1.2l0.24,1.68l-0.72,1.44l-0.48,1.44l-0.96,1.2l-1.2,0.96l-0.96,0.48l-0.96,0.24l-0.96,0.24l-0.96,0l-0.96,0l-0.96,-0.24l-1.2,-0.48l-0.96,-0.72Z" style="fill-rule:nonzero;"/><path d="M284.12,42.24l-0.24,-0.96l-0.24,-0.72l-0.24,-0.72l0.48,-0.72l0.72,-0.24l0.96,-0.48l0.96,-0.24l0.96,0.24l0.48,0l0.24,0.48l0.24,0.72l0.24,0.24l-0.24,1.44l-1.44,0.96l-1.44,0l-1.44,0Z" style="fill:#7f7f00;fill-rule:nonzero;"/><path d="M292.04,32.4l-1.2,-1.68l-0.48,-1.92l0.48,-2.16l0.96,-1.92l0.24,-0.72l0.96,-0.48l0.72,-0.48l0.72,-0.24l0.96,-0.24l0.72,-0.24l0.96,-0.24l0.96,-0.24l2.16,0.96l1.44,1.44l1.2,2.16l0.72,1.92l-0.96,1.44l-0.96,1.44l-1.44,1.2l-1.44,0.72l-1.92,0.24l-1.68,0.24l-1.44,-0.24l-1.68,-0.96Z" style="fill-rule:nonzero;"/><path d="M294.44,29.76l-0.24,-0.96l0,-1.2l0.24,-1.2l0.72,-0.96l0.72,-0.24l0.72,0l0.96,0.24l0.48,0.48l0.72,0.48l0.24,0.24l0.24,0.72l0.48,0.72l-0.72,1.44l-1.2,0.72l-1.68,0l-1.68,-0.48Z" style="fill:#7f7f00;fill-rule:nonzero;"/><path d="M302.12,19.92l-0.96,-1.2l-0.24,-1.44l0,-1.68l0,-1.68l0.48,-0.96l0.72,-0.72l0.96,-0.72l1.2,-0.24l0.96,-0.48l1.2,-0.24l0.96,-0.24l1.2,-0.24l0.96,0l0.96,0.24l0.96,0.48l0.72,0.24l0.72,1.2l0.48,1.44l0.24,1.44l0,1.44l-0.96,1.68l-1.2,1.2l-1.44,1.2l-1.44,0.96l-1.68,0.24l-1.68,0l-1.68,-0.72l-1.44,-1.2Z" style="fill-rule:nonzero;"/><path d="M304.52,17.28l-0.24,-0.96l-0.24,-0.72l0.24,-0.96l0.24,-0.96l1.44,-0.48l1.2,-0.24l1.44,0.24l1.2,0.72l0.24,0.96l-0.48,1.2l-0.24,1.2l-0.96,0.72l-0.96,0.72l-0.96,0l-0.96,-0.24l-0.96,-1.2Z" style="fill:#7f7f00;fill-rule:nonzero;"/><path d="M148.52,257.52l5.04,-0.48l4.8,-1.44l4.32,-2.4l3.6,-3.12l2.88,-3.6l2.64,-4.32l1.2,-4.8l0.72,-5.04l-0.72,-5.04l-1.2,-4.8l-2.64,-4.08l-2.88,-3.84l-3.6,-2.88l-4.32,-2.4l-4.8,-1.44l-5.04,-0.72l-5.28,0.72l-4.56,1.44l-4.32,2.4l-3.6,2.88l-3.12,3.84l-2.16,4.08l-1.68,4.8l-0.48,5.04l0.48,5.04l1.68,4.8l2.16,4.32l3.12,3.6l3.6,3.12l4.32,2.4l4.56,1.44l5.28,0.48Z" style="fill-rule:nonzero;"/><path d="M148.52,250.32l3.6,-0.48l3.36,-0.96l2.88,-1.68l2.64,-2.16l2.4,-2.64l1.44,-3.12l1.2,-3.36l0.24,-3.6l-0.24,-3.6l-1.2,-3.36l-1.44,-3.12l-2.4,-2.64l-2.64,-1.92l-2.88,-1.68l-3.36,-0.96l-3.6,-0.48l-3.6,0.48l-3.36,0.96l-3.12,1.68l-2.4,1.92l-2.4,2.64l-1.68,3.12l-0.96,3.36l-0.24,3.6l0.24,3.6l0.96,3.36l1.68,3.12l2.4,2.64l2.4,2.16l3.12,1.68l3.36,0.96l3.6,0.48Z" style="fill:#bfbf7f;fill-rule:nonzero;"/><path d="M272.6,158.16l2.4,-2.16l2.64,-2.16l2.64,-1.92l2.64,-1.92l2.4,-1.92l2.64,-2.16l2.16,-2.16l2.16,-2.64l1.44,-0.48l0.96,-0.24l1.68,0l0.72,0.24l0.72,0.48l0.24,0.48l0.48,0.72l0.48,1.92l0.72,2.4l0.48,1.68l0.96,1.68l2.4,6.48l5.76,12l6.24,12l2.88,6.24l2.64,6.24l1.92,6.24l0,5.04l-0.24,2.4l-0.72,2.16l-0.72,2.16l-0.96,2.16l-1.68,1.68l-1.68,1.68l-1.2,0.72l-1.68,0.72l-1.44,0.72l-1.68,0.24l-1.68,0.24l-1.44,0l-1.44,0l-1.2,-0.48l-0.96,-0.24l-0.72,-0.72l-0.96,-0.24l-0.96,-0.48l-0.96,-0.72l-0.96,-0.72l-0.96,-0.72l-0.72,-0.72l-1.2,-4.08l0.24,-3.84l1.2,-4.08l1.44,-3.84l1.44,-1.2l1.44,-0.72l1.68,-0.96l1.44,-0.72l1.68,-0.72l1.44,-0.48l1.68,-0.72l1.68,-0.72l-0.96,-2.88l-1.2,-2.64l-1.2,-2.64l-1.44,-2.64l-1.44,-2.4l-1.68,-2.64l-1.68,-2.16l-1.68,-2.16l-4.8,1.2l-4.56,1.92l-4.08,2.64l-3.6,2.88l-3.6,3.36l-3.36,3.6l-2.88,3.6l-3.12,3.36l2.4,4.32l2.4,4.08l2.88,4.32l2.64,4.56l1.92,4.32l0.72,4.8l-0.72,4.8l-2.64,4.8l-1.44,1.68l-1.92,1.2l-1.92,0.72l-1.92,0.72l-2.4,0.24l-2.16,0l-2.4,0l-2.16,-0.24l-1.92,-1.2l-1.68,-1.44l-1.44,-1.68l-0.96,-1.92l-0.48,-2.4l-0.24,-2.16l0,-2.16l0.48,-2.16l0.96,-2.16l1.2,-1.92l1.44,-1.92l1.44,-1.68l1.44,-1.44l1.92,-1.44l1.92,-0.96l2.4,-0.96l-1.92,-3.6l-1.68,-3.36l-2.16,-3.84l-1.92,-3.36l-2.16,-3.6l-1.92,-3.6l-1.68,-3.6l-1.92,-3.6l-1.44,-1.44l-1.2,-1.68l-0.48,-1.92l1.2,-1.68l19.2,-13.68Z" style="fill-rule:nonzero;"/><path d="M268.76,213.36l1.44,-0.24l1.2,0l0.96,0.48l0.72,0.72l0.72,0.96l0.72,0.96l0.72,1.2l0.48,0.72l0.48,1.68l0,3.36l-0.48,1.44l-0.72,1.44l-0.96,1.2l-1.2,0.96l-1.44,0.72l-0.96,0l-1.2,-0.24l-0.96,0l-0.96,-0.24l-0.96,-0.24l-0.72,-0.72l-0.72,-0.72l-0.48,-0.96l0.24,-3.6l0.48,-3.36l1.2,-2.88l2.4,-2.64Z" style="fill:#ff0;fill-rule:nonzero;"/><path d="M292.28,150l1.2,1.92l0.96,2.16l0.72,2.16l0.72,1.92l0.72,2.16l0.48,2.16l0.96,2.16l0.72,2.16l-4.32,1.2l-3.84,1.92l-3.6,1.92l-3.6,2.4l-3.36,2.64l-3.36,2.88l-3.12,3.36l-3.12,3.12l-2.4,0.96l-6.96,-13.68l2.16,-1.2l1.92,-1.44l1.92,-1.2l2.16,-1.68l1.92,-1.44l1.92,-1.44l1.92,-1.68l1.68,-1.68l1.92,-1.44l1.92,-1.68l1.92,-1.44l1.92,-1.68l1.92,-1.44l2.16,-1.2l1.68,-1.44l2.16,-1.44Z" style="fill:#ff0;fill-rule:nonzero;"/><path d="M309.56,199.2l1.68,-0.72l1.2,0.24l0.96,0.48l0.48,0.96l0.48,1.2l0.72,1.44l0.96,0.72l0.72,0.96l-0.48,1.92l-0.24,2.16l-0.72,1.92l-1.68,1.68l-1.2,0.24l-1.44,0l-1.44,0l-0.96,-0.48l-1.2,-0.24l-1.2,-0.96l-0.96,-0.72l-0.96,-0.96l-0.24,-1.44l-0.24,-1.68l0.24,-1.68l0.24,-1.44l0.96,-1.68l0.96,-0.96l1.44,-0.96l1.92,0Z" style="fill:#ff0;fill-rule:nonzero;"/><path d="M44.12,214.32l0.96,-0.96l0.96,-0.24l0.96,-0.24l4.08,0l1.2,-0.24l-2.64,-5.52l-2.4,-5.76l-2.16,-5.76l-2.4,-5.52l-2.64,-5.76l-2.64,-5.52l-2.88,-5.52l-3.6,-5.28l0.96,-2.64l1.92,-1.92l1.92,-0.96l2.64,-1.2l2.64,-1.2l2.16,-1.2l1.92,-1.92l1.2,-2.64l0.72,-0.72l0.96,0l0.72,-0.24l0.96,0.24l2.16,3.12l1.68,3.36l0.96,3.6l0.96,3.36l0.96,3.6l1.2,3.6l1.44,3.6l2.4,3.12l-0.24,1.44l-0.96,0.96l-1.44,0.72l-0.96,0.72l-1.44,-0.48l-1.2,0l-1.2,0.48l-1.44,0.48l-0.96,0.72l-1.2,0.72l-1.2,0.72l-0.96,0l1.44,5.52l1.92,5.28l2.64,5.52l2.64,5.28l2.4,5.52l2.16,5.52l1.68,5.76l0.48,5.76l0,2.16l-0.48,1.92l-0.72,1.68l-0.96,1.44l-1.2,1.2l-1.44,1.2l-1.44,0.96l-1.44,0.96l-2.4,-0.48l-2.16,-1.2l-1.68,-1.44l-1.44,-1.92l-1.2,-2.4l-1.2,-2.16l-0.96,-2.4l-0.96,-2.16l-1.2,-3.6l-0.24,-3.6l0.48,-3.84l1.2,-3.6Z" style="fill-rule:nonzero;"/><path d="M47.96,218.64l3.36,0l0.72,0.24l0.72,0.48l0.72,0.48l0.72,0.72l1.68,3.6l1.2,4.08l0.72,4.08l-0.24,4.08l-1.92,0l-1.44,-0.72l-0.96,-0.96l-0.96,-1.68l-0.72,-1.92l-0.96,-1.68l-0.72,-1.92l-0.96,-1.2l-0.96,-7.68Z" style="fill:#ff0;fill-rule:nonzero;"/><path d="M37.88,167.04l1.2,-0.48l1.2,-0.48l1.2,-0.72l1.2,-0.96l0.96,-0.72l1.44,-0.72l0.96,-0.96l1.2,-0.72l1.2,2.16l0.72,2.16l0.72,2.4l0.72,2.16l0.72,2.16l0.72,2.4l0.72,2.16l1.2,2.16l-0.72,0.48l-1.2,0.24l-0.96,0.48l-1.2,0.24l-0.96,0.72l-0.96,0.24l-0.96,0.72l-0.96,0.96l-8.16,-16.08Z" style="fill:#ff0;fill-rule:nonzero;"/><path d="M232.04,338.64l0.96,-0.24l0.96,0.24l0.72,0.24l1.44,0.96l0.72,0.48l0.96,0.48l0.72,0l1.2,-10.32l1.44,-10.32l0.72,-10.56l0,-10.8l1.68,-1.2l1.92,-0.72l2.16,0l2.64,0.24l2.16,0.24l2.16,0l2.16,-0.72l2.16,-1.44l1.44,0l0.48,0.48l0.72,0.48l0.24,3.6l-0.24,3.12l-0.72,3.12l-0.72,2.64l-0.72,3.12l-0.72,3.12l-0.24,3.12l0.24,3.36l-0.72,0.96l-0.96,0.48l-1.44,0l-0.96,0l-0.96,-0.96l-0.96,-0.72l-0.96,0l-1.44,0l-0.96,0l-1.2,0l-0.96,0l-0.96,-0.48l-1.2,4.56l-0.72,4.8l-0.48,5.28l-0.24,5.04l-0.72,5.04l-0.72,5.04l-0.96,4.8l-2.16,4.56l-0.96,1.44l-1.2,1.2l-0.96,0.96l-1.44,0.48l-1.44,0.72l-1.68,0.24l-1.44,0l-1.2,0l-2.64,-2.88l-0.96,-4.08l0,-4.08l0.72,-4.32l0.24,-1.68l0.24,-1.44l0.72,-1.44l0.72,-1.44l0.96,-1.2l0.72,-1.44l1.2,-0.96l1.44,-1.2Z" style="fill-rule:nonzero;"/><path d="M233,343.44l1.2,0.72l1.2,0.96l0.96,0.96l0.48,1.44l-0.48,3.36l-0.72,3.36l-1.2,3.36l-1.92,3.12l-2.16,-1.92l-0.24,-2.88l0.24,-3.12l0,-3.36l2.64,-6Z" style="fill:#7f7fff;fill-rule:nonzero;"/><path d="M247.4,301.2l0.96,0.24l3.36,0l1.2,-0.24l1.2,0l1.2,-0.24l1.2,0l-0.24,4.08l-0.96,3.84l-0.96,4.08l-0.48,3.84l-0.72,0l-0.72,-0.24l-0.96,0l-0.96,-0.24l-0.96,0l-1.2,0l-0.96,0l-0.96,0.24l0.96,-15.36Z" style="fill:#7f7fff;fill-rule:nonzero;"/><path d="M318.68,32.64l-18.96,18.72l15.36,14.88l18,-20.88l-14.4,-12.72Z" style="fill:#a8a889;fill-rule:nonzero;"/><path d="M294.44,64.32l-125.52,136.56l0.48,0l1.2,0.48l1.44,0.48l3.36,1.92l1.68,1.44l0.96,1.92l0.48,2.4l124.56,-138.24l-8.64,-6.96Z" style="fill:#a8a889;fill-rule:nonzero;"/><path d="M201.56,210.48l0.24,0.24l0.24,0.96l0.96,1.68l0.72,2.16l0.72,2.4l0.48,3.12l0.48,3.12l0.24,3.36l-0.24,3.84l-0.72,3.6l-1.44,4.08l-2.16,3.6l-2.64,3.84l-3.6,3.36l-4.8,3.12l-5.76,3.12l0.96,-0.72l2.4,-2.4l3.12,-3.84l3.36,-5.04l3.36,-6.48l2.64,-7.68l1.68,-9.12l-0.24,-10.32Z" style="fill:#a8a889;fill-rule:nonzero;"/><path d="M66.68,232.8l-0.72,0.24l-1.92,1.68l-3.12,2.16l-3.84,3.12l-4.32,3.84l-4.32,4.56l-4.32,5.52l-4.08,6l-3.12,6.72l-2.4,7.2l-0.72,7.92l0.24,8.64l2.4,8.88l4.56,9.36l6.96,10.08l9.36,10.32l0.24,0l0.72,0.72l1.2,0.72l1.44,1.2l2.16,1.2l2.16,1.44l2.64,1.68l2.88,1.44l3.12,1.68l3.36,1.68l3.6,1.44l8.16,2.4l3.84,0.72l4.32,0.72l4.32,0.24l2.88,0l3.12,-0.24l2.88,-0.48l3.12,-0.72l3.12,-0.96l2.64,-1.2l3.12,-1.44l2.88,-1.92l0.24,-0.24l0.96,-0.48l1.44,-1.2l1.68,-1.44l2.16,-1.92l2.64,-2.4l2.64,-2.88l2.88,-3.36l3.12,-3.84l2.88,-4.32l2.88,-4.8l2.88,-5.52l2.88,-5.76l2.16,-6.48l2.16,-7.2l1.68,-7.44l-0.48,0.48l-1.44,1.68l-2.16,2.64l-3.12,3.36l-3.84,3.84l-4.32,4.08l-5.04,4.08l-5.52,3.84l-6.24,3.6l-6.48,3.12l-7.2,2.16l-6.96,1.44l-7.68,0.24l-7.68,-1.44l-7.92,-2.88l-8.16,-4.56l-0.48,-0.24l-0.96,-0.48l-1.44,-0.96l-2.16,-1.44l-1.92,-1.92l-2.4,-2.4l-2.16,-3.12l-2.4,-3.6l-1.68,-4.56l-1.44,-5.28l-0.96,-5.76l-0.24,-6.72l0.48,-7.92l1.92,-8.4l2.64,-9.6l3.6,-10.56Z" style="fill:#a8a889;fill-rule:nonzero;"/><path d="M25.64,314.88l1.92,-1.92l1.68,-1.44l1.92,-1.44l1.92,-1.44l1.92,-1.44l1.68,-1.44l1.68,-1.68l1.68,-1.68l1.68,-0.96l1.44,0.24l0.96,0.72l0.48,0.96l0.24,1.68l0.48,1.44l0.24,1.2l0.72,0.96l1.68,4.56l2.16,4.56l4.32,8.64l2.16,4.56l1.92,4.32l1.92,4.56l1.68,4.56l0,3.6l-0.72,3.36l-1.44,2.88l-2.16,2.4l-0.96,0.72l-0.96,0.48l-1.2,0.48l-1.2,0l-1.2,0.24l-1.2,0.24l-0.96,-0.24l-0.96,-0.24l-1.2,-0.72l-1.44,-0.72l-1.2,-0.72l-1.2,-1.2l-0.96,-2.88l0.24,-2.88l0.96,-2.88l0.96,-2.88l0.72,-0.72l1.2,-0.72l1.2,-0.48l1.2,-0.72l0.96,-0.24l1.2,-0.72l1.2,-0.24l1.2,-0.72l-0.72,-1.92l-0.96,-1.92l-0.72,-1.92l-1.2,-1.92l-0.96,-1.92l-1.2,-1.68l-1.2,-1.44l-1.2,-1.68l-3.36,0.96l-3.36,1.2l-2.88,1.92l-2.64,2.16l-2.64,2.4l-2.4,2.64l-2.16,2.64l-2.16,2.4l1.68,3.12l1.92,2.88l2.16,3.36l1.68,3.12l1.2,3.36l0.72,3.36l-0.48,3.36l-1.92,3.6l-1.2,1.2l-1.2,0.72l-1.44,0.48l-1.44,0.48l-1.68,0.24l-1.44,0l-1.68,0l-1.68,0l-2.88,-1.92l-1.44,-2.88l-0.48,-3.12l0.24,-3.12l0.72,-1.44l0.96,-1.44l0.96,-1.44l0.96,-1.2l1.2,-1.2l1.2,-0.96l1.44,-0.72l1.44,-0.48l-0.96,-2.64l-1.44,-2.64l-1.44,-2.4l-1.44,-2.64l-1.44,-2.88l-1.44,-2.4l-1.44,-2.64l-1.2,-2.64l-0.72,-0.48l-0.96,-0.72l-0.48,-0.72l-0.48,-0.96l0,-0.48l0.48,-0.48l0.24,-0.48l0.48,-0.48l13.92,-9.6Z" style="fill-rule:nonzero;"/><path d="M23,354.48l1.68,-0.24l1.2,0.96l1.2,1.44l0.96,1.2l0.24,2.4l-0.24,2.4l-1.2,2.16l-2.16,0.96l-1.44,-0.24l-1.44,0l-1.2,-0.72l-0.96,-1.44l0.24,-2.4l0.48,-2.64l0.96,-2.16l1.68,-1.68Z" style="fill:#f00;fill-rule:nonzero;"/><path d="M39.8,308.64l1.44,2.88l1.44,3.12l0.96,3.12l0.96,3.12l-2.88,0.96l-2.88,0.96l-2.64,1.68l-2.64,1.68l-2.4,2.16l-2.64,1.92l-2.16,2.4l-2.4,2.4l-1.68,0.48l-4.8,-9.84l2.88,-1.92l2.64,-1.92l2.88,-2.4l2.64,-2.16l2.88,-2.4l2.64,-2.16l2.88,-2.16l2.88,-1.92Z" style="fill:#f00;fill-rule:nonzero;"/><path d="M52.52,344.16l1.92,-0.24l0.96,1.2l0.72,1.68l1.44,1.2l-0.24,1.44l-0.48,1.68l-0.24,1.2l-1.44,1.44l-0.96,0.24l-0.72,0l-0.96,-0.24l-0.96,-0.24l-0.96,-0.24l-0.72,-0.48l-0.48,-0.48l-0.72,-0.96l-0.48,-2.16l0.48,-2.4l1.2,-1.92l2.64,-0.72Z" style="fill:#f00;fill-rule:nonzero;"/></g></g></svg>