<svg viewBox="0 0 576 512" xmlns="http://www.w3.org/2000/svg"><path d="m528 288h-92.1l46.1-46.1c30.1-30.1 8.8-81.9-33.9-81.9h-64v-112c0-26.5-21.5-48-48-48h-96c-26.5 0-48 21.5-48 48v112h-64c-42.6 0-64.2 51.7-33.9 81.9l46.1 46.1h-92.3c-26.5 0-48 21.5-48 48v128c0 26.5 21.5 48 48 48h480c26.5 0 48-21.5 48-48v-128c0-26.5-21.5-48-48-48zm-400-80h112v-160h96v160h112l-160 160zm400 256h-480v-128h140.1l65.9 65.9c18.8 18.8 49.1 18.7 67.9 0l65.9-65.9h140.2zm-88-64c0-13.3 10.7-24 24-24s24 10.7 24 24-10.7 24-24 24-24-10.7-24-24z"/></svg>