<svg viewBox="0 0 448 512" xmlns="http://www.w3.org/2000/svg"><path d="m400 32h-352c-26.51 0-48 21.49-48 48v352c0 26.51 21.49 48 48 48h352c26.51 0 48-21.49 48-48v-352c0-26.51-21.49-48-48-48zm-6 400h-340a6 6 0 0 1 -6-6v-340a6 6 0 0 1 6-6h340a6 6 0 0 1 6 6v340a6 6 0 0 1 -6 6zm-54-304-136 .145c-6.627 0-12 5.373-12 12v27.755c0 6.722 5.522 12.133 12.243 11.998l58.001-2.141-162.729 162.728c-4.686 4.686-4.686 12.284 0 16.971l23.03 23.029c4.686 4.686 12.284 4.686 16.97 0l162.729-162.729-2.141 58.001c-.136 6.721 5.275 12.242 11.998 12.242h27.755c6.628 0 12-5.373 12-12l.144-135.999c0-6.627-5.373-12-12-12z"/></svg>