<svg viewBox="0 0 448 512" xmlns="http://www.w3.org/2000/svg"><path d="m400 32h-352c-26.51 0-48 21.49-48 48v352c0 26.51 21.49 48 48 48h352c26.51 0 48-21.49 48-48v-352c0-26.51-21.49-48-48-48zm-6 400h-340a6 6 0 0 1 -6-6v-340a6 6 0 0 1 6-6h340a6 6 0 0 1 6 6v340a6 6 0 0 1 -6 6zm-54-304h-135.985c-10.658 0-16.039 12.93-8.485 20.485l48.187 48.201-144.202 144.202c-4.686 4.686-4.686 12.284 0 16.971l22.627 22.627c4.687 4.686 12.285 4.686 16.971 0l144.201-144.201 48.201 48.192c7.513 7.513 20.485 2.235 20.485-8.485v-135.992c0-6.627-5.373-12-12-12z"/></svg>