<svg viewBox="0 0 576 512" xmlns="http://www.w3.org/2000/svg"><path d="m448 241.823v222.177c0 26.51-21.49 48-48 48h-352c-26.51 0-48-21.49-48-48v-352c0-26.51 21.49-48 48-48h339.976c10.691 0 16.045 12.926 8.485 20.485l-24 24a12.002 12.002 0 0 1 -8.485 3.515h-309.976a6 6 0 0 0 -6 6v340a6 6 0 0 0 6 6h340a6 6 0 0 0 6-6v-192.177c0-3.183 1.264-6.235 3.515-8.485l24-24c7.559-7.56 20.485-2.206 20.485 8.485zm116-241.823h-135.985c-10.658 0-16.039 12.93-8.485 20.485l48.187 48.201-272.202 272.202c-4.686 4.686-4.686 12.284 0 16.971l22.627 22.627c4.687 4.686 12.285 4.686 16.971 0l272.201-272.201 48.201 48.192c7.513 7.513 20.485 2.235 20.485-8.485v-135.992c0-6.627-5.373-12-12-12z"/></svg>