<svg viewBox="0 0 576 512" xmlns="http://www.w3.org/2000/svg"><path d="m576 14.4-.174 163.2c0 7.953-6.447 14.4-14.4 14.4h-33.306c-8.067 0-14.56-6.626-14.397-14.691l2.717-73.627-2.062-2.062-278.863 278.865c-4.686 4.686-12.284 4.686-16.971 0l-23.029-23.029c-4.686-4.686-4.686-12.284 0-16.971l278.864-278.864-2.062-2.062-73.626 2.717c-8.065.164-14.691-6.33-14.691-14.397v-33.305c0-7.953 6.447-14.4 14.4-14.4l163.2-.174c7.953 0 14.4 6.447 14.4 14.4zm-148.485 219.34-24 24a12.002 12.002 0 0 0 -3.515 8.485v191.775a6 6 0 0 1 -6 6h-340a6 6 0 0 1 -6-6v-340a6 6 0 0 1 6-6h301.976c10.691 0 16.045-12.926 8.485-20.485l-24-24a12.002 12.002 0 0 0 -8.485-3.515h-283.976c-26.51 0-48 21.49-48 48v352c0 26.51 21.49 48 48 48h352c26.51 0 48-21.49 48-48v-221.775c0-10.691-12.926-16.045-20.485-8.485z"/></svg>