<svg viewBox="0 0 512 512" xmlns="http://www.w3.org/2000/svg"><path d="m96 96c0 26.51-21.49 48-48 48s-48-21.49-48-48 21.49-48 48-48 48 21.49 48 48zm-48 112c-26.51 0-48 21.49-48 48s21.49 48 48 48 48-21.49 48-48-21.49-48-48-48zm0 160c-26.51 0-48 21.49-48 48s21.49 48 48 48 48-21.49 48-48-21.49-48-48-48zm464-256v-32c0-6.627-5.373-12-12-12h-360c-6.627 0-12 5.373-12 12v32c0 6.627 5.373 12 12 12h360c6.627 0 12-5.373 12-12zm0 160v-32c0-6.627-5.373-12-12-12h-360c-6.627 0-12 5.373-12 12v32c0 6.627 5.373 12 12 12h360c6.627 0 12-5.373 12-12zm0 160v-32c0-6.627-5.373-12-12-12h-360c-6.627 0-12 5.373-12 12v32c0 6.627 5.373 12 12 12h360c6.627 0 12-5.373 12-12z"/></svg>