<svg viewBox="0 0 512 512" xmlns="http://www.w3.org/2000/svg"><path d="m500 124h-360c-6.627 0-12-5.373-12-12v-32c0-6.627 5.373-12 12-12h360c6.627 0 12 5.373 12 12v32c0 6.627-5.373 12-12 12zm12 148v-32c0-6.627-5.373-12-12-12h-360c-6.627 0-12 5.373-12 12v32c0 6.627 5.373 12 12 12h360c6.627 0 12-5.373 12-12zm0 160v-32c0-6.627-5.373-12-12-12h-360c-6.627 0-12 5.373-12 12v32c0 6.627 5.373 12 12 12h360c6.627 0 12-5.373 12-12zm-420-304v-64c0-6.627-5.373-12-12-12h-64c-6.627 0-12 5.373-12 12v64c0 6.627 5.373 12 12 12h64c6.627 0 12-5.373 12-12zm0 160v-64c0-6.627-5.373-12-12-12h-64c-6.627 0-12 5.373-12 12v64c0 6.627 5.373 12 12 12h64c6.627 0 12-5.373 12-12zm0 160v-64c0-6.627-5.373-12-12-12h-64c-6.627 0-12 5.373-12 12v64c0 6.627 5.373 12 12 12h64c6.627 0 12-5.373 12-12z"/></svg>