<svg clip-rule="evenodd" fill-rule="evenodd" stroke-linejoin="round" stroke-miterlimit="1.41421" viewBox="0 0 235 615" xmlns="http://www.w3.org/2000/svg"><g transform="matrix(.374299 0 0 1.39637 133.76 793.803)"><path d="m-357.372-568.476h626.681v440.417h-626.681z" fill="none"/><path d="m153.664 390.982c-1.93 0-29.575-1.001-29.575 14.591 0 18.193 4.787 18.309 1.58 26.593-3.774 9.747-12.586 22.074-12.322 32.233.606 23.395 40.317 23.401 40.317 23.401s40.178.503 40.178-22.907c0-10.653-11.27-23.503-13.557-32.727-2.056-8.284 2.238-14.541 2.238-26.593 0-15.592-26.929-14.591-28.859-14.591" fill-rule="nonzero" transform="matrix(7.12443 0 0 1.90971 -1141.16 -1064.9)"/><path d="m153.664 390.982c-1.93 0-29.575-1.001-29.575 14.591 0 18.193 4.787 18.309 1.58 26.593-3.774 9.747-12.586 22.074-12.322 32.233.606 23.395 40.317 23.401 40.317 23.401s40.178.503 40.178-22.907c0-10.653-11.27-23.503-13.557-32.727-2.056-8.284 2.238-14.541 2.238-26.593 0-15.592-26.929-14.591-28.859-14.591z" fill="none" transform="matrix(7.12443 0 0 1.90971 -1141.16 -1064.9)"/><g fill-rule="nonzero"><path d="m142.028 279.868c0 3.404-1.891 6.163-4.223 6.163-2.333 0-4.224-2.759-4.224-6.163 0-3.403 1.891-6.162 4.224-6.162 2.332 0 4.223 2.759 4.223 6.162" transform="matrix(7.12443 0 0 2.0892 -1146.389133181 -1112.42972474)"/><path d="m142.028 279.868c0 3.404-1.891 6.163-4.223 6.163-2.333 0-4.224-2.759-4.224-6.163 0-3.403 1.891-6.162 4.224-6.162 2.332 0 4.223 2.759 4.223 6.162z" transform="matrix(7.12443 0 0 2.0892 -1146.389133181 -1112.42972474)"/><path d="m173.602 279.868c0 3.404-1.892 6.163-4.224 6.163-2.333 0-4.224-2.759-4.224-6.163 0-3.403 1.891-6.162 4.224-6.162 2.332 0 4.224 2.759 4.224 6.162" transform="matrix(7.12443 0 0 2.0892 -1146.389133181 -1112.42972474)"/><path d="m173.602 279.868c0 3.404-1.892 6.163-4.224 6.163-2.333 0-4.224-2.759-4.224-6.163 0-3.403 1.891-6.162 4.224-6.162 2.332 0 4.224 2.759 4.224 6.162z" transform="matrix(7.12443 0 0 2.0892 -1146.389133181 -1112.42972474)"/><path d="m143.69 295.655c0 3.404-1.891 6.162-4.224 6.162-2.332 0-4.223-2.758-4.223-6.162s1.891-6.162 4.223-6.162c2.333 0 4.224 2.758 4.224 6.162" transform="matrix(7.12443 0 0 2.0892 -1146.389133181 -1112.42972474)"/><path d="m143.69 295.655c0 3.404-1.891 6.162-4.224 6.162-2.332 0-4.223-2.758-4.223-6.162s1.891-6.162 4.223-6.162c2.333 0 4.224 2.758 4.224 6.162z" transform="matrix(7.12443 0 0 2.0892 -1146.389133181 -1112.42972474)"/><path d="m171.663 295.655c0 3.404-1.892 6.162-4.224 6.162-2.333 0-4.224-2.758-4.224-6.162s1.891-6.162 4.224-6.162c2.332 0 4.224 2.758 4.224 6.162" transform="matrix(7.12443 0 0 2.0892 -1146.389133181 -1112.42972474)"/><path d="m171.663 295.655c0 3.404-1.892 6.162-4.224 6.162-2.333 0-4.224-2.758-4.224-6.162s1.891-6.162 4.224-6.162c2.332 0 4.224 2.758 4.224 6.162z" transform="matrix(7.12443 0 0 2.0892 -1146.389133181 -1112.42972474)"/><path d="m138.404 270.334 3.859 45.069s2.273 0 2.273 2.359c.013 2.147 0 2.467 0 2.467l17.249-.103v-2.364c0-2.359 2.273-2.359 2.273-2.359l4.317-45.069s-6.59-2.429-6.59-5.028-17.248-2.463-17.249 0c-.002 2.463-6.132 5.028-6.132 5.028z" transform="matrix(7.2605778573 0 0 2.0892 -1160.427822496 -1112.42972474)"/><path d="m144.625 320.109c-.012.969-.934 74.438-.946 75.431h19.344c-.012-.992-.874-74.461-.885-75.431z" transform="matrix(7.13572 0 0 1.79704 -1142.94 -1019.41)"/><path d="m166.574 422.295c0 7.17-5.813 12.982-12.983 12.982s-12.982-5.812-12.982-12.982 5.812-12.983 12.982-12.983 12.983 5.813 12.983 12.983" fill="#fff" transform="matrix(7.12443 0 0 1.90971 -1141.16 -1064.9)"/></g></g></svg>