<svg clip-rule="evenodd" fill-rule="evenodd" stroke-linejoin="round" stroke-miterlimit="1.41421" viewBox="0 0 333 124" xmlns="http://www.w3.org/2000/svg"><g transform="matrix(.982363 0 0 .956866 -123.032 -40.6221)"><path d="m125.241 42.453h338.532v128.552h-338.532z" fill="none"/><g fill-rule="nonzero"><path d="m153.664 390.982c-1.93 0-29.575-1.001-29.575 14.591 0 18.193 4.787 18.309 1.58 26.593-3.774 9.747-12.586 22.074-12.322 32.233.606 23.395 40.317 23.401 40.317 23.401s.043-96.739 0-96.818" transform="matrix(0 1.54511871161 -1.50501885619 0 861.04521125831 -131.1754011632)"/><path d="m142.028 279.868c0 3.404-1.891 6.163-4.223 6.163-2.333 0-4.224-2.759-4.224-6.163 0-3.403 1.891-6.162 4.224-6.162 2.332 0 4.223 2.759 4.223 6.162" transform="matrix(0 1.54511871161 -1.7107987289 0 916.0353976395 -130.97881985672)"/><path d="m143.69 295.655c0 3.404-1.891 6.162-4.224 6.162-2.332 0-4.223-2.758-4.223-6.162s1.891-6.162 4.223-6.162c2.333 0 4.224 2.758 4.224 6.162" transform="matrix(0 1.54511871161 -1.7107987289 0 916.0353976395 -130.97881985672)"/><path d="m138.404 270.334 1.56 39.798s2.958 1.467 3.925 3.518c.892 1.892.835 3.519.835 3.519h7.649s.312-50.72.237-50.75c-5.934-2.3-7.333 1.557-9.2 2.56-2.356 1.266-5.006 1.355-5.006 1.355z" transform="matrix(0 1.57464593019 -1.7107987289 0 916.0353976395 -134.02347627795)"/><path d="m144.98 319.674c-.012.969-1.289 74.873-1.301 75.866l9.36-.389c-.012-.992-.23-77.598-.241-78.568z" transform="matrix(0 1.54756797865 -1.37888034252 0 814.21769019564 -130.55606931659)"/><path d="m153.664 390.982c-1.93 0-29.575-1.001-29.575 14.591 0 18.193 4.787 18.309 1.58 26.593-3.774 9.747-12.586 22.074-12.322 32.233.606 23.395 40.317 23.401 40.317 23.401s.043-96.739 0-96.818" transform="matrix(0 -1.54511871161 -1.50501885619 0 861.04521125831 342.68050566816)"/><path d="m142.028 279.868c0 3.404-1.891 6.163-4.223 6.163-2.333 0-4.224-2.759-4.224-6.163 0-3.403 1.891-6.162 4.224-6.162 2.332 0 4.223 2.759 4.223 6.162" transform="matrix(0 -1.54511871161 -1.7107987289 0 916.0353976395 342.48392436168)"/><path d="m143.69 295.655c0 3.404-1.891 6.162-4.224 6.162-2.332 0-4.223-2.758-4.223-6.162s1.891-6.162 4.223-6.162c2.333 0 4.224 2.758 4.224 6.162" transform="matrix(0 -1.54511871161 -1.7107987289 0 916.0353976395 342.48392436168)"/><path d="m138.404 270.334 1.56 39.798s2.958 1.467 3.925 3.518c.892 1.892.835 3.519.835 3.519h7.649s.312-50.72.237-50.75c-5.934-2.3-7.333 1.557-9.2 2.56-2.356 1.266-5.006 1.355-5.006 1.355z" transform="matrix(0 -1.57464593019 -1.7107987289 0 916.0353976395 345.5285807829)"/><path d="m144.98 319.674c-.012.969-1.289 74.873-1.301 75.866l9.36-.389c-.012-.992-.23-77.598-.241-78.568z" transform="matrix(0 -1.54756797865 -1.37888034252 0 814.21769019564 342.06117382155)"/><path d="m166.574 422.295c0 7.17-5.813 12.982-12.983 12.982s-12.982-5.812-12.982-12.982 5.812-12.983 12.982-12.983 12.983 5.813 12.983 12.983" fill="#fff" transform="matrix(0 1.54511532225 -1.50501089013 0 861.04301174 -131.17547315)"/></g></g></svg>