<?xml version="1.0" encoding="UTF-8" standalone="no"?><!DOCTYPE svg PUBLIC "-//W3C//DTD SVG 1.1//EN" "http://www.w3.org/Graphics/SVG/1.1/DTD/svg11.dtd"><svg width="100%" height="100%" viewBox="0 0 173 182" version="1.1" xmlns="http://www.w3.org/2000/svg" xmlns:xlink="http://www.w3.org/1999/xlink" xml:space="preserve" xmlns:serif="http://www.serif.com/" style="fill-rule:evenodd;clip-rule:evenodd;"><rect id="Europe" x="0" y="0" width="172.752" height="181.618" style="fill:none;"/><clipPath id="_clip1"><rect x="0" y="0" width="172.752" height="181.618"/></clipPath><g clip-path="url(#_clip1)"><path id="AL" d="M99.569,160.238l-0.35,1.27l0.4,1.59l1.16,0.9l-0.06,0.97l-0.91,0.54l-0.17,1.19l-1.3,1.76l-0.48,-0.25l-0.05,-0.8l-1.56,-1.23l-0.24,-1.75l0.24,-2.53l0.38,-1.16l-0.47,-0.59l-0.19,-1.19l1.22,-1.87l0.17,0.72l0.76,-0.34l0.6,1.02l0.67,0.38l0.18,1.37Z" style="fill:#d9d9d9;fill-rule:nonzero;stroke:#fff;stroke-width:0.5px;"/><path id="AT" d="M89.449,135.428l-0.21,1.71l-1.58,0.01l0.54,0.89l-0.93,2.65l-0.53,0.69l-2.45,0.1l-1.42,0.92l-2.32,-0.31l-4.01,-1.05l-0.62,-1.43l-2.77,0.72l-0.33,0.77l-1.7,-0.58l-1.43,-0.11l-1.27,-0.74l0.43,-1.01l-0.11,-0.74l0.85,-0.22l1.42,1.14l0.4,-1.09l2.47,0.18l2.01,-0.74l1.34,0.12l0.87,0.85l0.27,-0.7l-0.4,-2.72l1.01,-0.54l0.98,-1.95l2.09,1.37l1.57,-1.74l0.99,-0.32l2.18,1.3l1.31,-0.22l1.3,0.8l-0.23,0.54l0.28,1.45Z" style="fill:#becbcd;fill-rule:nonzero;stroke:#fff;stroke-width:0.5px;"/><path id="BA" d="M95.129,148.688l1.02,-0.01l-0.7,1.72l1.35,1.5l-0.41,1.82l-0.66,0.17l-0.53,0.36l-0.91,0.89l-0.41,2.1l-2.48,-1.44l-1.06,-1.61l-1.07,-0.85l-1.29,-1.45l-0.6,-1.21l-1.38,-1.83l0.59,-1.64l1.01,0.91l0.6,-0.82l1.31,-0.09l2.41,0.66l1.94,-0.06l1.27,0.88Z" style="fill:#d9d9d9;fill-rule:nonzero;stroke:#fff;stroke-width:0.5px;"/><path id="BE" d="M51.139,121.488l2.05,0.35l2.6,-0.93l1.77,1.95l1.55,1.04l-0.32,2.97l-0.73,0.16l-0.31,2.43l-2.45,-1.97l-1.44,0.34l-1.96,-2.06l-1.3,-1.77l-1.3,-0.07l-0.41,-1.56l2.25,-0.88Z" style="fill:#becbcd;fill-rule:nonzero;stroke:#fff;stroke-width:0.5px;"/><path id="BG" d="M105.369,151.138l0.81,1.6l1.08,-0.29l2.16,0.61l4.12,0.2l1.39,-0.99l3.3,-0.9l2.04,1.41l1.65,0.41l-1.46,1.59l-1.02,2.73l0.9,2.16l-2.41,-0.51l-2.86,1.18l-0.03,1.86l-2.55,0.35l-1.97,-1.3l-2.25,1.03l-2.07,-0.11l-0.2,-2.47l-1.41,-1.21l0.47,-0.54l-0.31,-0.45l0.47,-1.21l1.07,-1.19l-1.36,-1.66l-0.25,-1.42l0.69,-0.88Z" style="fill:#d9d9d9;fill-rule:nonzero;stroke:#fff;stroke-width:0.5px;"/><path id="BY" d="M107.689,109.648l2.71,0.04l3.04,-1.8l0.65,-2.72l2.3,-1.57l-0.26,-2.2l1.7,-0.84l3.02,-1.93l2.95,1.26l0.4,1.23l1.47,-0.59l2.74,1.18l0.27,2.31l-0.6,1.32l1.76,3.15l1.14,0.87l-0.17,0.86l1.89,0.83l0.81,1.25l-1.09,1.02l-2.26,-0.16l-0.54,0.44l0.66,1.54l0.69,2.93l-2.41,0.27l-0.86,1l-0.19,2.26l-1.11,-0.43l-2.53,0.22l-0.74,-1.05l-1.05,0.78l-1.05,-0.65l-2.21,-0.09l-3.13,-1.08l-2.83,-0.36l-2.17,0.1l-1.54,1.23l-1.34,0.17l-0.05,-2.01l-0.87,-2.12l1.68,-0.94l0.02,-1.85l-0.78,-1.78l-0.12,-2.09Z" style="fill:#d9d9d9;fill-rule:nonzero;stroke:#fff;stroke-width:0.5px;"/><path id="CH" d="M68.739,137.918l0.11,0.74l-0.43,1.01l1.27,0.74l1.43,0.11l-0.22,1.67l-1.23,0.69l-2.08,-0.51l-0.61,1.63l-1.33,0.13l-0.49,-0.64l-1.57,1.36l-1.35,0.19l-1.21,-0.86l-0.96,-1.77l-1.34,0.64l0.04,-1.84l2.05,-2.31l-0.09,-1.05l1.28,0.39l0.77,-0.71l2.38,0.03l0.58,-0.9l3,1.26Z" style="fill:#becbcd;fill-rule:nonzero;stroke:#fff;stroke-width:0.5px;"/><path id="CZ" d="M89.399,133.438l-1.3,-0.8l-1.31,0.22l-2.18,-1.3l-0.99,0.32l-1.57,1.74l-2.09,-1.37l-1.58,-1.83l-1.43,-1.04l-0.3,-1.82l-0.49,-1.3l2.04,-0.95l1.04,-1.1l2.01,-0.86l0.71,-0.84l0.74,0.51l1.25,-0.47l1.33,1.43l2.09,0.39l-0.17,1.21l1.52,0.9l0.42,-1.13l1.92,0.49l0.27,1.37l2.08,0.26l1.29,2.13l-0.83,0.01l-0.44,0.77l-0.64,0.19l-0.18,0.97l-0.54,0.21l-0.08,0.39l-0.95,0.44l-1.25,-0.07l-0.39,0.93Z" style="fill:#becbcd;fill-rule:nonzero;stroke:#fff;stroke-width:0.5px;"/><path id="DE" d="M69.659,104.498l0.05,1.88l2.84,1.12l-0.03,1.7l2.85,-0.9l1.57,-1.31l3.17,1.89l1.32,1.51l0.66,2.39l-0.78,1.25l1.01,1.65l0.7,2.45l-0.22,1.56l1.15,2.86l-1.25,0.47l-0.74,-0.51l-0.71,0.84l-2.01,0.86l-1.04,1.1l-2.04,0.95l0.49,1.3l0.3,1.82l1.43,1.04l1.58,1.83l-0.98,1.95l-1.01,0.54l0.4,2.72l-0.27,0.7l-0.87,-0.85l-1.34,-0.12l-2.01,0.74l-2.47,-0.18l-0.4,1.09l-1.42,-1.14l-0.85,0.22l-3,-1.26l-0.58,0.9l-2.38,-0.03l0.35,-2.98l1.42,-2.9l-4.04,-0.78l-1.32,-1.13l0.16,-1.89l-0.56,-0.98l0.32,-2.97l-0.48,-4.69l1.69,0l0.71,-1.71l0.7,-4.23l-0.53,-1.58l0.55,-1l2.34,-0.26l0.52,1.04l1.91,-2.33l-0.64,-1.79l-0.13,-2.75l2.12,0.64l1.79,-0.74Z" style="fill:#becbcd;fill-rule:nonzero;stroke:#fff;stroke-width:0.5px;"/><path id="DK" d="M77.419,101.418l-1.68,3.97l-2.93,-2.76l-0.39,-2.05l4.11,-1.66l0.89,2.5Zm-4.98,-4.25l-0.69,1.9l-0.83,-0.55l-2.02,3.59l0.76,2.39l-1.79,0.74l-2.12,-0.64l-1.14,-2.72l-0.08,-5.12l0.47,-1.38l0.8,-1.54l2.47,-0.32l0.98,-1.43l2.26,-1.47l-0.1,2.68l-0.83,1.68l0.34,1.43l1.52,0.76Z" style="fill:#becbcd;fill-rule:nonzero;stroke:#fff;stroke-width:0.5px;"/><path id="EE" d="M110.009,90.288l0.33,-3.12l-1.03,0.67l-1.78,-1.9l-0.25,-3.11l3.55,-1.53l3.53,-0.81l3.04,0.92l2.9,-0.17l0.42,0.96l-1.99,3.14l0.83,4.96l-1.2,1.66l-2.32,-0.01l-2.41,-1.94l-1.23,-0.65l-2.39,0.93Z" style="fill:#becbcd;fill-rule:nonzero;stroke:#fff;stroke-width:0.5px;"/><path id="ES" d="M16.509,160.138l0.14,-2.68l-1.14,-1.66l3.96,-2.77l3.43,0.7l3.77,-0.03l2.98,0.66l2.33,-0.2l4.53,0.12l1.12,1.49l5.16,1.73l1.02,-0.82l3.16,1.72l3.25,-0.49l0.15,2.19l-2.66,2.49l-3.59,0.78l-0.25,1.24l-1.73,2.03l-1.08,2.96l1.09,2.05l-1.62,1.6l-0.6,2.3l-2.12,0.7l-1.99,2.69l-3.55,0.05l-2.68,-0.06l-1.75,1.22l-1.07,1.31l-1.38,-0.29l-1.03,-1.17l-0.8,-2l-2.62,-0.54l-0.23,-1.16l1.04,-1.32l0.38,-0.96l-0.96,-1.06l0.77,-2.35l-1.12,-2.17l1.21,-0.3l0.11,-1.72l0.46,-0.53l0.03,-2.88l1.3,-1l-0.78,-1.88l-1.64,-0.13l-0.48,0.47l-1.65,0.01l-0.71,-1.84l-1.14,0.55l-1.02,0.95Z" style="fill:#becbcd;fill-rule:nonzero;stroke:#fff;stroke-width:0.5px;"/><path id="FI" d="M122.009,18.678l-0.41,5.4l4.3,4.99l-2.59,5.48l3.26,7.96l-1.89,5.76l2.53,4.86l-1.15,4.14l4.15,4.26l-1.06,3.1l-2.6,3.45l-6,7.41l-5.09,0.45l-4.93,2.07l-4.56,1.18l-1.63,-3.07l-2.71,-1.87l0.62,-5.72l-1.36,-5.41l1.34,-3.58l2.54,-3.94l6.41,-7.02l1.88,-1.39l-0.3,-2.84l-3.9,-3.22l-0.94,-2.7l-0.08,-11.12l-4.37,-5.15l-3.74,-3.81l1.68,-2.08l3.12,4.15l3.66,-0.39l3.01,1.87l2.67,-3.44l1.38,-5.85l4.35,-2.78l3.6,3.26l-1.19,5.59Z" style="fill:#becbcd;fill-rule:nonzero;stroke:#fff;stroke-width:0.5px;"/><path id="FR" d="M68.649,159.118l-0.93,2.89l-1.27,-0.76l-0.65,-2.53l0.57,-1.41l1.81,-1.45l0.47,3.26Zm-16.75,-33.35l1.96,2.06l1.44,-0.34l2.45,1.97l0.63,0.37l0.81,-0.09l1.32,1.12l4.04,0.79l-1.42,2.9l-0.36,2.98l-0.77,0.71l-1.28,-0.38l0.09,1.05l-2.05,2.3l-0.04,1.84l1.34,-0.63l0.96,1.77l-0.12,1.13l0.83,1.5l-0.97,1.21l0.72,3.04l1.52,0.49l-0.32,1.68l-2.54,2.17l-5.53,-1.04l-4.08,1.24l-0.32,2.29l-3.25,0.49l-3.15,-1.72l-1.02,0.82l-5.16,-1.73l-1.12,-1.49l1.45,-2.32l0.53,-7.88l-2.89,-4.26l-2.07,-2.09l-4.29,-1.6l-0.28,-3.07l3.64,-0.92l4.71,1.09l-0.89,-4.84l2.65,1.85l6.53,-3.37l0.84,-3.61l2.45,-0.9l0.41,1.56l1.3,0.07l1.3,1.79Z" style="fill:#becbcd;fill-rule:nonzero;stroke:#fff;stroke-width:0.5px;"/><path id="GB" d="M25.969,106.578l-1.5,3.29l-2.12,-0.98l-1.73,0.07l0.58,-2.57l-0.58,-2.6l2.35,-0.2l3,2.99Zm7.45,-20.76l-3,5.73l2.86,-0.72l3.07,0.03l-0.73,4.22l-2.52,4.53l2.9,0.32l0.22,0.52l2.5,5.79l1.92,0.77l1.73,5.41l0.8,1.84l3.4,0.88l-0.34,2.93l-1.43,1.33l1.12,2.33l-2.52,2.33l-3.75,-0.04l-4.77,1.21l-1.31,-0.87l-1.85,2.06l-2.59,-0.5l-1.97,1.67l-1.49,-0.87l4.11,-4.64l2.51,-0.97l-0.02,0l-4.38,-0.75l-0.79,-1.8l2.93,-1.41l-1.54,-2.48l0.53,-3.06l4.17,0.42l0.41,-2.74l-1.88,-2.95l-0.04,-0.07l-3.4,-0.85l-0.67,-1.32l1.02,-2.2l-0.92,-1.37l-1.51,2.34l-0.16,-4.8l-1.42,-2.59l1.02,-5.36l2.18,-4.31l2.24,0.42l3.36,-0.41Z" style="fill:#becbcd;fill-rule:nonzero;stroke:#fff;stroke-width:0.5px;"/><path id="GE" d="M158.349,161.428l0.42,-1.6l-0.7,-2.57l-1.62,-1.41l-1.55,-0.44l-1.03,-1.17l0.34,-0.46l2.37,0.66l4.13,0.62l3.82,1.83l0.49,0.71l1.7,-0.6l2.62,0.8l0.85,1.55l1.77,0.87l-0.73,0.51l1.38,2.02l-0.38,0.43l-1.51,-0.22l-2.09,-1.06l-0.69,0.6l-3.9,0.58l-2.7,-1.82l-2.99,0.17Z" style="fill:#d9d9d9;fill-rule:nonzero;stroke:#fff;stroke-width:0.5px;"/><path id="GR" d="M116.439,161.328l-0.87,2.33l-0.67,0.41l-1.71,-0.1l-1.46,-0.35l-3.4,0.96l1.94,2.06l-1.42,0.59l-1.56,0l-1.48,-1.88l-0.53,0.8l0.63,2.18l1.4,1.7l-1.06,0.79l1.56,1.65l1.39,1.03l0.04,2l-1.36,-1.15l-1.24,0.21l0.83,1.8l-0.92,0.19l-1,-0.69l1.2,3.95l-0.58,0l-0.45,-1.25l-0.57,-0.02l-0.26,1.32l-0.45,-0.3l0.1,-0.74l-0.56,-1.04l-0.64,0l0.12,0.84l-0.25,0.27l-0.62,-0.54l-0.38,-1.01l0.52,-0.57l-0.36,-0.74l-0.41,-0.38l-0.42,-0.09l-0.49,-0.94l0.58,-0.52l0.36,-0.48l0.56,0.1l0.25,-0.41l0.59,-0.16l0.68,0.46l0.55,0.17l0.39,-0.62l-0.94,-0.08l-0.56,-0.19l-1.25,0.28l-1.22,0.05l-1.09,-1.64l-0.18,-0.25l0.17,-0.64l-1.42,-1.15l-0.19,-1.03l1.3,-1.76l0.17,-1.19l0.91,-0.53l0.06,-0.97l1.83,-0.33l1.07,-0.81l1.52,0.07l0.46,-0.65l0.53,-0.12l2.07,0.11l2.25,-1.02l1.98,1.3l2.55,-0.35l0.03,-1.86l1.38,0.93Z" style="fill:#becbcd;fill-rule:nonzero;stroke:#fff;stroke-width:0.5px;"/><path id="HR" d="M94.639,144.508l0.68,1.55l0.89,1.14l-1.08,1.49l-1.27,-0.88l-1.94,0.06l-2.41,-0.66l-1.31,0.09l-0.6,0.82l-1.01,-0.91l-0.59,1.64l1.38,1.83l0.6,1.21l1.29,1.45l1.07,0.85l1.06,1.61l2.48,1.44l-0.31,0.64l-2.63,-1.4l-1.63,-1.38l-2.56,-1.14l-2.36,-2.85l0.57,-0.3l-1.28,-1.64l-0.06,-1.34l-1.8,-0.62l-0.86,1.71l-0.83,-1.33l0.07,-1.38l0.1,-0.06l1.95,0.14l0.52,-0.68l0.95,0.65l1.1,0.08l-0.01,-1.12l0.97,-0.41l0.28,-1.62l2.23,-1.08l0.89,0.5l2.1,1.73l2.31,0.77l1.05,-0.6Z" style="fill:#d9d9d9;fill-rule:nonzero;stroke:#fff;stroke-width:0.5px;"/><path id="HU" d="M87.269,140.688l0.93,-2.65l-0.54,-0.89l1.58,-0.01l0.21,-1.71l1.43,1.07l1.03,0.46l2.36,-0.51l0.22,-0.84l1.12,-0.13l1.36,-0.65l0.3,0.27l1.32,-0.52l0.66,-1l0.92,-0.25l3,1.28l0.6,-0.43l1.55,1.14l0.2,1.12l-1.71,0.87l-1.33,2.8l-1.69,2.76l-2.25,0.76l-1.75,-0.17l-2.15,1.05l-1.05,0.6l-2.31,-0.77l-2.1,-1.73l-0.89,-0.5l-0.55,-1.37l-0.47,-0.05Z" style="fill:#becbcd;fill-rule:nonzero;stroke:#fff;stroke-width:0.5px;"/><path id="IE" d="M24.469,109.868l0.46,3.36l-2.12,4.12l-4.97,2.68l-3.97,-0.68l2.27,-4.78l-1.46,-4.77l3.81,-3.75l2.12,-2.27l0.58,2.6l-0.58,2.57l1.74,-0.06l2.12,0.98Z" style="fill:#becbcd;fill-rule:nonzero;stroke:#fff;stroke-width:0.5px;"/><path id="IS" d="M27.444,10.263l-0.64,4.48l3.16,4.6l-3.64,5.01l-8.09,4.38l-2.42,1.15l-3.69,-0.93l-7.82,-2.01l2.76,-2.84l-6.1,-3.2l4.96,-1.28l-0.12,-1.97l-5.88,-1.57l1.89,-4.47l4.25,-1.03l4.37,4.68l4.26,-3.75l3.53,1.96l4.57,-3.71l4.65,0.5Z" style="fill:#becbcd;fill-rule:nonzero;stroke:#fff;stroke-width:0.5px;"/><path id="IT" d="M85.359,173.458l-1.01,2.78l0.42,1.09l-0.59,1.79l-2.14,-1.31l-1.43,-0.38l-3.91,-1.79l0.39,-1.82l3.28,0.32l2.86,-0.39l2.13,-0.29Zm-17.69,-10.82l1.68,2.62l-0.39,4.81l-1.27,-0.23l-1.14,1.2l-1.06,-0.95l-0.11,-4.38l-0.64,-2.1l1.54,0.19l1.39,-1.16Zm8.87,-21.6l4.01,1.05l-0.3,1.99l0.67,1.71l-2.23,-0.58l-2.28,1.42l0.16,1.97l-0.34,1.12l0.92,1.99l2.63,1.95l1.41,3.17l3.12,3.05l2.2,-0.02l0.68,0.83l-0.79,0.74l2.51,1.35l2.06,1.12l2.4,1.92l0.29,0.68l-0.52,1.31l-1.56,-1.7l-2.44,-0.6l-1.18,2.36l2.03,1.34l-0.33,1.88l-1.17,0.21l-1.5,3.06l-1.17,0.27l0.01,-1.08l0.57,-1.91l0.61,-0.77l-1.09,-2.09l-0.86,-1.83l-1.16,-0.46l-0.83,-1.58l-1.8,-0.67l-1.21,-1.49l-2.07,-0.24l-2.19,-1.68l-2.56,-2.45l-1.91,-2.19l-0.87,-3.8l-1.4,-0.45l-2.28,-1.29l-1.29,0.53l-1.62,1.8l-1.17,0.28l0.32,-1.68l-1.52,-0.49l-0.72,-3.04l0.97,-1.21l-0.83,-1.5l0.12,-1.13l1.21,0.86l1.35,-0.19l1.57,-1.36l0.49,0.64l1.34,-0.13l0.61,-1.63l2.07,0.51l1.24,-0.68l0.22,-1.67l1.7,0.58l0.33,-0.78l2.77,-0.71l0.6,1.39Z" style="fill:#becbcd;fill-rule:nonzero;stroke:#fff;stroke-width:0.5px;"/><path id="XK" d="M100.059,159.498l-0.13,0.77l-0.36,-0.03l-0.18,-1.37l-0.67,-0.38l-0.6,-1.02l0.52,-0.85l0.67,-0.28l0.39,-1.26l0.5,-0.22l0.4,0.54l0.53,0.24l0.36,0.61l0.46,0.18l0.55,0.7l0.4,-0.02l-0.32,0.93l-0.33,0.45l0.09,0.28l-0.63,0.14l-1.65,0.59Z" style="fill:#becbcd;fill-rule:nonzero;stroke:#fff;stroke-width:0.5px;"/><path id="LT" d="M105.579,107.668l-0.23,-1.22l0.3,-1.33l-1.24,-0.77l-2.93,-0.86l-0.6,-4.16l3.21,-1.55l4.7,0.33l2.76,-0.5l0.39,1.05l1.49,0.32l2.7,2.42l0.26,2.2l-2.3,1.57l-0.65,2.72l-3.04,1.8l-2.71,-0.04l-0.67,-1.46l-1.44,-0.52Z" style="fill:#becbcd;fill-rule:nonzero;stroke:#fff;stroke-width:0.5px;"/><path id="LU" d="M58.789,126.868l0.56,0.98l-0.16,1.89l-0.81,0.1l-0.63,-0.38l0.31,-2.43l0.73,-0.16Z" style="fill:#becbcd;fill-rule:nonzero;stroke:#fff;stroke-width:0.5px;"/><path id="LV" d="M100.879,99.328l0.1,-3.81l1.38,-3.24l2.64,-1.78l2.22,3.88l2.25,-0.1l0.54,-3.99l2.39,-0.93l1.23,0.65l2.41,1.94l2.32,0.01l1.35,1.19l0.23,2.49l0.91,2.99l-3.02,1.93l-1.7,0.84l-2.7,-2.42l-1.49,-0.32l-0.39,-1.05l-2.76,0.5l-4.7,-0.33l-3.21,1.55Z" style="fill:#becbcd;fill-rule:nonzero;stroke:#fff;stroke-width:0.5px;"/><path id="MD" d="M116.479,135.028l0.67,-0.62l1.86,-0.42l2.07,1.31l1.15,0.16l1.27,1.12l-0.2,1.41l1.02,0.67l0.4,1.72l0.98,1.04l-0.19,0.6l0.52,0.42l-0.74,0.29l-1.66,-0.11l-0.27,-0.57l-0.59,0.33l0.2,0.72l-0.77,1.29l-0.49,1.37l-0.7,0.44l-0.51,-1.83l0.3,-1.72l-0.09,-1.79l-1.62,-2.44l-0.89,-1.75l-0.87,-1.24l-0.85,-0.4Z" style="fill:#d9d9d9;fill-rule:nonzero;stroke:#fff;stroke-width:0.5px;"/><path id="ME" d="M97.359,157.808l-0.17,-0.72l-1.22,1.87l0.19,1.19l-0.59,-0.29l-0.78,-1.23l-1.22,-0.75l0.31,-0.64l0.41,-2.1l0.91,-0.89l0.53,-0.36l0.74,0.66l0.41,0.54l0.92,0.41l1.07,0.79l-0.23,0.33l-0.52,0.85l-0.76,0.34Z" style="fill:#d9d9d9;fill-rule:nonzero;stroke:#fff;stroke-width:0.5px;"/><path id="MK" d="M99.569,160.238l0.36,0.03l0.13,-0.77l1.65,-0.59l0.63,-0.14l0.96,-0.22l1.29,-0.06l1.41,1.21l0.2,2.47l-0.54,0.12l-0.46,0.65l-1.52,-0.07l-1.07,0.81l-1.83,0.32l-1.16,-0.9l-0.4,-1.59l0.35,-1.27Z" style="fill:#d9d9d9;fill-rule:nonzero;stroke:#fff;stroke-width:0.5px;"/><path id="NL" d="M58.869,111.558l2.33,0.13l0.53,1.58l-0.7,4.23l-0.71,1.71l-1.69,0l0.48,4.69l-1.55,-1.04l-1.77,-1.95l-2.6,0.93l-2.05,-0.35l1.44,-1.24l2.46,-6.74l3.83,-1.95Z" style="fill:#becbcd;fill-rule:nonzero;stroke:#fff;stroke-width:0.5px;"/><path id="NO" d="M120.819,1.188l8.77,6.24l-3.61,2.23l3.07,5.11l-4.77,3.19l-2.26,0.72l1.19,-5.59l-3.6,-3.25l-4.35,2.78l-1.38,5.85l-2.67,3.44l-3.01,-1.87l-3.66,0.38l-3.12,-4.15l-1.68,2.09l-1.74,0.32l-0.41,5.08l-5.28,-1.22l-0.74,4.22l-2.69,-0.03l-1.85,5.24l-2.8,7.87l-4.35,9.5l1.02,2.23l-0.98,2.55l-2.78,-0.11l-1.82,5.91l0.17,8.04l1.79,2.98l-0.93,6.73l-2.33,3.81l-1.24,3.15l-1.88,-3.35l-5.54,6.27l-3.74,1.24l-3.88,-2.71l-1,-5.86l-0.89,-13.26l2.58,-3.88l7.4,-5.18l5.54,-6.59l5.13,-9.3l6.74,-13.76l4.7,-5.67l7.71,-9.89l6.15,-3.59l4.61,0.44l4.27,-6.99l5.11,0.38l5.03,-1.74Z" style="fill:#becbcd;fill-rule:nonzero;stroke:#fff;stroke-width:0.5px;"/><path id="PL" d="M83.949,122.548l-1.15,-2.86l0.22,-1.56l-0.7,-2.45l-1.01,-1.65l0.78,-1.25l-0.66,-2.39l1.92,-1.39l4.37,-2.22l3.54,-1.64l2.79,0.82l0.21,1.18l2.71,0.06l3.45,0.55l5.16,-0.08l1.44,0.52l0.67,1.46l0.12,2.09l0.78,1.78l-0.02,1.85l-1.68,0.94l0.87,2.12l0.05,2.01l1.41,3.89l-0.3,1.24l-1.39,0.51l-2.55,3.61l0.72,1.92l-0.61,-0.25l-2.66,-1.64l-2.02,0.6l-1.32,-0.44l-1.66,0.92l-1.41,-1.52l-1.16,0.58l-0.16,-0.26l-1.29,-2.13l-2.08,-0.26l-0.27,-1.37l-1.92,-0.49l-0.42,1.13l-1.52,-0.9l0.17,-1.21l-2.09,-0.39l-1.33,-1.43Z" style="fill:#becbcd;fill-rule:nonzero;stroke:#fff;stroke-width:0.5px;"/><path id="PT" d="M16.509,160.138l1.02,-0.95l1.14,-0.55l0.71,1.84l1.65,-0.01l0.48,-0.47l1.64,0.13l0.78,1.88l-1.3,1l-0.03,2.88l-0.46,0.53l-0.11,1.72l-1.21,0.3l1.12,2.17l-0.77,2.35l0.96,1.06l-0.38,0.96l-1.04,1.32l0.23,1.16l-1.12,0.91l-1.48,-0.49l-1.45,0.38l0.43,-2.74l-0.26,-2.18l-1.26,-0.33l-0.67,-1.35l0.23,-2.36l1.11,-1.31l0.2,-1.47l0.59,-2.21l-0.07,-1.57l-0.56,-1.34l-0.12,-1.26Z" style="fill:#becbcd;fill-rule:nonzero;stroke:#fff;stroke-width:0.5px;"/><path id="RO" d="M105.519,136.438l1.21,-0.89l1.74,0.46l1.79,0.02l1.3,1.01l0.96,-0.64l2.07,-0.4l0.71,-0.98l1.18,0.01l0.85,0.4l0.87,1.24l0.89,1.75l1.62,2.44l0.09,1.79l-0.3,1.72l0.51,1.83l1.25,0.73l1.31,-0.64l1.28,0.68l0.06,1.03l-1.36,0.84l-0.85,-0.36l-0.78,4.71l-1.65,-0.41l-2.04,-1.41l-3.3,0.9l-1.39,0.99l-4.12,-0.2l-2.16,-0.61l-1.08,0.29l-0.81,-1.6l-0.51,-0.68l0.65,-0.66l-0.7,-0.49l-0.88,0.88l-1.63,-1.14l-0.22,-1.63l-1.71,-0.94l-0.31,-1.27l-1.52,-1.58l2.25,-0.76l1.69,-2.76l1.33,-2.8l1.71,-0.87Z" style="fill:#d9d9d9;fill-rule:nonzero;stroke:#fff;stroke-width:0.5px;"/><path id="RS" d="M100.369,146.478l1.71,0.94l0.22,1.63l1.63,1.14l0.88,-0.88l0.7,0.49l-0.65,0.66l0.51,0.68l-0.69,0.88l0.25,1.42l1.36,1.66l-1.07,1.19l-0.47,1.21l0.31,0.45l-0.47,0.54l-1.29,0.06l-0.96,0.22l-0.09,-0.28l0.33,-0.45l0.32,-0.93l-0.4,0.02l-0.55,-0.7l-0.46,-0.18l-0.36,-0.61l-0.53,-0.24l-0.4,-0.54l-0.5,0.22l-0.39,1.26l-0.67,0.28l0.23,-0.33l-1.07,-0.79l-0.92,-0.41l-0.41,-0.54l-0.74,-0.66l0.66,-0.17l0.41,-1.82l-1.35,-1.5l0.7,-1.72l-1.02,0.01l1.08,-1.49l-0.89,-1.14l-0.68,-1.55l2.15,-1.05l1.75,0.17l1.52,1.58l0.31,1.27Z" style="fill:#d9d9d9;fill-rule:nonzero;stroke:#fff;stroke-width:0.5px;"/><path id="RU" d="M165.059,40.708l1.65,116.29l-1.7,0.6l-0.49,-0.71l-3.82,-1.83l-4.13,-0.62l-2.37,-0.66l-0.34,0.45l-3.57,-3.27l-3.2,-1.48l-2.42,-2.32l2.04,-0.64l2.33,-3.35l-1.57,-1.6l4.13,-1.67l-0.07,-0.9l-2.52,0.66l0.09,-1.83l1.45,-1.16l2.71,-0.31l0.44,-1.4l-0.62,-2.33l1.14,-2.23l-0.03,-1.26l-4.13,-1.41l-1.64,0.05l-1.73,-2.04l-2.15,0.69l-3.56,-1.54l0.06,-0.87l-1,-1.93l-2.24,-0.22l-0.23,-1.39l0.7,-0.91l-1.79,-2.58l-2.91,0.44l-0.85,-0.23l-0.71,1.04l-1.05,-0.18l-0.69,-2.94l-0.66,-1.54l0.54,-0.44l2.26,0.16l1.09,-1.02l-0.81,-1.25l-1.89,-0.83l0.17,-0.86l-1.14,-0.87l-1.76,-3.15l0.6,-1.31l-0.27,-2.31l-2.74,-1.18l-1.47,0.59l-0.4,-1.24l-2.95,-1.26l-0.9,-2.99l-0.24,-2.49l-1.35,-1.19l1.2,-1.66l-0.83,-4.96l2,-3.13l-0.42,-0.96l3.19,-3.07l-2.94,-2.68l6,-7.41l2.6,-3.45l1.05,-3.1l-4.15,-4.26l1.15,-4.15l-2.52,-4.85l1.89,-5.76l-3.26,-7.96l2.59,-5.48l-4.29,-4.99l0.41,-5.4l2.26,-0.72l4.77,-3.19l2.89,-2.81l4.61,4.86l7.68,1.88l10.59,8.65l2.15,3.51l0.19,4.8l-3.11,3.69l-4.58,1.85l-12.52,-5.31l-2.06,0.9l4.57,5.1l0.18,3.15l0.18,6.75l3.61,1.97l2.19,1.66l0.36,-3.11l-1.69,-2.8l1.78,-2.51l6.78,4.1l2.36,-1.59l-1.89,-4.88l6.53,-6.74l2.59,0.4l2.62,2.43Zm-60.65,63.64l-2.94,-0.86l-3.87,1.58l-0.64,2.13l3.45,0.55l5.16,-0.07l-0.22,-1.23l0.3,-1.33l-1.24,-0.77l0,0Z" style="fill:#d9d9d9;fill-rule:nonzero;stroke:#fff;stroke-width:0.5px;"/><path id="SE" d="M104.039,43.068l-2.72,4.69l0.44,4.02l-4.46,5.13l-5.41,5.34l-2.05,8.41l2,4.07l2.68,3.14l-2.57,6.23l-2.92,1.26l-1.07,8.84l-1.59,4.76l-3.4,-0.49l-1.59,3.95l-3.25,0.23l-0.89,-4.71l-2.35,-5.81l-2.13,-7.5l1.24,-3.15l2.33,-3.81l0.93,-6.73l-1.79,-2.98l-0.18,-8.04l1.83,-5.91l2.78,0.11l0.97,-2.55l-1.02,-2.23l4.35,-9.5l2.81,-7.87l1.85,-5.24l2.69,0.02l0.75,-4.21l5.28,1.22l0.41,-5.08l1.74,-0.33l3.74,3.81l4.37,5.15l0.08,11.12l0.94,2.7l-4.82,1.94Z" style="fill:#becbcd;fill-rule:nonzero;stroke:#fff;stroke-width:0.5px;"/><path id="SI" d="M80.549,142.088l2.32,0.31l1.42,-0.92l2.45,-0.1l0.53,-0.69l0.47,0.05l0.55,1.37l-2.23,1.08l-0.28,1.62l-0.97,0.41l0.01,1.12l-1.1,-0.08l-0.95,-0.65l-0.52,0.68l-1.95,-0.14l0.62,-0.36l-0.67,-1.71l0.3,-1.99Z" style="fill:#becbcd;fill-rule:nonzero;stroke:#fff;stroke-width:0.5px;"/><path id="SK" d="M94.699,129.598l0.16,0.26l1.16,-0.58l1.41,1.52l1.66,-0.92l1.32,0.44l2.02,-0.6l2.66,1.64l-0.77,1.11l-0.55,1.71l-0.6,0.43l-3,-1.28l-0.92,0.25l-0.66,1l-1.32,0.52l-0.3,-0.27l-1.36,0.65l-1.12,0.13l-0.22,0.84l-2.36,0.51l-1.03,-0.46l-1.43,-1.07l-0.28,-1.45l0.23,-0.54l0.39,-0.93l1.25,0.07l0.95,-0.44l0.08,-0.39l0.54,-0.21l0.18,-0.97l0.64,-0.19l0.44,-0.77l0.83,-0.01Z" style="fill:#becbcd;fill-rule:nonzero;stroke:#fff;stroke-width:0.5px;"/><path id="UA" d="M130.969,118.068l1.04,0.19l0.71,-1.04l0.85,0.23l2.91,-0.44l1.79,2.57l-0.7,0.92l0.23,1.39l2.24,0.21l1,1.93l-0.06,0.87l3.56,1.54l2.15,-0.69l1.73,2.04l1.64,-0.04l4.13,1.4l0.03,1.27l-1.13,2.23l0.61,2.33l-0.44,1.39l-2.71,0.31l-1.44,1.16l-0.09,1.83l-2.24,0.33l-1.87,1.32l-2.62,0.21l-2.42,1.52l-1.32,1.03l1.49,1.47l1.37,0.96l2.86,-0.24l-0.55,1.42l-3.07,0.68l-3.81,2.27l-1.55,-0.79l0.61,-1.85l-3.06,-1.16l0.5,-0.77l3.16,-1.63l-0.4,-0.81l-0.45,0.41l-0.44,-0.22l-4.36,-1.02l-0.19,-1.51l-2.6,0.5l-1.04,2.23l-2.17,2.95l-1.28,-0.68l-1.31,0.64l-1.25,-0.73l0.7,-0.44l0.49,-1.37l0.77,-1.29l-0.2,-0.72l0.59,-0.32l0.27,0.56l1.66,0.11l0.74,-0.29l-0.52,-0.42l0.19,-0.6l-0.98,-1.04l-0.4,-1.72l-1.02,-0.67l0.2,-1.41l-1.27,-1.12l-1.15,-0.16l-2.07,-1.31l-1.86,0.42l-0.67,0.62l-1.18,-0.01l-0.71,0.98l-2.07,0.4l-0.95,0.64l-1.31,-1.01l-1.79,-0.02l-1.74,-0.46l-1.21,0.89l-0.2,-1.12l-1.55,-1.14l0.55,-1.71l0.77,-1.1l0.62,0.24l-0.73,-1.92l2.55,-3.61l1.39,-0.51l0.3,-1.24l-1.41,-3.89l1.34,-0.17l1.54,-1.23l2.17,-0.1l2.83,0.36l3.13,1.08l2.21,0.09l1.05,0.65l1.05,-0.78l0.74,1.05l2.53,-0.22l1.11,0.43l0.19,-2.26l0.86,-1l2.41,-0.27Z" style="fill:#d9d9d9;fill-rule:nonzero;stroke:#fff;stroke-width:0.5px;"/></g></svg>