<?xml version="1.0" encoding="UTF-8" standalone="no"?><!DOCTYPE svg PUBLIC "-//W3C//DTD SVG 1.1//EN" "http://www.w3.org/Graphics/SVG/1.1/DTD/svg11.dtd"><svg width="100%" height="100%" viewBox="0 0 66 264" version="1.1" xmlns="http://www.w3.org/2000/svg" xmlns:xlink="http://www.w3.org/1999/xlink" xml:space="preserve" xmlns:serif="http://www.serif.com/" style="fill-rule:evenodd;clip-rule:evenodd;stroke-miterlimit:3.86369;"><rect id="_12-Fret-Neck" serif:id="12 Fret Neck" x="0" y="0" width="65.634" height="263.364" style="fill:none;"/><clipPath id="_clip1"><rect x="0" y="0" width="65.634" height="263.364"/></clipPath><g clip-path="url(#_clip1)"><g><rect x="9.285" y="42.347" width="5" height="4" style="fill:#a7a9ac;stroke:#a7a9ac;stroke-width:1px;"/><path d="M1.535,44.722c0,3.518 1.793,6.375 4,6.375c2.208,0 4,-2.857 4,-6.375c0,-3.519 -1.792,-6.375 -4,-6.375c-2.207,0 -4,2.856 -4,6.375Z" style="fill:#a7a9ac;stroke:#a7a9ac;stroke-width:1px;"/></g><g><rect x="51.337" y="42.506" width="5.5" height="4.5" style="fill:#a7a9ac;stroke:#a7a9ac;stroke-width:1px;"/><path d="M56.337,44.631c0,3.519 1.68,6.375 3.75,6.375c2.069,0 3.75,-2.856 3.75,-6.375c0,-3.518 -1.681,-6.375 -3.75,-6.375c-2.07,0 -3.75,2.857 -3.75,6.375Z" style="fill:#a7a9ac;stroke:#a7a9ac;stroke-width:1px;"/></g><g><rect x="9.833" y="22.209" width="4.75" height="4.25" style="fill:#a7a9ac;stroke:#a7a9ac;stroke-width:1px;"/><path d="M1.833,24.084c0,3.38 1.904,6.125 4.25,6.125c2.345,0 4.25,-2.745 4.25,-6.125c0,-3.381 -1.905,-6.125 -4.25,-6.125c-2.346,0 -4.25,2.744 -4.25,6.125Z" style="fill:#a7a9ac;stroke:#a7a9ac;stroke-width:1px;"/></g><g><rect x="51.333" y="22.459" width="5.25" height="3.75" style="fill:#a7a9ac;stroke:#a7a9ac;stroke-width:1px;"/><path d="M56.083,24.334c0,3.518 1.737,6.375 3.875,6.375c2.139,0 3.875,-2.857 3.875,-6.375c0,-3.519 -1.736,-6.375 -3.875,-6.375c-2.138,0 -3.875,2.856 -3.875,6.375Z" style="fill:#a7a9ac;stroke:#a7a9ac;stroke-width:1px;"/></g><path d="M12.687,9.147c6.151,30.092 -4.118,48.495 -4.118,48.495c14.079,1.976 13.771,11.611 13.771,11.611l24.656,0c0,0 -0.924,-10.425 12.421,-12.203c-1.845,-2.173 -13.959,-17.811 -7.074,-48.496c-8.423,0 -12.233,-7.067 -20.349,-7.264c-7.501,0.197 -13.464,7.857 -19.307,7.857Z" style="fill:#d1d3d4;fill-rule:nonzero;stroke:#e6e7e8;stroke-width:0.81px;"/><path d="M22.583,69.329l-3.869,192.779l30.223,0l-1.854,-192.78l-24.5,0.001Z" style="fill:#d1d3d4;fill-rule:nonzero;stroke:#e6e7e8;stroke-width:1px;"/><path d="M22.487,92.076l24.348,0.07m-24.428,1.93l24.705,0.081m-25.453,17.688l25.44,0.072m-25.525,1.995l25.816,0.083m-25.685,16.716l25.441,0.072m-25.526,1.995l25.815,0.083m-26.192,15.119l26.342,0.056m-26.426,2.011l26.426,0.052m-26.844,14.079l26.844,0m-27.058,1.921l27.414,0m-27.414,14.008l27.556,0.072m-27.769,1.848l27.912,0.071m-28.446,12.659l28.231,0.284m-28.231,1.564l28.446,0.356m-28.588,11.307l28.801,-0.142m-28.943,2.133l28.587,0.142m-28.516,10.702l28.799,0.072m-29.084,2.311l28.944,-0.071m-29.228,9.777l29.511,-0.213m-29.511,2.276l29.583,-0.072m-29.512,9.565l29.583,0.071m-29.725,2.098l29.369,-0.072m-29.582,8.854l30.223,-0.284m-0.285,2.418l-30.294,0.07" style="fill:none;fill-rule:nonzero;stroke:#e6e7e8;stroke-width:1px;"/><path d="M32.418,122.241c0,0.972 0.789,1.76 1.76,1.76c0.972,0 1.761,-0.788 1.761,-1.76c0,-0.972 -0.789,-1.76 -1.761,-1.76c-0.971,0 -1.76,0.788 -1.76,1.76Z" style="fill:#d1d3d4;stroke:#e6e7e8;stroke-width:1px;"/><path d="M32.238,156.576c0,0.972 0.789,1.761 1.761,1.761c0.971,0 1.76,-0.789 1.76,-1.761c0,-0.971 -0.789,-1.76 -1.76,-1.76c-0.972,0 -1.761,0.789 -1.761,1.76Z" style="fill:#d1d3d4;stroke:#e6e7e8;stroke-width:1px;"/><path d="M32.059,188.061c0,0.972 0.788,1.761 1.76,1.761c0.972,0 1.76,-0.789 1.76,-1.761c0,-0.971 -0.788,-1.76 -1.76,-1.76c-0.972,0 -1.76,0.789 -1.76,1.76Z" style="fill:#d1d3d4;stroke:#e6e7e8;stroke-width:1px;"/><path d="M32.382,227.856c0,0.972 0.789,1.76 1.761,1.76c0.972,0 1.76,-0.788 1.76,-1.76c0,-0.971 -0.788,-1.76 -1.76,-1.76c-0.972,0 -1.761,0.789 -1.761,1.76Z" style="fill:#d1d3d4;stroke:#e6e7e8;stroke-width:1px;"/><path d="M32.217,251.228c0,0.972 0.789,1.761 1.76,1.761c0.972,0 1.76,-0.789 1.76,-1.761c0,-0.971 -0.788,-1.76 -1.76,-1.76c-0.971,0 -1.76,0.789 -1.76,1.76Z" style="fill:#d1d3d4;stroke:#e6e7e8;stroke-width:1px;"/><path d="M44.513,69.208l1.642,192.9" style="fill:none;fill-rule:nonzero;stroke:#a7a9ac;stroke-width:1px;"/><path d="M38.772,262.108l-0.539,-192.305" style="fill:none;fill-rule:nonzero;stroke:#a7a9ac;stroke-width:1.5px;"/><path d="M30.497,69.208l-2.219,192.9" style="fill:none;fill-rule:nonzero;stroke:#a7a9ac;stroke-width:2px;"/><path d="M21.62,262.108l2.463,-192.305" style="fill:none;fill-rule:nonzero;stroke:#a7a9ac;stroke-width:1px;"/><path d="M44.583,69.328l4.815,-24.075" style="fill:none;fill-rule:nonzero;stroke:#a7a9ac;stroke-width:1px;"/><path d="M38.309,70.078l7.873,-46.434" style="fill:none;fill-rule:nonzero;stroke:#a7a9ac;stroke-width:1.5px;"/><path d="M24.138,70.075l-6.329,-25.758" style="fill:none;fill-rule:nonzero;stroke:#a7a9ac;stroke-width:1px;"/><path d="M30.543,69.578l-11.962,-46.441" style="fill:none;fill-rule:nonzero;stroke:#a7a9ac;stroke-width:2px;"/></g></svg>